<svg width="32" height="32" viewBox="0 0 32 32" fill="none" xmlns="http://www.w3.org/2000/svg">
<path d="M17.3847 8.5401L17.2769 8.74165L17.1128 9.06039L16.766 8.97133C16.5223 8.91033 16.2688 8.89917 16.0207 8.93852L15.6832 8.99477L15.5426 8.67603L15.4488 8.47917L15.2473 8.57291L15.3317 8.7604L15.4723 9.08382L15.191 9.29944C14.9934 9.45199 14.8291 9.64342 14.7083 9.86191L14.5395 10.1666L14.1973 10.0728L14.0099 10.026L13.9489 10.2369L14.1411 10.2885L14.4786 10.3822V10.7291C14.4722 10.9862 14.5201 11.2417 14.6192 11.479L14.7598 11.8024L14.4786 12.0134L14.3098 12.1352L14.4411 12.3134L14.6192 12.1868L14.9004 11.9806L15.1676 12.1962C15.3611 12.3521 15.5844 12.4669 15.8238 12.5337L16.1707 12.6274L16.1613 12.9789L16.1519 13.2133L16.3722 13.2227L16.3816 12.9743L16.3957 12.6321L16.7332 12.5524C16.9695 12.4965 17.1925 12.3946 17.3894 12.2524L17.6753 12.0509L17.9472 12.2759L18.1393 12.4446L18.2846 12.2759L18.0831 12.1024L17.8206 11.8774L17.9706 11.5681C18.0772 11.3511 18.1409 11.1155 18.1581 10.8744L18.1768 10.5228L18.519 10.4572L18.7768 10.4103L18.7346 10.19L18.4815 10.2369L18.1393 10.3072L17.9893 9.98378C17.8873 9.76222 17.7423 9.56309 17.5628 9.39787L17.305 9.16351L17.4644 8.85884L17.5816 8.64322L17.3847 8.5401ZM16.63 8.03388L16.7003 7.90263C16.7594 7.78849 16.8512 7.69454 16.9639 7.63276C17.0766 7.57099 17.2051 7.54418 17.3331 7.55577C17.4166 7.56373 17.4977 7.58759 17.5722 7.62608H17.5769L18.2143 7.95888C18.2907 7.99755 18.3587 8.05101 18.4143 8.11616C18.4699 8.1813 18.5119 8.25683 18.5381 8.33837C18.5643 8.41991 18.574 8.50583 18.5667 8.59115C18.5594 8.67647 18.5352 8.75949 18.4956 8.8354L18.4159 8.99008C18.4963 9.08473 18.57 9.18497 18.6362 9.29006L18.8096 9.25725C18.8937 9.24026 18.9803 9.24017 19.0644 9.25697C19.1485 9.27377 19.2285 9.30713 19.2996 9.35511C19.3707 9.40309 19.4315 9.46473 19.4786 9.53645C19.5256 9.60817 19.5579 9.68853 19.5736 9.77285L19.7096 10.4806C19.7266 10.5647 19.7267 10.6513 19.7099 10.7354C19.6931 10.8195 19.6597 10.8995 19.6117 10.9706C19.5637 11.0417 19.5021 11.1025 19.4304 11.1496C19.3587 11.1966 19.2783 11.229 19.194 11.2447L19.0065 11.2822C18.9829 11.3997 18.9515 11.5156 18.9127 11.629L19.058 11.7509C19.1898 11.8616 19.2724 12.02 19.2877 12.1915V12.3087C19.2789 12.394 19.2534 12.4768 19.2127 12.5524C19.1906 12.5943 19.1639 12.6336 19.133 12.6696L18.6643 13.218C18.609 13.2835 18.5412 13.3373 18.4648 13.3763C18.3885 13.4154 18.3052 13.4388 18.2197 13.4454C18.1342 13.4519 18.0483 13.4414 17.9669 13.4144C17.8855 13.3875 17.8103 13.3446 17.7456 13.2883L17.6097 13.1758C17.5008 13.2348 17.388 13.2865 17.2722 13.3305L17.2628 13.5039C17.2555 13.6751 17.1811 13.8365 17.0556 13.9532C16.9302 14.0698 16.7638 14.1324 16.5925 14.1273L15.8895 14.1039H15.8707C15.7012 14.0978 15.5407 14.0258 15.4234 13.9033C15.3062 13.7807 15.2413 13.6173 15.2426 13.4477V13.4336L15.2473 13.2836C15.124 13.232 15.0049 13.1709 14.8911 13.1008L14.7786 13.1852C14.7101 13.2364 14.6322 13.2735 14.5492 13.2944C14.4663 13.3153 14.3801 13.3196 14.2955 13.3069C14.211 13.2943 14.1298 13.265 14.0566 13.2208C13.9834 13.1765 13.9197 13.1182 13.8692 13.0493L13.438 12.4727C13.3866 12.4044 13.3493 12.3265 13.3284 12.2436C13.3074 12.1607 13.3033 12.0745 13.3161 11.9899C13.3415 11.8201 13.4323 11.667 13.5693 11.5634H13.5739L13.6724 11.4884C13.635 11.3532 13.6084 11.2153 13.5927 11.0759L13.4755 11.0431C13.3091 10.9981 13.1673 10.8889 13.0812 10.7396C12.9951 10.5902 12.9717 10.4128 13.0162 10.2463L13.2036 9.55255C13.2254 9.46973 13.2633 9.39201 13.3152 9.32385C13.3671 9.25569 13.4318 9.19842 13.5059 9.15532C13.5799 9.11222 13.6616 9.08414 13.7465 9.07267C13.8314 9.06121 13.9177 9.06659 14.0005 9.08851L14.1177 9.12132C14.1961 9.01514 14.2823 8.91487 14.3755 8.82134L14.3286 8.70884H14.3239C14.2542 8.55148 14.2492 8.37305 14.3098 8.21199C14.3721 8.05145 14.495 7.92182 14.652 7.85107L15.3082 7.55577H15.3176C15.4743 7.48631 15.6521 7.48184 15.812 7.54336C15.972 7.60488 16.101 7.72735 16.1707 7.88388L16.1754 7.89326L16.2316 8.01513C16.3647 8.01156 16.4979 8.01783 16.63 8.03388ZM16.5316 19.9395H15.191L15.0504 19.6677L14.1458 17.9334L14.0895 17.7084C14.0895 17.4787 14.1833 17.2772 14.3427 17.1319C14.4965 16.988 14.6991 16.9076 14.9098 16.9069H17.0847C17.305 16.9069 17.5066 16.9913 17.6519 17.1272C17.7331 17.2006 17.798 17.2903 17.8424 17.3904C17.8868 17.4906 17.9097 17.5989 17.9097 17.7084L17.8534 17.9334L16.9769 19.6677L16.8363 19.9395H16.5316ZM15.7957 18.9365H16.2316L16.7519 17.9053H15.2614L15.7957 18.9365Z" fill="white"/>
<path d="M17.3426 25.9862L16.438 27.219C16.3851 27.2895 16.3164 27.3466 16.2375 27.3857C16.1585 27.4247 16.0714 27.4447 15.9833 27.444C15.8907 27.4447 15.7994 27.4224 15.7175 27.3791C15.6357 27.3357 15.566 27.2726 15.5146 27.1956L14.6709 25.9675C14.6094 25.8743 14.5768 25.7651 14.5772 25.6534V25.6159L14.999 19.6397V19.6303C15.0119 19.4902 15.0768 19.3601 15.1809 19.2655C15.285 19.1709 15.4208 19.1188 15.5615 19.1194H16.438C16.5739 19.1194 16.7052 19.1663 16.8036 19.2553C16.9114 19.3491 16.9817 19.4756 16.9958 19.6303V19.6397L17.4504 25.6113C17.4598 25.6863 17.4504 25.7519 17.4317 25.8128C17.4164 25.8625 17.3943 25.9098 17.3661 25.9534L17.3426 25.9862ZM15.9974 26.1362L16.4427 25.5269L16.0349 20.1225H15.9646L15.5802 25.5316L15.9974 26.1362Z" fill="white"/>
<path d="M17.9991 16.4992H14.0149C12.4435 16.4849 10.9206 17.043 9.73073 18.0695C9.19373 18.5258 8.761 19.0921 8.4618 19.7302C8.16259 20.3682 8.00389 21.063 7.99644 21.7677V26.1269C10.7104 26.8768 13.9118 27.4393 17.0382 27.4393C19.5131 27.4393 21.9364 27.0831 23.9988 26.1737V21.7677C23.9988 20.31 23.3332 19.0116 22.2739 18.0648C21.0868 17.0403 19.567 16.4837 17.9991 16.4992ZM14.0149 15.5008H17.9991C19.8974 15.5008 21.6551 16.1899 22.9301 17.3242C24.2003 18.4491 24.9972 20.01 24.9972 21.7677V26.8112L24.7159 26.9471C22.4379 28.0158 19.7615 28.4377 17.0382 28.4377C13.7616 28.3917 10.5066 27.8981 7.36365 26.9706L6.99805 26.8675V21.7583C6.99805 20.0053 7.79488 18.4444 9.06982 17.3195C10.3541 16.1852 12.1165 15.4915 14.0149 15.4915V15.5008Z" fill="white"/>
<path d="M16.3588 5.67167C17.0347 5.66919 17.7045 5.8005 18.3294 6.05802C18.9544 6.31555 19.5222 6.69421 20.0002 7.17218C20.4782 7.65014 20.8568 8.21797 21.1143 8.84294C21.3719 9.46791 21.5032 10.1377 21.5007 10.8136C21.5032 11.4895 21.3719 12.1593 21.1143 12.7843C20.8568 13.4092 20.4782 13.9771 20.0002 14.455C19.5222 14.933 18.9544 15.3117 18.3294 15.5692C17.7045 15.8267 17.0347 15.958 16.3588 15.9555C15.6828 15.958 15.0131 15.8267 14.3881 15.5692C13.7631 15.3117 13.1953 14.933 12.7173 14.455C12.2394 13.9771 11.8607 13.4092 11.6032 12.7843C11.3457 12.1593 11.2144 11.4895 11.2168 10.8136C11.2144 10.1377 11.3457 9.46791 11.6032 8.84294C11.8607 8.21797 12.2394 7.65014 12.7173 7.17218C13.1953 6.69421 13.7631 6.31555 14.3881 6.05802C15.0131 5.8005 15.6828 5.66919 16.3588 5.67167ZM19.2883 7.88874C18.9048 7.50185 18.4485 7.19475 17.9457 6.98517C17.4429 6.77559 16.9035 6.66769 16.3588 6.66769C15.814 6.66769 15.2747 6.77559 14.7719 6.98517C14.269 7.19475 13.8127 7.50185 13.4292 7.88874C13.0423 8.27223 12.7352 8.72856 12.5257 9.23137C12.3161 9.73419 12.2082 10.2735 12.2082 10.8183C12.2082 11.363 12.3161 11.9024 12.5257 12.4052C12.7352 12.908 13.0423 13.3643 13.4292 13.7478C13.8127 14.1347 14.269 14.4418 14.7719 14.6514C15.2747 14.861 15.814 14.9689 16.3588 14.9689C16.9035 14.9689 17.4429 14.861 17.9457 14.6514C18.4485 14.4418 18.9048 14.1347 19.2883 13.7478C19.6752 13.3643 19.9823 12.908 20.1919 12.4052C20.4015 11.9024 20.5094 11.363 20.5094 10.8183C20.5094 10.2735 20.4015 9.73419 20.1919 9.23137C19.9823 8.72856 19.6752 8.27223 19.2883 7.88874Z" fill="white"/>
</svg>
