<svg width="30" height="30" viewBox="0 0 30 30" fill="none" xmlns="http://www.w3.org/2000/svg">
<circle cx="15" cy="15" r="15" fill="#DBEFFF"/>
<g clip-path="url(#clip0_359_3683)">
<path d="M15 5.88C9.96 5.88 5.88 9.96 5.88 15C5.88 20.04 9.96 24.12 15 24.12C20.04 24.12 24.12 20.04 24.12 15C24.12 9.96 20.04 5.88 15 5.88ZM15 23.16C10.488 23.16 6.84 19.512 6.84 15C6.84 10.488 10.488 6.84 15 6.84C19.512 6.84 23.16 10.488 23.16 15C23.16 19.512 19.512 23.16 15 23.16ZM19.68 15C19.68 15.264 19.464 15.48 19.2 15.48H10.8C10.536 15.48 10.32 15.264 10.32 15C10.32 14.736 10.536 14.52 10.8 14.52H19.2C19.464 14.52 19.68 14.736 19.68 15ZM19.68 17.88C19.68 18.144 19.464 18.36 19.2 18.36H10.8C10.536 18.36 10.32 18.144 10.32 17.88C10.32 17.616 10.536 17.4 10.8 17.4H19.2C19.464 17.4 19.68 17.616 19.68 17.88ZM19.68 12.12C19.68 12.384 19.464 12.6 19.2 12.6H10.8C10.536 12.6 10.32 12.384 10.32 12.12C10.32 11.856 10.536 11.64 10.8 11.64H19.2C19.464 11.64 19.68 11.856 19.68 12.12Z" fill="#0074CC"/>
<path d="M95.1599 -287.4V116.76H-333V-287.4H95.1599ZM97.08 -289.32H-334.92V118.68H97.08V-289.32Z" fill="#0000FF"/>
</g>
<defs>
<clipPath id="clip0_359_3683">
<rect width="24" height="24" fill="white" transform="translate(3 3)"/>
</clipPath>
</defs>
</svg>
