<svg width="16" height="14" viewBox="0 0 16 14" fill="none" xmlns="http://www.w3.org/2000/svg">
<path d="M10.6717 8.54688H12.4646M14.3121 13.4547H1.44141C1.19883 13.4547 1.00195 13.2561 1.00195 13.0152V3.02383C1.00195 2.78126 1.20059 2.58438 1.44141 2.58438H14.3139C14.5564 2.58438 14.7533 2.78301 14.7533 3.02383V13.0152C14.7516 13.2561 14.5547 13.4547 14.3121 13.4547V13.4547ZM6.98027 5.98223H8.77324H6.98027ZM3.28887 5.98223H5.08184H3.28887ZM10.6717 5.98223H12.4646H10.6717ZM6.98027 11.1098H8.77324H6.98027ZM3.28887 11.1098H5.08184H3.28887ZM4.36113 4.02403V0.615631V4.02403ZM11.3924 4.02403V0.615631V4.02403ZM6.98027 8.54688H8.77324H6.98027ZM3.28887 8.54688H5.08184H3.28887Z" stroke="#435BAA" stroke-miterlimit="10"/>
</svg>
