<svg width="28" height="28" viewBox="0 0 28 28" fill="none" xmlns="http://www.w3.org/2000/svg">
<circle cx="14" cy="14" r="14" fill="#DBEFFF"/>
<path d="M16.6717 15.5469H18.4646M20.3121 20.4547H7.44141C7.19883 20.4547 7.00195 20.2561 7.00195 20.0152V10.0238C7.00195 9.78126 7.20059 9.58438 7.44141 9.58438H20.3139C20.5564 9.58438 20.7533 9.78301 20.7533 10.0238V20.0152C20.7516 20.2561 20.5547 20.4547 20.3121 20.4547V20.4547ZM12.9803 12.9822H14.7732H12.9803ZM9.28887 12.9822H11.0818H9.28887ZM16.6717 12.9822H18.4646H16.6717ZM12.9803 18.1098H14.7732H12.9803ZM9.28887 18.1098H11.0818H9.28887ZM10.3611 11.024V7.61563V11.024ZM17.3924 11.024V7.61563V11.024ZM12.9803 15.5469H14.7732H12.9803ZM9.28887 15.5469H11.0818H9.28887Z" stroke="#0074CC" stroke-miterlimit="10"/>
</svg>
