<svg width="9" height="13" viewBox="0 0 9 13" fill="none" xmlns="http://www.w3.org/2000/svg">
<path d="M8.73907 10.5255L7.65485 8.69713C7.62103 8.63994 7.5586 8.534 7.43373 8.48421C7.26725 8.41958 7.11428 8.5054 7.04874 8.54193L5.96194 9.14627C5.78401 9.24425 5.58631 9.33535 5.46459 9.26862C5.3954 9.23102 5.34232 9.13939 5.27989 9.0234L4.07967 6.79199L2.9497 4.53277C2.893 4.41943 2.8467 4.31932 2.855 4.23936C2.86932 4.09873 3.05479 3.98434 3.23401 3.89111L4.33721 3.31671C4.40407 3.28202 4.56013 3.20045 4.60125 3.02566C4.63169 2.8959 4.58095 2.78227 4.55366 2.72085L3.68042 0.777836C3.58183 0.558821 3.44682 0.259053 3.16614 0.103852C2.83032 -0.0817861 2.43181 0.0252006 2.19405 0.0900911C1.67537 0.230718 1.21598 0.374522 0.847372 0.710582C0.220165 1.28338 0.0916533 2.20735 0.0203816 3.02857C-0.0467372 3.80106 0.0521096 4.71575 0.314059 5.74725C0.535174 6.61932 0.873321 7.47204 1.31996 8.28347C1.72629 9.1145 2.22676 9.87877 2.80919 10.5562C3.50893 11.3692 4.17641 11.9507 4.84989 12.3348C5.42711 12.6642 6.08158 13 6.74805 13C6.89735 13 7.04719 12.9836 7.19704 12.946C7.67775 12.8252 8.05286 12.5201 8.45916 12.1632C8.6454 11.999 8.95757 11.7246 8.99606 11.338C9.02781 11.0133 8.86079 10.7315 8.73907 10.5255ZM8.18032 11.8348C7.81666 12.1547 7.48421 12.4269 7.09507 12.5244C6.42705 12.6922 5.69298 12.3183 5.058 11.9566C4.43629 11.6017 3.78755 11.0345 3.12969 10.2702C2.60084 9.65526 2.142 8.9646 1.76351 8.21462C1.75863 8.19611 1.75146 8.17832 1.74218 8.16165C1.72689 8.13475 1.7118 8.10773 1.69691 8.08061C1.68273 8.05176 1.66877 8.0228 1.65502 7.99374C1.64668 7.97632 1.63609 7.96011 1.62355 7.94555C1.22867 7.20457 0.927182 6.4297 0.726625 5.63867C0.476903 4.65512 0.381951 3.78993 0.444917 3.0667C0.508914 2.32812 0.620246 1.5008 1.13192 1.03364C1.43003 0.76166 1.83893 0.635345 2.30353 0.509556C2.5426 0.444665 2.79075 0.390384 2.9627 0.485185C3.10681 0.564887 3.19759 0.74656 3.2928 0.958432L4.16993 2.91602C4.16266 2.91999 4.15381 2.92503 4.14313 2.9306L3.03993 3.50474C2.85549 3.60088 2.47156 3.8008 2.43098 4.19408C2.40888 4.40832 2.502 4.59422 2.56989 4.72983L3.71003 7.0089L4.9061 9.23209C4.97814 9.36558 5.07647 9.54883 5.26274 9.65103C5.60194 9.83746 5.9833 9.62774 6.16539 9.52763L7.25273 8.92329C7.2907 8.9021 7.30736 8.89575 7.28915 8.92064L8.37388 10.75C8.49197 10.9492 8.58824 11.1277 8.57158 11.2945C8.55228 11.4926 8.36759 11.67 8.18032 11.8348Z" fill="#02101B"/>
</svg>
