<svg width="18" height="18" viewBox="0 0 18 18" fill="none" xmlns="http://www.w3.org/2000/svg">
<path d="M8.99981 16.2C7.57578 16.2 6.18374 15.7777 4.9997 14.9866C3.81567 14.1954 2.89283 13.0709 2.34788 11.7553C1.80292 10.4397 1.66034 8.992 1.93815 7.59534C2.21597 6.19868 2.9017 4.91576 3.90864 3.90882C4.91558 2.90188 6.19849 2.21615 7.59516 1.93834C8.99182 1.66052 10.4395 1.80311 11.7551 2.34806C13.0708 2.89301 14.1952 3.81585 14.9864 4.99989C15.7775 6.18392 16.1998 7.57597 16.1998 8.99999C16.1998 10.9096 15.4412 12.7409 14.091 14.0912C12.7407 15.4414 10.9094 16.2 8.99981 16.2ZM8.99981 2.99999C7.81312 2.99999 6.65308 3.35188 5.66639 4.01117C4.67969 4.67046 3.91066 5.60753 3.45653 6.70389C3.0024 7.80025 2.88358 9.00665 3.1151 10.1705C3.34661 11.3344 3.91805 12.4035 4.75717 13.2426C5.59628 14.0817 6.66538 14.6532 7.82927 14.8847C8.99315 15.1162 10.1996 14.9974 11.2959 14.5433C12.3923 14.0891 13.3293 13.3201 13.9886 12.3334C14.6479 11.3467 14.9998 10.1867 14.9998 8.99999C14.9998 7.40869 14.3677 5.88257 13.2424 4.75735C12.1172 3.63213 10.5911 2.99999 8.99981 2.99999Z" fill="#0074CC"/>
<path d="M12.0004 12.3C11.8517 12.2996 11.7084 12.244 11.5984 12.144L8.59839 9.44399C8.53624 9.3879 8.48651 9.31941 8.45241 9.24295C8.41831 9.16648 8.40059 9.08372 8.40039 8.99999V5.99999C8.40039 5.84086 8.4636 5.68825 8.57613 5.57573C8.68865 5.46321 8.84126 5.39999 9.00039 5.39999C9.15952 5.39999 9.31213 5.46321 9.42465 5.57573C9.53718 5.68825 9.60039 5.84086 9.60039 5.99999V8.72999L12.4024 11.25C12.4941 11.3309 12.559 11.4379 12.5882 11.5567C12.6174 11.6754 12.6096 11.8003 12.5659 11.9145C12.5222 12.0288 12.4446 12.1269 12.3435 12.1958C12.2424 12.2647 12.1227 12.301 12.0004 12.3Z" fill="#0074CC"/>
</svg>
