<svg width="28" height="28" viewBox="0 0 28 28" fill="none" xmlns="http://www.w3.org/2000/svg">
<circle cx="14" cy="14" r="14" fill="#DBEFFF"/>
<path d="M13.9998 21.2C12.5758 21.2 11.1837 20.7777 9.9997 19.9866C8.81567 19.1954 7.89283 18.0709 7.34788 16.7553C6.80292 15.4397 6.66034 13.992 6.93815 12.5953C7.21597 11.1987 7.9017 9.91576 8.90864 8.90882C9.91558 7.90188 11.1985 7.21615 12.5952 6.93834C13.9918 6.66052 15.4395 6.80311 16.7551 7.34806C18.0708 7.89301 19.1952 8.81585 19.9864 9.99989C20.7775 11.1839 21.1998 12.576 21.1998 14C21.1998 15.9096 20.4412 17.7409 19.091 19.0912C17.7407 20.4414 15.9094 21.2 13.9998 21.2ZM13.9998 7.99999C12.8131 7.99999 11.6531 8.35188 10.6664 9.01117C9.67969 9.67046 8.91066 10.6075 8.45653 11.7039C8.0024 12.8002 7.88358 14.0066 8.1151 15.1705C8.34661 16.3344 8.91805 17.4035 9.75717 18.2426C10.5963 19.0817 11.6654 19.6532 12.8293 19.8847C13.9932 20.1162 15.1996 19.9974 16.2959 19.5433C17.3923 19.0891 18.3293 18.3201 18.9886 17.3334C19.6479 16.3467 19.9998 15.1867 19.9998 14C19.9998 12.4087 19.3677 10.8826 18.2424 9.75735C17.1172 8.63213 15.5911 7.99999 13.9998 7.99999Z" fill="#0074CC"/>
<path d="M17.0004 17.3C16.8517 17.2996 16.7084 17.244 16.5984 17.144L13.5984 14.444C13.5362 14.3879 13.4865 14.3194 13.4524 14.2429C13.4183 14.1665 13.4006 14.0837 13.4004 14V11C13.4004 10.8409 13.4636 10.6883 13.5761 10.5757C13.6886 10.4632 13.8413 10.4 14.0004 10.4C14.1595 10.4 14.3121 10.4632 14.4247 10.5757C14.5372 10.6883 14.6004 10.8409 14.6004 11V13.73L17.4024 16.25C17.4941 16.3309 17.559 16.4379 17.5882 16.5567C17.6174 16.6754 17.6096 16.8003 17.5659 16.9145C17.5222 17.0288 17.4446 17.1269 17.3435 17.1958C17.2424 17.2647 17.1227 17.301 17.0004 17.3Z" fill="#0074CC"/>
</svg>
