<svg width="16" height="16" viewBox="0 0 16 16" fill="none" xmlns="http://www.w3.org/2000/svg">
<path d="M15 0.5H1C0.867392 0.5 0.740215 0.552678 0.646447 0.646447C0.552678 0.740215 0.5 0.867392 0.5 1V15C0.5 15.1326 0.552678 15.2598 0.646447 15.3536C0.740215 15.4473 0.867392 15.5 1 15.5H15C15.1326 15.5 15.2598 15.4473 15.3536 15.3536C15.4473 15.2598 15.5 15.1326 15.5 15V1C15.5 0.867392 15.4473 0.740215 15.3536 0.646447C15.2598 0.552678 15.1326 0.5 15 0.5ZM10 1.5V14.5H6V1.5H10ZM1.5 1.5H5V14.5H1.5V1.5ZM14.5 14.5H11V1.5H14.5V14.5Z" fill="#435BAA"/>
</svg>
