<svg width="30" height="30" viewBox="0 0 30 30" fill="none" xmlns="http://www.w3.org/2000/svg">
<path d="M29.6362 17.0455L26.318 11.3637C26.0907 10.9546 25.4998 10.7727 25.0907 11.0455L23.7271 11.8637C23.2725 12.1364 23.1362 12.6818 23.4089 13.0909L23.4544 13.1818C22.818 13.2273 21.7725 13.0455 21.0453 12.8182C20.5907 12.6818 20.1816 12.6364 19.818 12.5909V0.68184C19.818 0.409113 19.6362 0.227295 19.3635 0.227295H4.59073C4.54528 0.227295 4.49982 0.227295 4.45437 0.272749H4.40891C4.36346 0.272749 4.318 0.318204 4.27255 0.363659C-0.000177383 4.63639 0.27255 4.3182 0.227095 4.50002C0.227095 4.54548 0.181641 4.63639 0.181641 4.63639V29.3182C0.181641 29.5909 0.363459 29.7727 0.636186 29.7727H19.2725C19.5453 29.7727 19.7271 29.5909 19.7271 29.3182V24.8182C20.318 25.0909 20.9998 24.8637 21.3635 24.3182C21.4544 24.1364 21.5453 23.9546 21.5453 23.7727C22.0453 23.8182 22.4998 23.5455 22.7271 23.1818C22.8635 23 22.9089 22.7727 22.9089 22.5455C23.318 22.5455 23.7271 22.3182 23.9998 21.9546C24.0907 21.7727 24.1816 21.5909 24.1816 21.3637C24.6816 21.4091 25.1362 21.1364 25.3635 20.7727C25.5453 20.5 25.6362 20.1364 25.5453 19.7727C25.9089 19.5 26.2725 19.1364 26.5907 18.7727V18.8182C26.7725 19.0909 27.0453 19.2727 27.3635 19.2727C27.5453 19.2727 27.6816 19.2273 27.818 19.1364L29.1816 18.3182C29.7725 18.0455 29.9089 17.5 29.6362 17.0455ZM4.18164 1.77275V4.18184H1.77255L4.18164 1.77275ZM1.13619 28.8637V5.09093H4.63619C4.90891 5.09093 5.09073 4.90911 5.09073 4.63639V1.13639H18.8635V12.5909C17.9544 12.6364 16.4089 13.0455 15.9089 13.7727C15.1362 13.7273 14.4998 13.5 14.0453 13.2273L14.1362 13.0455C14.4089 12.5909 14.2271 12.0455 13.818 11.8182L12.4544 11C12.0453 10.7727 11.4544 10.9091 11.2271 11.3182L7.90891 17C7.63619 17.4546 7.818 18 8.2271 18.2273L9.59073 19.0455C9.99982 19.3182 10.5453 19.1364 10.818 18.7273C11.1816 19.1364 11.3635 19.4091 11.4998 19.6364L11.3635 19.8182C10.9089 20.3637 10.9544 21.2273 11.4998 21.6818C11.7271 21.8637 12.0453 22 12.3635 22H12.4089C12.4998 22.6818 13.1362 23.2273 13.9089 23.0909C13.9544 23.3637 14.1362 23.5909 14.318 23.7727C14.5907 24 14.9998 24.1364 15.4089 24.0455C15.4998 24.2727 15.6362 24.5 15.818 24.6818C16.3635 25.1364 17.2271 25.0909 17.6816 24.5455L18.2271 23.9091L18.8635 24.3182V28.9546H1.13619V28.8637ZM9.99982 18.3182L8.63619 17.5L11.9544 11.8182L13.318 12.6364L9.99982 18.3182ZM17.7271 23.0455L16.9998 23.9091C16.8635 24.0909 16.5907 24.0909 16.4089 23.9546C16.2271 23.8182 16.2271 23.5455 16.3635 23.3637L17.0907 22.5C17.1816 22.4091 17.2725 22.3637 17.4089 22.3637C17.4998 22.3637 17.5907 22.3637 17.6816 22.4546C17.8635 22.6364 17.8635 22.8637 17.7271 23.0455ZM16.4998 21.8182L15.4544 23.0455C15.318 23.2273 15.0453 23.2273 14.8635 23.0909C14.6816 22.9546 14.6816 22.6818 14.818 22.5L15.8635 21.2727C15.9998 21.0909 16.2725 21.0909 16.4544 21.2273C16.6362 21.3637 16.6816 21.6364 16.4998 21.8182ZM15.318 20.5455L13.9998 22.0909C13.8635 22.2727 13.5907 22.2727 13.4089 22.1364C13.2271 22 13.2271 21.7273 13.3635 21.5455L14.6816 20C14.818 19.8182 15.0907 19.8182 15.2725 19.9546C15.4544 20.0909 15.4544 20.3637 15.318 20.5455ZM13.4998 19.9546L12.6816 20.9091C12.5453 21.0909 12.2725 21.0909 12.0907 20.9546C11.9089 20.8182 11.9089 20.5455 12.0453 20.3637C12.0907 20.3182 12.9089 19.3182 12.8635 19.4091C12.9998 19.2273 13.2725 19.2273 13.4544 19.3637C13.6362 19.5455 13.6816 19.8182 13.4998 19.9546ZM24.6816 20.2727C24.5453 20.4546 24.318 20.5455 24.1362 20.4091L21.1362 18.5H21.0907C21.0453 18.5 20.5907 18.0455 20.2725 18.5C20.1362 18.7273 20.1816 19 20.4089 19.1364L23.1816 20.9091C23.3635 21.0455 23.4089 21.2727 23.318 21.4546C23.1816 21.6364 22.9544 21.6818 22.7725 21.5909L20.318 20C20.0907 19.8637 19.818 19.9091 19.6816 20.1364C19.5453 20.3637 19.5907 20.6364 19.818 20.7727L21.9089 22.0909C22.0907 22.2273 22.1362 22.4546 22.0453 22.6364C21.9089 22.8182 21.6816 22.8637 21.4544 22.7727C21.4089 22.7273 19.7725 21.7273 19.818 21.7273C19.7725 21.7273 19.5907 21.5455 19.318 21.7273L19.1816 21.8637C19.0453 22.0909 19.1362 22.3637 19.318 22.5C20.1816 23.0909 20.9089 23.3182 20.6362 23.7727C20.4998 23.9546 20.2725 24 20.0907 23.9091L18.7271 23.0455C18.818 22.5909 18.6816 22.0909 18.318 21.7273C18.0907 21.5455 17.818 21.4546 17.5907 21.4546C17.5907 21.0455 17.4089 20.7273 17.1362 20.5C16.9089 20.3182 16.6816 20.2273 16.4089 20.2273C16.4089 19.8182 16.2271 19.4546 15.9544 19.2273C15.5453 18.8637 14.9544 18.8637 14.4544 19.0909C14.3635 18.9546 14.2725 18.8182 14.1362 18.6818C13.5907 18.2273 12.7271 18.3182 12.2725 18.8182L12.1816 18.9546C11.9544 18.6818 11.7271 18.3182 11.3635 17.9546L13.6816 14.0455C14.1362 14.2727 14.7271 14.5455 15.4998 14.6364L14.6816 16C14.5453 16.2273 14.4998 16.4546 14.5907 16.7273C14.6816 16.9546 14.818 17.1818 15.0907 17.2727C15.6362 17.5455 16.7271 17.6818 18.1362 16C18.2271 15.9546 18.3635 15.8637 18.5907 15.8637L21.7271 17.7727L24.7271 19.6818C24.7725 19.8182 24.818 20.0455 24.6816 20.2727ZM25.1362 18.9546L25.0907 18.9091L22.0907 17L18.8635 15C18.7271 14.9091 18.6362 14.9091 18.4998 14.9091C18.1816 14.9546 17.5453 15.1364 17.4089 15.3637C16.6816 16.3182 15.9544 16.6818 15.4544 16.4546C16.818 14.2273 16.7271 14.2727 16.8635 14.1818C17.2271 13.9091 18.6816 13.0909 20.9089 13.6818C21.2725 13.7727 22.9998 14.2273 24.0453 14L26.318 17.9091C25.9089 18.2727 25.4998 18.6818 25.1362 18.9546ZM27.4998 18.3182L24.1816 12.6364L25.5453 11.8182L28.8635 17.5L27.4998 18.3182Z" fill="#0074CC"/>
<path d="M7.54532 5.54557H16.3635C16.6362 5.54557 16.818 5.36375 16.818 5.09102C16.818 4.81829 16.6362 4.63647 16.3635 4.63647H7.54532C7.27259 4.63647 7.09078 4.81829 7.09078 5.09102C7.09078 5.31829 7.31805 5.54557 7.54532 5.54557ZM3.59078 8.95466H16.3635C16.6362 8.95466 16.818 8.77284 16.818 8.50011C16.818 8.22738 16.6362 8.04557 16.3635 8.04557H3.59078C3.31805 8.04557 3.13623 8.22738 3.13623 8.50011C3.13623 8.77284 3.3635 8.95466 3.59078 8.95466ZM3.59078 12.4092H6.13623C6.40896 12.4092 6.59078 12.2274 6.59078 11.9547C6.59078 11.6819 6.40896 11.5001 6.13623 11.5001H3.59078C3.31805 11.5001 3.13623 11.6819 3.13623 11.9547C3.13623 12.2274 3.3635 12.4092 3.59078 12.4092ZM3.59078 15.8637H5.22714C5.49987 15.8637 5.68168 15.6819 5.68168 15.4092C5.68168 15.1365 5.49987 14.9547 5.22714 14.9547H3.59078C3.31805 14.9547 3.13623 15.1365 3.13623 15.4092C3.13623 15.6365 3.3635 15.8637 3.59078 15.8637ZM3.59078 19.2274H5.22714C5.49987 19.2274 5.68168 19.0456 5.68168 18.7728C5.68168 18.5001 5.49987 18.3183 5.22714 18.3183H3.59078C3.31805 18.3183 3.13623 18.5001 3.13623 18.7728C3.13623 19.0456 3.3635 19.2274 3.59078 19.2274ZM3.59078 22.7274H8.31805C8.59078 22.7274 8.77259 22.5456 8.77259 22.2728C8.77259 22.0001 8.59078 21.8183 8.31805 21.8183H3.59078C3.31805 21.8183 3.13623 22.0001 3.13623 22.2728C3.13623 22.5456 3.3635 22.7274 3.59078 22.7274ZM11.3635 25.2728H3.59078C3.31805 25.2728 3.13623 25.4547 3.13623 25.7274C3.13623 26.0001 3.31805 26.1819 3.59078 26.1819H11.3635C11.6362 26.1819 11.818 26.0001 11.818 25.7274C11.818 25.4547 11.6362 25.2728 11.3635 25.2728Z" fill="#0074CC"/>
</svg>
