<svg width="30" height="30" viewBox="0 0 30 30" fill="none" xmlns="http://www.w3.org/2000/svg">
<path d="M4.06673 1C2.35524 1 1.00093 2.37242 1.00093 4.06231C0.997619 12.2307 1.00423 20.3958 1.00423 28.5608C1.00423 28.9263 1.42756 29.1313 1.71363 28.9031L4.17422 26.9354L6.6348 28.9031C6.71235 28.9648 6.80854 28.9984 6.90765 28.9984C7.00676 28.9984 7.10294 28.9648 7.18049 28.9031L9.64108 26.9354L12.105 28.9031C12.1825 28.9648 12.2787 28.9984 12.3778 28.9984C12.4769 28.9984 12.5731 28.9648 12.6507 28.9031L15.1129 26.9354L17.5735 28.9031C17.651 28.9648 17.7472 28.9984 17.8463 28.9984C17.9454 28.9984 18.0416 28.9648 18.1192 28.9031L20.5781 26.9354L23.0387 28.9031C23.3264 29.1329 23.7497 28.9279 23.7497 28.5608L23.753 14.1207H28.5651C28.6224 14.1213 28.6792 14.1105 28.7323 14.0889C28.7853 14.0673 28.8336 14.0353 28.8741 13.9948C28.9146 13.9543 28.9466 13.906 28.9682 13.853C28.9898 13.7999 29.0006 13.7431 29 13.6858V4.06562C29.0008 3.66349 28.9224 3.26513 28.7692 2.89334C28.6159 2.52155 28.3909 2.18362 28.1069 1.89888C27.8229 1.61415 27.4856 1.3882 27.1142 1.23396C26.7428 1.07972 26.3446 1.00022 25.9424 1L4.06673 1ZM4.06673 1.87636H23.7977C23.2189 2.4336 22.8783 3.19918 22.8783 4.06562L22.875 27.653L20.8543 26.0326C20.7767 25.9709 20.6805 25.9373 20.5814 25.9373C20.4823 25.9373 20.3861 25.9709 20.3086 26.0326L17.8447 28.0019L15.3841 26.0326C15.3067 25.9706 15.2104 25.9368 15.1112 25.9368C15.0121 25.9368 14.9158 25.9706 14.8384 26.0326L12.3745 28.0019L9.91558 26.0343C9.83802 25.9725 9.74184 25.939 9.64273 25.939C9.54362 25.939 9.44744 25.9725 9.36988 26.0343L6.91261 28.0019L4.44872 26.0343C4.37129 25.9723 4.27506 25.9385 4.17587 25.9385C4.07668 25.9385 3.98045 25.9723 3.90302 26.0343L1.879 27.6547L1.87734 4.06231C1.87734 2.78911 2.92574 1.87636 4.06673 1.87636ZM25.9408 1.87636C27.1479 1.87636 28.1302 2.84533 28.1302 4.06562V13.2493H23.7547V4.06562C23.7547 2.84533 24.7336 1.87636 25.9408 1.87636ZM7.13088 6.68645C6.91095 6.68645 6.69268 6.83361 6.69268 7.12628V7.60084C5.70216 7.79265 4.94315 8.64256 4.94315 9.67105C4.94315 10.3655 5.30198 10.7822 5.73689 10.9922C6.17344 11.2022 6.64968 11.2353 7.08624 11.2799C7.52445 11.3246 7.92297 11.3791 8.1429 11.4866C8.36283 11.5924 8.4422 11.7346 8.4422 12.0157C8.4422 12.6871 7.87997 13.2443 7.14907 13.2493C6.51409 13.2261 6.06099 12.8689 5.85264 12.2191C5.67736 11.6586 4.83732 11.9297 5.02087 12.487C5.27222 13.2724 5.81461 13.8826 6.69268 14.0744V14.5605C6.69268 15.1458 7.56909 15.1458 7.56909 14.5605V14.0942C8.55796 13.9024 9.31862 13.0442 9.31862 12.0157C9.31862 11.3742 9.02097 10.9343 8.52488 10.6946C8.08833 10.4862 7.61209 10.4532 7.17388 10.4085C6.73732 10.3622 6.34376 10.3159 6.11722 10.2002C5.91548 10.0977 5.81791 9.96537 5.81791 9.67105C5.81791 8.9931 6.38014 8.44414 7.1127 8.43917C7.80887 8.46563 8.214 8.86909 8.40748 9.46766C8.58441 10.0282 9.42445 9.75703 9.2409 9.19979C8.98955 8.41603 8.41409 7.78273 7.56744 7.61407V7.12628C7.56744 6.83361 7.34916 6.68645 7.13088 6.68645ZM11.5047 7.12463C10.9177 7.12463 10.9177 7.99603 11.5047 8.00099H19.3809C19.9646 8.00099 19.9646 7.12463 19.3809 7.12463H11.5047ZM11.5047 10.1869C10.9177 10.1869 10.9177 11.0633 11.5047 11.0633H19.3809C19.963 11.0633 19.9646 10.1869 19.3809 10.1869H11.5047ZM11.5047 13.2493C10.9177 13.2493 10.9177 14.1207 11.5047 14.1207H19.3809C19.963 14.1207 19.963 13.2493 19.3809 13.2493H11.5047ZM5.38136 16.3116C4.79267 16.3116 4.79267 17.1995 5.38136 17.1863H19.3809C19.963 17.1863 19.963 16.3099 19.3809 16.3099L5.38136 16.3116ZM5.38136 19.3739C4.79267 19.3739 4.79267 20.2502 5.38136 20.2502H19.3809C19.963 20.2502 19.963 19.3739 19.3809 19.3739H5.38136ZM5.38136 22.4362C4.79267 22.4362 4.79267 23.3109 5.38136 23.3126H19.3809C19.963 23.3126 19.963 22.4362 19.3809 22.4362H5.38136Z" fill="#0074CC"/>
</svg>
