<svg width="12" height="12" viewBox="0 0 12 12" fill="none" xmlns="http://www.w3.org/2000/svg">
<path d="M0.537499 10.9624C0.678145 11.103 0.868876 11.182 1.06775 11.182C1.26662 11.182 1.45735 11.103 1.598 10.9624L5.75 6.81044L9.902 10.9624C10.0435 11.0991 10.2329 11.1747 10.4296 11.1729C10.6262 11.1712 10.8143 11.0924 10.9534 10.9533C11.0924 10.8142 11.1713 10.6261 11.173 10.4295C11.1747 10.2328 11.0991 10.0434 10.9625 9.90194L6.8105 5.74994L10.9625 1.59794C11.0991 1.45649 11.1747 1.26703 11.173 1.07039C11.1713 0.87374 11.0924 0.68563 10.9534 0.546574C10.8143 0.407518 10.6262 0.328641 10.4296 0.326933C10.2329 0.325224 10.0435 0.40082 9.902 0.537438L5.75 4.68944L1.598 0.537438C1.45655 0.40082 1.2671 0.325224 1.07045 0.326933C0.873801 0.328641 0.685691 0.407518 0.546635 0.546574C0.407579 0.68563 0.328703 0.87374 0.326994 1.07039C0.325285 1.26703 0.400881 1.45649 0.537499 1.59794L4.6895 5.74994L0.537499 9.90194C0.396896 10.0426 0.317909 10.2333 0.317909 10.4322C0.317909 10.6311 0.396896 10.8218 0.537499 10.9624Z" fill="black"/>
</svg>
