<svg width="30" height="30" viewBox="0 0 30 30" fill="none" xmlns="http://www.w3.org/2000/svg">
<circle cx="15" cy="15" r="15" fill="#DBEFFF"/>
<path d="M15.0377 23.9625C10.0877 23.9625 6.0752 19.95 6.0752 15C6.0752 10.05 10.0877 6.03748 15.0377 6.03748C19.9877 6.03748 24.0002 10.05 24.0002 15C24.0002 19.9125 19.9877 23.9625 15.0377 23.9625ZM15.0377 6.97498C10.6502 6.97498 7.05019 10.575 7.05019 14.9625C7.05019 19.35 10.6502 22.95 15.0377 22.95C19.4252 22.95 23.0252 19.35 23.0252 14.9625C23.0252 10.575 19.4252 6.97498 15.0377 6.97498Z" fill="#0074CC"/>
<path d="M11.1378 19.5749L10.4253 18.8624L18.9003 10.3875L19.6128 11.0999L11.1378 19.5749Z" fill="#0074CC"/>
<path d="M18.9003 19.5749L10.4253 11.0999L11.1378 10.3875L19.6128 18.8624L18.9003 19.5749Z" fill="#0074CC"/>
</svg>
