<svg width="24" height="18" viewBox="0 0 24 18" fill="none" xmlns="http://www.w3.org/2000/svg">
<path d="M23.8908 8.35669L22.0312 3.97833C21.7923 3.4155 21.2409 3.0659 20.5922 3.0659H15.7866V1.36987C15.7866 0.64617 15.1978 0.057373 14.4741 0.057373H1.31245C0.588797 0.057373 0 0.64617 0 1.36987V14.0732C0 14.7969 0.588797 15.3857 1.31245 15.3857H3.12427C3.30905 16.8259 4.54191 17.9428 6.03155 17.9428C7.52114 17.9428 8.754 16.8259 8.93878 15.3857H16.611C16.7958 16.8259 18.0286 17.9428 19.5182 17.9428C21.0079 17.9428 22.2407 16.8259 22.4255 15.3857H22.9219C23.5164 15.3857 24 14.9021 24 14.3076V8.89054C24 8.70192 23.9653 8.53233 23.8908 8.35669ZM22.9408 8.03836H17.5348V5.38415H21.8135L22.9408 8.03836ZM0.75 14.0732V1.36987C0.75 1.0597 1.00233 0.807373 1.31245 0.807373H14.4741C14.7843 0.807373 15.0366 1.0597 15.0366 1.36987V14.6357H8.93883C8.75405 13.1955 7.52119 12.0787 6.03159 12.0787C4.54195 12.0787 3.30909 13.1955 3.12431 14.6357H1.31245C1.00233 14.6357 0.75 14.3834 0.75 14.0732ZM6.03159 17.1928C4.82836 17.1928 3.84947 16.2139 3.84947 15.0107C3.84947 13.8075 4.82836 12.8287 6.03159 12.8287C7.23478 12.8287 8.21367 13.8075 8.21367 15.0107C8.21367 16.214 7.23478 17.1928 6.03159 17.1928ZM19.5183 17.1928C18.3151 17.1928 17.3363 16.2139 17.3363 15.0107C17.3363 13.8075 18.3151 12.8287 19.5183 12.8287C20.7216 12.8287 21.7005 13.8075 21.7005 15.0107C21.7005 16.214 20.7216 17.1928 19.5183 17.1928ZM22.9219 14.6357H22.4256C22.2408 13.1955 21.008 12.0787 19.5183 12.0787C18.0287 12.0787 16.7959 13.1955 16.6111 14.6357H15.7867V3.81586H20.5922C20.9347 3.81586 21.2216 3.99042 21.341 4.27144L21.495 4.63411H17.1598C17.0604 4.63411 16.965 4.67362 16.8946 4.74394C16.8243 4.81427 16.7848 4.90965 16.7848 5.00911V8.41336C16.7848 8.51281 16.8243 8.6082 16.8946 8.67852C16.965 8.74885 17.0604 8.78836 17.1598 8.78836H23.2414C23.2469 8.82084 23.25 8.85398 23.25 8.89054V11.2241H22.6731C22.5737 11.2241 22.4783 11.2636 22.4079 11.3339C22.3376 11.4042 22.2981 11.4996 22.2981 11.5991C22.2981 11.6985 22.3376 11.7939 22.4079 11.8642C22.4783 11.9346 22.5737 11.9741 22.6731 11.9741H23.25V14.3076C23.25 14.4885 23.1028 14.6357 22.9219 14.6357ZM19.5183 13.6322C18.7582 13.6322 18.1399 14.2506 18.1399 15.0107C18.1399 15.7709 18.7582 16.3892 19.5183 16.3892C20.2785 16.3892 20.8968 15.7709 20.8968 15.0107C20.8968 14.2506 20.2784 13.6322 19.5183 13.6322ZM19.5183 15.6392C19.1718 15.6392 18.8899 15.3573 18.8899 15.0107C18.8899 14.6642 19.1718 14.3822 19.5183 14.3822C19.8649 14.3822 20.1468 14.6642 20.1468 15.0107C20.1468 15.3573 19.8649 15.6392 19.5183 15.6392ZM6.03159 13.6322C5.27147 13.6322 4.65309 14.2506 4.65309 15.0107C4.65309 15.7709 5.27147 16.3892 6.03159 16.3892C6.79167 16.3892 7.41005 15.7709 7.41005 15.0107C7.41005 14.2506 6.79167 13.6322 6.03159 13.6322ZM6.03159 15.6392C5.685 15.6392 5.40309 15.3573 5.40309 15.0107C5.40309 14.6642 5.68505 14.3822 6.03159 14.3822C6.37814 14.3822 6.66005 14.6642 6.66005 15.0107C6.66005 15.3573 6.37809 15.6392 6.03159 15.6392ZM10.3039 7.90758C10.3039 8.00703 10.2644 8.10242 10.1941 8.17274C10.1238 8.24307 10.0284 8.28258 9.92892 8.28258H3.82931C3.72986 8.28258 3.63447 8.24307 3.56415 8.17274C3.49382 8.10242 3.45431 8.00703 3.45431 7.90758C3.45431 7.80812 3.49382 7.71274 3.56415 7.64241C3.63447 7.57208 3.72986 7.53258 3.82931 7.53258H9.92892C10.0284 7.53258 10.1238 7.57208 10.1941 7.64241C10.2644 7.71274 10.3039 7.80812 10.3039 7.90758ZM2.88009 3.83531C2.78064 3.83531 2.68525 3.7958 2.61493 3.72548C2.5446 3.65515 2.50509 3.55977 2.50509 3.46031C2.50509 3.36085 2.5446 3.26547 2.61493 3.19515C2.68525 3.12482 2.78064 3.08531 2.88009 3.08531H8.9797C9.07916 3.08531 9.17454 3.12482 9.24487 3.19515C9.3152 3.26547 9.3547 3.36085 9.3547 3.46031C9.3547 3.55977 9.3152 3.65515 9.24487 3.72548C9.17454 3.7958 9.07916 3.83531 8.9797 3.83531H2.88009ZM5.20045 5.30892H11.3001C11.3995 5.30892 11.4949 5.34843 11.5652 5.41875C11.6356 5.48908 11.6751 5.58446 11.6751 5.68392C11.6751 5.78338 11.6356 5.87876 11.5652 5.94908C11.4949 6.01941 11.3995 6.05892 11.3001 6.05892H5.20045C5.101 6.05892 5.00561 6.01941 4.93529 5.94908C4.86496 5.87876 4.82545 5.78338 4.82545 5.68392C4.82545 5.58446 4.86496 5.48908 4.93529 5.41875C5.00561 5.34843 5.101 5.30892 5.20045 5.30892Z" fill="white"/>
</svg>
