<svg width="30" height="30" viewBox="0 0 30 30" fill="none" xmlns="http://www.w3.org/2000/svg">
<path d="M28.7909 28.0297V9.40286C28.7909 9.31331 28.7462 9.17898 28.6566 9.08943L23.9103 4.43272C23.8208 4.34316 23.6865 4.29839 23.5969 4.29839H19.6566L19.2536 2.23869C19.0745 1.20883 18.0894 0.492417 17.0596 0.671521L2.776 3.22376C2.28347 3.26854 1.83571 3.58197 1.56705 3.98495C1.25362 4.38794 1.16406 4.92525 1.25362 5.41779L4.56705 24.2238C4.74615 25.2536 5.73123 25.97 6.76108 25.7909L7.92526 25.6118V28.0745C7.92526 28.7909 8.50735 29.373 9.22377 29.373H27.4924C28.2088 29.3282 28.7909 28.7461 28.7909 28.0297ZM24.4476 8.9551C24.2238 8.9551 24.0447 8.776 24.0447 8.55212V5.86555L27.2685 8.99988H24.4476V8.9551ZM6.58197 24.8506C6.04466 24.9402 5.50735 24.582 5.4178 24.0447L2.10436 5.23869C2.05959 4.97003 2.10436 4.70137 2.28347 4.47749C2.46257 4.29839 2.68645 4.11928 2.95511 4.07451L17.2387 1.56704C17.776 1.47749 18.3133 1.8357 18.4029 2.37301L18.7611 4.29839H9.22377C8.50735 4.29839 7.92526 4.88048 7.92526 5.59689V24.6267L6.58197 24.8506ZM27.8954 28.0297C27.8954 28.2536 27.7163 28.4327 27.4924 28.4327H9.22377C8.99989 28.4327 8.82078 28.2536 8.82078 28.0297V5.64167C8.82078 5.41779 8.99989 5.23869 9.22377 5.23869H23.1491V8.50734C23.1491 9.22376 23.776 9.80585 24.4476 9.80585H27.8954V28.0297Z" fill="#0074CC"/>
<path d="M24.8062 14.6867H11.9107C11.642 14.6867 11.4629 14.8658 11.4629 15.1344C11.4629 15.4031 11.642 15.5822 11.9107 15.5822H24.8062C25.0748 15.5822 25.2539 15.4031 25.2539 15.1344C25.2539 14.8658 25.0301 14.6867 24.8062 14.6867ZM11.4629 11.7315C11.4629 12.0001 11.642 12.1792 11.9107 12.1792H24.8062C25.0748 12.1792 25.2539 12.0001 25.2539 11.7315C25.2539 11.4628 25.0748 11.2837 24.8062 11.2837H11.9107C11.642 11.2837 11.4629 11.5076 11.4629 11.7315ZM24.8062 18.0897H11.9107C11.642 18.0897 11.4629 18.2688 11.4629 18.5374C11.4629 18.8061 11.642 18.9852 11.9107 18.9852H24.8062C25.0748 18.9852 25.2539 18.8061 25.2539 18.5374C25.2539 18.2688 25.0301 18.0897 24.8062 18.0897ZM24.8062 21.4479H11.9107C11.642 21.4479 11.4629 21.627 11.4629 21.8956C11.4629 22.1643 11.642 22.3434 11.9107 22.3434H24.8062C25.0748 22.3434 25.2539 22.1643 25.2539 21.8956C25.2539 21.627 25.0301 21.4479 24.8062 21.4479ZM24.8062 24.8509H11.9107C11.642 24.8509 11.4629 25.03 11.4629 25.2986C11.4629 25.5673 11.642 25.7464 11.9107 25.7464H24.8062C25.0748 25.7464 25.2539 25.5673 25.2539 25.2986C25.2539 25.03 25.0301 24.8509 24.8062 24.8509Z" fill="#0074CC"/>
</svg>
