<svg width="18" height="18" viewBox="0 0 18 18" fill="none" xmlns="http://www.w3.org/2000/svg">
<path d="M2.25 12.0949V14.3749C2.25 14.5849 2.415 14.7499 2.625 14.7499H4.905C5.0025 14.7499 5.1 14.7124 5.1675 14.6374L13.3575 6.45492L10.545 3.64242L2.3625 11.8249C2.2875 11.8999 2.25 11.9899 2.25 12.0949ZM15.5325 4.27992C15.825 3.98742 15.825 3.51492 15.5325 3.22242L13.7775 1.46742C13.485 1.17492 13.0125 1.17492 12.72 1.46742L11.3475 2.83992L14.16 5.65242L15.5325 4.27992Z" fill="#435BAA"/>
<path d="M1.75 16H15.25C15.4489 16 15.6397 16.1054 15.7803 16.2929C15.921 16.4804 16 16.7348 16 17C16 17.2652 15.921 17.5196 15.7803 17.7071C15.6397 17.8946 15.4489 18 15.25 18H1.75C1.55109 18 1.36032 17.8946 1.21967 17.7071C1.07902 17.5196 1 17.2652 1 17C1 16.7348 1.07902 16.4804 1.21967 16.2929C1.36032 16.1054 1.55109 16 1.75 16Z" fill="#435BAA"/>
</svg>
