<svg width="30" height="30" viewBox="0 0 30 30" fill="none" xmlns="http://www.w3.org/2000/svg">
<g clip-path="url(#clip0_204_192)">
<path d="M28.8378 23.157L21.4953 15.8325C21.3991 15.7365 21.2688 15.6826 21.133 15.6826C20.9971 15.6826 20.8668 15.7365 20.7706 15.8324L19.9026 16.6981L18.642 15.4396L22.9102 11.1681C24.8546 11.6693 26.8243 11.1453 28.2324 9.73611C29.6543 8.3131 30.242 6.22406 29.7662 4.28425C29.6728 3.90342 29.1826 3.76572 28.9049 4.04374L26.1718 6.77906L23.1545 3.75938L25.8881 1.02361C26.1656 0.745789 26.0283 0.255982 25.6476 0.16252C23.7091 -0.313826 21.6213 0.274443 20.1993 1.69765C18.7681 3.12996 18.2657 5.07931 18.8238 6.9688L15.6758 10.1203C15.5818 10.217 15.5297 10.3469 15.5307 10.4818C15.5317 10.6166 15.5858 10.7457 15.6812 10.841C15.7766 10.9364 15.9058 10.9903 16.0406 10.9912C16.1755 10.9921 16.3053 10.9398 16.402 10.8457L19.7724 7.47149C19.8412 7.40265 19.8889 7.31569 19.9102 7.22074C19.9314 7.12579 19.9252 7.02677 19.8922 6.93521C19.3166 5.33335 19.7028 3.64669 20.9253 2.42323C21.8599 1.48784 23.144 0.989379 24.4329 1.02803L22.0661 3.39669C21.97 3.49295 21.916 3.62343 21.916 3.75947C21.916 3.89552 21.97 4.026 22.0661 4.12226L25.8088 7.8679C26.0508 8.06848 26.2928 8.06848 26.5348 7.8679L28.9007 5.49996C28.9378 6.79105 28.441 8.07521 27.5064 9.01053C26.2825 10.2355 24.6086 10.6334 22.914 10.1021C22.8246 10.0741 22.7291 10.0711 22.638 10.0935C22.547 10.1159 22.4638 10.1627 22.3975 10.2291L17.9157 14.7144L8.38981 5.20329L8.85263 4.74156C9.08141 4.44162 9.04859 4.17374 8.75404 3.93803L4.33622 1.29066C4.23819 1.23191 4.12336 1.20756 4.00993 1.22149C3.8965 1.23541 3.79097 1.2868 3.71006 1.36752L1.34897 3.72278C1.26776 3.80378 1.21603 3.90965 1.20202 4.02349C1.18802 4.13734 1.21256 4.25259 1.27173 4.35085L3.92551 8.7579C4.16083 9.05124 4.42814 9.08406 4.7275 8.85649L5.19192 8.39322L11.3031 14.495L7.0741 18.7273C5.04865 18.273 3.10275 18.8073 1.69609 20.2151C0.274164 21.638 -0.313528 23.7271 0.162369 25.6669C0.255831 26.0478 0.745895 26.1852 1.02372 25.9074L3.75679 23.1721L6.7741 26.1917L4.04045 28.9275C3.76295 29.2053 3.90032 29.6951 4.28096 29.7886C6.21179 30.2631 8.32641 29.6575 9.72923 28.2535C11.1373 26.8443 11.6608 24.8731 11.1596 22.9275L13.9871 20.0967C14.0802 19.9998 14.1316 19.8702 14.1302 19.7358C14.1288 19.6014 14.0748 19.4729 13.9797 19.3779C13.8846 19.2829 13.756 19.229 13.6216 19.2278C13.4872 19.2266 13.3577 19.2781 13.2609 19.3714L10.2204 22.4155C10.1543 22.4817 10.1075 22.5649 10.0851 22.6558C10.0628 22.7468 10.0658 22.8422 10.0938 22.9316C10.625 24.6274 10.2275 26.3028 9.0032 27.5281C8.06859 28.4634 6.7841 28.9603 5.49557 28.9233L7.8625 26.5546C7.95863 26.4583 8.01263 26.3278 8.01263 26.1918C8.01263 26.0557 7.95863 25.9253 7.8625 25.829L4.11981 22.0834C3.87782 21.8828 3.63583 21.8828 3.39384 22.0834L1.02788 24.4512C0.990638 23.16 1.48743 21.876 2.42211 20.9406C3.62923 19.7325 5.33346 19.313 7.0984 19.7904C7.18557 19.814 7.27743 19.8142 7.36469 19.7909C7.45194 19.7676 7.5315 19.7217 7.59532 19.6578L12.0295 15.2202L16.704 19.8876L15.7999 20.7892C15.5988 21.0314 15.5988 21.2737 15.7999 21.5159L23.1438 28.8419C24.6912 30.3855 27.2892 30.3861 28.8372 28.8424C30.3873 27.2967 30.3879 24.7034 28.8378 23.157ZM5.55468 7.30515C5.31307 7.10515 5.07141 7.10508 4.82974 7.30496L4.46666 7.66714L2.35827 4.1656L4.15173 2.37656L7.66173 4.47989L7.30102 4.8397C7.10006 5.08181 7.1 5.32399 7.30083 5.56617L19.1756 17.4225L17.4308 19.1629L5.55468 7.30515ZM23.8686 28.1153L16.889 21.1527L21.1329 16.9206L28.1131 23.8837C29.5588 25.5642 29.0342 27.1313 28.1416 28.0678C27.1912 29.065 25.6806 29.5386 23.8686 28.1153Z" fill="#0074CC"/>
<path d="M26.0341 26.7313L20.4169 21.1277C20.3222 21.0312 20.2695 20.9013 20.27 20.7662C20.2706 20.6311 20.3244 20.5016 20.4198 20.4059C20.5153 20.3103 20.6446 20.2561 20.7797 20.2551C20.9148 20.2542 21.0449 20.3066 21.1416 20.401L26.7588 26.0046C26.8552 26.1007 26.9095 26.2312 26.9096 26.3673C26.9098 26.5034 26.8559 26.634 26.7598 26.7303C26.6596 26.8309 26.3722 26.9891 26.0341 26.7313Z" fill="#0074CC"/>
</g>
<defs>
<clipPath id="clip0_204_192">
<rect width="30" height="30" fill="white"/>
</clipPath>
</defs>
</svg>
