<svg width="14" height="14" viewBox="0 0 14 14" fill="none" xmlns="http://www.w3.org/2000/svg">
<path d="M12.4885 0.843751H1.51155C1.41658 0.84357 1.32341 0.869619 1.24231 0.919026C1.1612 0.968433 1.09532 1.03928 1.05192 1.12375C1.00792 1.2094 0.988423 1.30554 0.995591 1.40157C1.00276 1.49759 1.03631 1.58977 1.09255 1.66794L5.11408 7.333C5.11542 7.33491 5.1168 7.33681 5.1182 7.33869C5.26429 7.53602 5.34334 7.77495 5.34377 8.02047V12.6392C5.34336 12.7069 5.35635 12.774 5.38198 12.8367C5.40761 12.8994 5.44537 12.9564 5.4931 13.0044C5.54084 13.0524 5.59759 13.0905 5.6601 13.1165C5.72262 13.1425 5.78965 13.1559 5.85736 13.1559C5.92686 13.1558 5.99566 13.142 6.05983 13.1153L8.31964 12.2537C8.52214 12.1919 8.65655 12.0008 8.65655 11.7708V8.0205C8.65693 7.77499 8.73594 7.53606 8.88199 7.33872C8.88339 7.33681 8.88477 7.33494 8.88611 7.33303L12.9075 1.66778C12.9638 1.58963 12.9973 1.49748 13.0045 1.40149C13.0116 1.30549 12.9922 1.20938 12.9482 1.12375C12.9048 1.03927 12.8389 0.968418 12.7578 0.91901C12.6766 0.869602 12.5835 0.843558 12.4885 0.843751ZM8.37814 6.96853C8.15348 7.27333 8.03196 7.64188 8.03127 8.02053V11.6948L5.96877 12.4813V8.0205C5.96807 7.64185 5.84655 7.2733 5.62189 6.9685L1.71764 1.46875H12.2824L8.37814 6.96853Z" fill="#435BAA"/>
</svg>
