<svg width="24" height="24" viewBox="0 0 24 24" fill="none" xmlns="http://www.w3.org/2000/svg">
<path d="M5.84324 15.1319C6.11353 14.8616 6.68259 12.7906 7.30104 11.9513L13.6972 12.9107L13.9272 12.6139L14.7224 12.879L14.5866 13.0441L17.903 13.5416L15.65 16.8547V20.3003L9.81896 20.4329V18.8426L14.5866 13.0441L13.6972 12.9107L9.81896 17.9149C8.36119 19.2401 7.83113 18.0474 7.16847 17.9149C5.86896 17.655 7.56605 15.5295 6.7709 15.5295C5.97575 15.5295 5.57821 15.3969 5.84324 15.1319Z" fill="#0074CC"/>
<path d="M22.8063 16.5898C12.602 11.1563 2.5301 12.084 2 12.084C2 10.8117 4.91554 10.1403 6.37331 9.9636C6.69137 9.22146 5.44564 5.67864 4.78301 4L8.22865 5.72279C19.3607 2.80725 18.1541 11.3536 18.3005 11.4214C17.2403 10.8913 16.0918 11.2005 15.65 11.4214C20.845 12.5876 22.5855 15.3529 22.8063 16.5898Z" fill="#0074CC"/>
<path d="M7.96492 11.4215C7.11676 10.0432 8.49502 7.48993 9.29016 6.38556C8.01795 9.14207 8.76008 10.8914 9.29016 11.4215H7.96492Z" fill="#0074CC"/>
</svg>
