<svg width="24" height="24" viewBox="0 0 24 24" fill="none" xmlns="http://www.w3.org/2000/svg">
<path d="M20.7659 14.0772C19.642 18.909 14.8095 21.8866 9.97701 20.763C5.14451 19.6393 2.11016 14.8076 3.23399 9.97589C4.35783 5.14417 9.19033 2.1103 14.079 3.23395C18.8553 4.35761 21.8897 9.18933 20.7659 14.0772Z" fill="#0074CC"/>
<path d="M20.7659 14.0773C19.642 18.909 14.8095 21.8867 9.97701 20.763C5.14451 19.6394 2.11016 14.8076 3.23399 9.97592C4.35783 5.1442 5.61131 13.3763 10.5 14.5C15.2763 15.6237 21.8897 9.18936 20.7659 14.0773Z" fill="white" fill-opacity="0.28"/>
<path d="M11.696 17.136C10.9773 17.136 10.3427 17.0147 9.792 16.772C9.24133 16.52 8.80733 16.1653 8.49 15.708C8.17267 15.2413 8.00933 14.6767 8 14.014H9.89C9.90867 14.4713 10.072 14.8587 10.38 15.176C10.6973 15.484 11.1313 15.638 11.682 15.638C12.158 15.638 12.536 15.526 12.816 15.302C13.096 15.0687 13.236 14.7607 13.236 14.378C13.236 13.9767 13.11 13.664 12.858 13.44C12.6153 13.216 12.2887 13.034 11.878 12.894C11.4673 12.754 11.0287 12.6047 10.562 12.446C9.806 12.1847 9.22733 11.8487 8.826 11.438C8.434 11.0273 8.238 10.4813 8.238 9.8C8.22867 9.22133 8.364 8.72667 8.644 8.316C8.93333 7.896 9.32533 7.574 9.82 7.35C10.3147 7.11667 10.884 7 11.528 7C12.1813 7 12.7553 7.11667 13.25 7.35C13.754 7.58333 14.146 7.91 14.426 8.33C14.7153 8.75 14.8693 9.24933 14.888 9.828H12.97C12.9607 9.48267 12.8253 9.17933 12.564 8.918C12.312 8.64733 11.9573 8.512 11.5 8.512C11.108 8.50267 10.7767 8.60067 10.506 8.806C10.2447 9.002 10.114 9.29133 10.114 9.674C10.114 10.0007 10.2167 10.262 10.422 10.458C10.6273 10.6447 10.9073 10.8033 11.262 10.934C11.6167 11.0647 12.0227 11.2047 12.48 11.354C12.9653 11.522 13.4087 11.718 13.81 11.942C14.2113 12.166 14.5333 12.4647 14.776 12.838C15.0187 13.202 15.14 13.6733 15.14 14.252C15.14 14.7653 15.0093 15.2413 14.748 15.68C14.4867 16.1187 14.0993 16.4733 13.586 16.744C13.0727 17.0053 12.4427 17.136 11.696 17.136Z" fill="white"/>
</svg>
