<svg width="24" height="24" viewBox="0 0 24 24" fill="none" xmlns="http://www.w3.org/2000/svg">
<path d="M20.7659 14.0772C19.642 18.909 14.8095 21.8866 9.97701 20.763C5.14451 19.6393 2.11016 14.8076 3.23399 9.97589C4.35783 5.14417 9.19033 2.1103 14.079 3.23395C18.8553 4.35761 21.8897 9.18933 20.7659 14.0772Z" fill="#0074CC"/>
<path d="M11.606 17.136C10.682 17.136 9.87467 16.926 9.184 16.506C8.49333 16.086 7.95667 15.5027 7.574 14.756C7.19133 14 7 13.1227 7 12.124C7 11.116 7.196 10.2293 7.588 9.464C7.98933 8.68933 8.554 8.08733 9.282 7.658C10.0193 7.21933 10.892 7 11.9 7C13.048 7 14 7.27533 14.756 7.826C15.512 8.37667 16.002 9.13733 16.226 10.108H14.224C14.0747 9.65067 13.804 9.296 13.412 9.044C13.02 8.78267 12.516 8.652 11.9 8.652C10.92 8.652 10.164 8.96467 9.632 9.59C9.1 10.206 8.834 11.0553 8.834 12.138C8.834 13.2207 9.09533 14.0607 9.618 14.658C10.15 15.246 10.8687 15.54 11.774 15.54C12.6607 15.54 13.328 15.302 13.776 14.826C14.2333 14.3407 14.5087 13.706 14.602 12.922H12.124V11.578H16.408V16.968H14.756L14.616 15.68C14.2987 16.1467 13.902 16.506 13.426 16.758C12.95 17.01 12.3433 17.136 11.606 17.136Z" fill="white"/>
<path d="M20.7659 14.0773C19.642 18.909 14.8095 21.8867 9.97701 20.763C5.14451 19.6394 2.11016 14.8076 3.23399 9.97592C4.35783 5.1442 5.61131 13.3763 10.5 14.5C15.2763 15.6237 21.8897 9.18936 20.7659 14.0773Z" fill="white" fill-opacity="0.28"/>
</svg>
