<svg width="17" height="13" viewBox="0 0 17 13" fill="none" xmlns="http://www.w3.org/2000/svg">
<path d="M1.37516 2.54159H15.6252C15.8351 2.54159 16.0365 2.45818 16.185 2.30971C16.3334 2.16124 16.4168 1.95988 16.4168 1.74992C16.4168 1.53996 16.3334 1.33859 16.185 1.19013C16.0365 1.04166 15.8351 0.958252 15.6252 0.958252H1.37516C1.1652 0.958252 0.963836 1.04166 0.81537 1.19013C0.666904 1.33859 0.583496 1.53996 0.583496 1.74992C0.583496 1.95988 0.666904 2.16124 0.81537 2.30971C0.963836 2.45818 1.1652 2.54159 1.37516 2.54159ZM15.6252 5.70825H1.37516C1.1652 5.70825 0.963836 5.79166 0.81537 5.94013C0.666904 6.08859 0.583496 6.28996 0.583496 6.49992C0.583496 6.70988 0.666904 6.91124 0.81537 7.05971C0.963836 7.20818 1.1652 7.29158 1.37516 7.29158H15.6252C15.8351 7.29158 16.0365 7.20818 16.185 7.05971C16.3334 6.91124 16.4168 6.70988 16.4168 6.49992C16.4168 6.28996 16.3334 6.08859 16.185 5.94013C16.0365 5.79166 15.8351 5.70825 15.6252 5.70825ZM15.6252 10.4583H1.37516C1.1652 10.4583 0.963836 10.5417 0.81537 10.6901C0.666904 10.8386 0.583496 11.04 0.583496 11.2499C0.583496 11.4599 0.666904 11.6612 0.81537 11.8097C0.963836 11.9582 1.1652 12.0416 1.37516 12.0416H15.6252C15.8351 12.0416 16.0365 11.9582 16.185 11.8097C16.3334 11.6612 16.4168 11.4599 16.4168 11.2499C16.4168 11.04 16.3334 10.8386 16.185 10.6901C16.0365 10.5417 15.8351 10.4583 15.6252 10.4583Z" fill="#02101B"/>
</svg>
