<svg width="18" height="18" viewBox="0 0 18 18" fill="none" xmlns="http://www.w3.org/2000/svg">
<path d="M14.3719 1.6875H7.00312C6.2325 1.6875 5.625 2.475 5.625 3.47625V6.75C5.625 6.89918 5.68426 7.04226 5.78975 7.14775C5.89524 7.25324 6.03832 7.3125 6.1875 7.3125C6.33668 7.3125 6.47976 7.25324 6.58525 7.14775C6.69074 7.04226 6.75 6.89918 6.75 6.75V3.47625C6.73585 3.35342 6.75146 3.22899 6.79552 3.11347C6.83958 2.99794 6.91078 2.89472 7.00312 2.8125H14.3663C14.4281 2.8125 14.625 3.05437 14.625 3.47625V14.5238C14.6391 14.6466 14.6235 14.771 14.5795 14.8865C14.5354 15.0021 14.4642 15.1053 14.3719 15.1875H7.00875C6.94687 15.1875 6.75 14.9456 6.75 14.5238V11.25C6.75 11.1008 6.69074 10.9577 6.58525 10.8523C6.47976 10.7468 6.33668 10.6875 6.1875 10.6875C6.03832 10.6875 5.89524 10.7468 5.78975 10.8523C5.68426 10.9577 5.625 11.1008 5.625 11.25V14.5238C5.625 15.525 6.2325 16.3125 7.00312 16.3125H14.3719C15.1425 16.3125 15.75 15.525 15.75 14.5238V3.47625C15.75 2.475 15.1425 1.6875 14.3719 1.6875Z" fill="white"/>
<path d="M4.16825 9.56248H10.6876C10.8368 9.56248 10.9799 9.50322 11.0854 9.39773C11.1909 9.29224 11.2501 9.14917 11.2501 8.99998C11.2501 8.8508 11.1909 8.70772 11.0854 8.60223C10.9799 8.49675 10.8368 8.43748 10.6876 8.43748H4.16825L4.8995 7.71186C5.00542 7.60594 5.06493 7.46228 5.06493 7.31248C5.06493 7.16269 5.00542 7.01903 4.8995 6.91311C4.79358 6.80719 4.64992 6.74768 4.50012 6.74768C4.35033 6.74768 4.20667 6.80719 4.10075 6.91311L2.41325 8.60061C2.36204 8.6541 2.3219 8.71718 2.29512 8.78623C2.23886 8.92318 2.23886 9.07678 2.29512 9.21373C2.3219 9.28278 2.36204 9.34586 2.41325 9.39936L4.10075 11.0869C4.15304 11.1396 4.21525 11.1814 4.2838 11.21C4.35235 11.2385 4.42587 11.2532 4.50012 11.2532C4.57438 11.2532 4.6479 11.2385 4.71645 11.21C4.785 11.1814 4.84721 11.1396 4.8995 11.0869C4.95222 11.0346 4.99407 10.9724 5.02263 10.9038C5.05118 10.8353 5.06589 10.7617 5.06589 10.6875C5.06589 10.6132 5.05118 10.5397 5.02263 10.4712C4.99407 10.4026 4.95222 10.3404 4.8995 10.2881L4.16825 9.56248Z" fill="white"/>
</svg>
