<?xml version="1.0" encoding="UTF-8"?>
<!-- Generator: Adobe Illustrator 24.1.1, SVG Export Plug-In . SVG Version: 6.00 Build 0)  -->
<svg version="1.1" id="Layer_1" xmlns="http://www.w3.org/2000/svg" xmlns:xlink="http://www.w3.org/1999/xlink" x="0px" y="0px" viewBox="0 0 394.4 190" style="enable-background:new 0 0 394.4 190;" xml:space="preserve">
<style type="text/css">
	.st0{fill:#2B3C47;}
	.st1{fill:#EE3B33;}
	.st2{fill:#0074CC;}
</style>
<g>
	<path class="st0" d="M97.8,166.4c1.1,1.5,1.7,3.3,1.6,5.2c0,1.7-0.5,3.4-1.5,4.9c-1.1,1.4-2.5,2.6-4.2,3.2c-2,0.8-4.2,1.2-6.4,1.1   H70.6v-33.6h16.3c3.5,0,6.3,0.8,8.4,2.4c2,1.5,3.2,3.9,3.1,6.4c0,1.6-0.4,3.2-1.4,4.6c-0.9,1.3-2.3,2.4-3.9,2.9   C95,163.9,96.6,165,97.8,166.4z M79.2,160.4h6.2c1.2,0.1,2.5-0.2,3.6-0.8c0.8-0.5,1.2-1.5,1.1-2.4c0.1-1-0.4-1.9-1.2-2.5   c-1.1-0.6-2.3-0.9-3.6-0.8h-6.2L79.2,160.4z M90,173.4c0.8-0.7,1.2-1.7,1.1-2.7c0.1-1-0.3-2.1-1.1-2.7c-1.1-0.6-2.4-0.9-3.7-0.8   h-7.1v7h7.1C87.6,174.3,88.9,174,90,173.4L90,173.4z"/>
	<path class="st0" d="M130.9,180.9l-3-6.9H113l-3,6.9h-8.9l15.7-33.6h7l15.8,33.6H130.9z M115.9,167.3h9.2l-4.6-10.6L115.9,167.3z"/>
	<path class="st0" d="M147.2,180.3c-2.1-0.5-4.2-1.4-6-2.7l2.8-6.3c1.6,1,3.4,1.8,5.2,2.4c1.8,0.5,3.7,0.8,5.5,0.8   c1.5,0.1,3-0.2,4.3-0.8c1.2-0.4,1.8-1.8,1.4-3c-0.2-0.6-0.7-1.1-1.2-1.3c-1.6-0.8-3.4-1.3-5.1-1.6c-2.6-0.4-5.1-1.2-7.4-2.3   c-1.5-0.7-2.8-1.9-3.7-3.3c-0.7-1.4-1.1-3-1.1-4.6c0-2,0.6-3.9,1.7-5.5c1.2-1.7,2.9-3.1,4.9-3.9c2.3-1,4.7-1.4,7.2-1.4   c2.4,0,4.8,0.3,7.1,1c2,0.5,3.8,1.4,5.4,2.7l-2.7,6.3c-1.4-1-3-1.8-4.7-2.4c-1.6-0.5-3.2-0.8-4.9-0.8c-1.4-0.1-2.7,0.3-3.9,0.9   c-0.9,0.5-1.5,1.4-1.5,2.5c0,0.5,0.2,1,0.5,1.4c0.6,0.5,1.2,0.9,1.9,1.1c1.4,0.5,2.8,0.9,4.2,1.2c2.5,0.5,4.9,1.3,7.2,2.4   c1.5,0.7,2.8,1.8,3.7,3.3c0.8,1.4,1.1,2.9,1.1,4.5c0.1,3.1-1.3,6-3.8,7.7c-2.5,1.9-6.1,2.8-10.8,2.8   C152.1,181.3,149.6,181,147.2,180.3z"/>
	<path class="st0" d="M175.6,180.9v-33.6h8.9v33.6H175.6z"/>
	<path class="st0" d="M199.1,179.1c-2.6-1.4-4.6-3.5-6-6.1c-1.4-2.8-2.2-5.9-2.1-9.1c-0.1-3.1,0.7-6.2,2.1-9c1.4-2.6,3.4-4.7,6-6   c2.8-1.5,6-2.2,9.1-2.1c2.2,0,4.3,0.3,6.4,1c1.8,0.5,3.5,1.5,5,2.7l-2.7,6.3c-2.4-1.9-5.4-2.9-8.5-3c-2.4-0.1-4.7,0.8-6.2,2.6   c-1.4,1.7-2.2,4.3-2.2,7.6c0,3.4,0.7,6,2.2,7.7c1.6,1.8,3.9,2.7,6.2,2.6c3.1-0.1,6.1-1.1,8.5-3l2.7,6.3c-1.5,1.2-3.1,2.2-5,2.7   c-2.1,0.7-4.2,1-6.4,1C205.1,181.4,201.9,180.6,199.1,179.1z"/>
</g>
<g>
	<path class="st1" d="M69.1,101c0.7,1.2,1.5,2.3,2.4,3.3l-41.4-30l-2.8-2.1l-23.4-17h48.5l30,0v0l10.3,0h10.6v0L384,55.1L37.1,65   l29.4,27.5C66.8,95.5,67.7,98.4,69.1,101z"/>
	<polygon class="st1" points="80.1,47.8 54.9,47.8 67.5,9.1  "/>
	<polygon class="st1" points="61.2,106 28.2,129.9 40.8,91.2  "/>
	<path class="st1" d="M124.2,115c0,6.3-2.5,11.3-7.4,14.9c-4.9,3.6-11.8,5.4-20.8,5.4c-4.9,0-9.7-0.6-14.4-1.9   c-4.7-1.3-8.6-3-11.6-5.2l5.4-12.1c3.1,2,6.5,3.5,10.1,4.6c3.5,1.1,7.1,1.6,10.7,1.6h0c0.8,0,1.5,0,2.2-0.1   c2.6-0.2,4.6-0.6,6.1-1.4c1.9-1,2.9-2.4,2.9-4.2c0-1.6-0.9-3-2.6-4c-1.8-1.1-5.1-2.1-9.9-3.1c-6.1-1.2-10.9-2.7-14.3-4.5   c-0.8-0.4-1.5-0.8-2.2-1.3l0,0l-0.3-0.2c-1.5-1-2.8-2.3-3.9-3.7l0,0c0,0,0,0,0,0c-0.2-0.3-0.5-0.7-0.7-1.1c-1.4-2.4-2-5.4-2-8.8   c0-3.8,1.1-7.6,3.4-10.7c2.2-3.2,5.4-5.7,9.5-7.5c4.1-1.8,8.7-2.7,13.9-2.7c4.6,0,9.2,0.7,13.6,2c4.4,1.3,7.8,3,10.3,5.1l-5.3,12.1   c-2.8-2-5.8-3.5-9-4.6c-3-1-6.2-1.6-9.5-1.6c-3.1,0-5.6,0.6-7.5,1.8c-1.9,1.2-2.8,2.8-2.8,4.8c0,1,0.3,2,1,2.7   c0.7,0.7,1.9,1.4,3.7,2.1c2.7,0.9,5.4,1.7,8.2,2.2c5.9,1.3,10.5,2.8,13.9,4.6c3.4,1.8,5.8,3.9,7.1,6.3   C123.5,108.8,124.2,111.7,124.2,115z"/>
	<path class="st1" d="M168.5,69.7h-13.5l-30.3,64.8h17.1l5.7-13.4h28.8l5.7,13.4h16.8L168.5,69.7z M153.2,108.3l8.8-20.5l8.8,20.5   H153.2z"/>
	<polygon class="st2" points="290.3,69.7 267.1,134.5 253.6,134.5 240,96 226.2,134.5 212.6,134.5 189.5,69.7 206.9,69.7    220.2,110.6 234.6,69.7 246.3,69.7 260.2,111.3 274.1,69.7  "/>
	<rect x="297.3" y="69.7" class="st2" width="17.1" height="64.8"/>
	<polygon class="st2" points="384,69.7 384,134.5 371.4,134.5 342,97.7 342,134.5 326,134.5 326,69.7 338.5,69.7 367.9,106.3    367.9,69.7  "/>
</g>
</svg>