<svg width="21" height="21" viewBox="0 0 21 21" fill="none" xmlns="http://www.w3.org/2000/svg">
<g clip-path="url(#clip0_694_2107)">
<path d="M18.8125 10.3688V3.9375L12.6875 2.1875V15.3125L15.7063 16.17M6.5625 17.0625L0.4375 15.3125V2.1875L6.5625 3.9375V17.0625ZM12.6875 15.3125L6.5625 17.0625V3.9375L12.6875 2.1875V15.3125Z" stroke="#02101B" stroke-linecap="round" stroke-linejoin="round"/>
<path d="M20.5625 13.125C20.5625 14.8137 17.5 18.8125 17.5 18.8125C17.5 18.8125 14.4375 14.8137 14.4375 13.125C14.4375 12.3128 14.7602 11.5338 15.3345 10.9595C15.9088 10.3852 16.6878 10.0625 17.5 10.0625C18.3122 10.0625 19.0912 10.3852 19.6655 10.9595C20.2398 11.5338 20.5625 12.3128 20.5625 13.125V13.125Z" stroke="#02101B" stroke-linecap="round" stroke-linejoin="round"/>
<path d="M17.5 13.5625C17.7416 13.5625 17.9375 13.3666 17.9375 13.125C17.9375 12.8834 17.7416 12.6875 17.5 12.6875C17.2584 12.6875 17.0625 12.8834 17.0625 13.125C17.0625 13.3666 17.2584 13.5625 17.5 13.5625Z" stroke="#02101B" stroke-linecap="round" stroke-linejoin="round"/>
</g>
<defs>
<clipPath id="clip0_694_2107">
<rect width="21" height="21" fill="white"/>
</clipPath>
</defs>
</svg>
