<svg width="24" height="24" viewBox="0 0 24 24" fill="none" xmlns="http://www.w3.org/2000/svg">
<path d="M5.25 7.875C5.84335 7.875 6.42336 7.69905 6.91671 7.36941C7.41006 7.03977 7.79458 6.57123 8.02164 6.02305C8.2487 5.47487 8.30811 4.87167 8.19236 4.28973C8.0766 3.70779 7.79088 3.17324 7.37132 2.75368C6.95176 2.33412 6.41721 2.0484 5.83527 1.93265C5.25333 1.81689 4.65013 1.8763 4.10195 2.10336C3.55377 2.33043 3.08524 2.71494 2.75559 3.20829C2.42595 3.70164 2.25 4.28166 2.25 4.875C2.25089 5.67038 2.56725 6.43292 3.12967 6.99533C3.69208 7.55775 4.45463 7.87411 5.25 7.875ZM5.25 2.625C5.69501 2.625 6.13002 2.75696 6.50003 3.00419C6.87004 3.25143 7.15843 3.60283 7.32873 4.01396C7.49903 4.4251 7.54358 4.8775 7.45677 5.31395C7.36995 5.75041 7.15566 6.15132 6.84099 6.46599C6.52632 6.78066 6.12541 6.99495 5.68895 7.08177C5.2525 7.16858 4.8001 7.12403 4.38896 6.95373C3.97783 6.78343 3.62643 6.49504 3.37919 6.12503C3.13196 5.75502 3 5.32001 3 4.875C3.00065 4.27846 3.23791 3.70654 3.65972 3.28472C4.08154 2.86291 4.65346 2.62565 5.25 2.625ZM18.75 7.875C19.3433 7.875 19.9234 7.69905 20.4167 7.36941C20.9101 7.03977 21.2946 6.57123 21.5216 6.02305C21.7487 5.47487 21.8081 4.87167 21.6924 4.28973C21.5766 3.70779 21.2909 3.17324 20.8713 2.75368C20.4518 2.33412 19.9172 2.0484 19.3353 1.93265C18.7533 1.81689 18.1501 1.8763 17.602 2.10336C17.0538 2.33043 16.5852 2.71494 16.2556 3.20829C15.9259 3.70164 15.75 4.28166 15.75 4.875C15.7509 5.67038 16.0673 6.43292 16.6297 6.99533C17.1921 7.55775 17.9546 7.87411 18.75 7.875ZM18.75 2.625C19.195 2.625 19.63 2.75696 20 3.00419C20.37 3.25143 20.6584 3.60283 20.8287 4.01396C20.999 4.4251 21.0436 4.8775 20.9568 5.31395C20.8699 5.75041 20.6557 6.15132 20.341 6.46599C20.0263 6.78066 19.6254 6.99495 19.189 7.08177C18.7525 7.16858 18.3001 7.12403 17.889 6.95373C17.4778 6.78343 17.1264 6.49504 16.8792 6.12503C16.632 5.75502 16.5 5.32001 16.5 4.875C16.5006 4.27846 16.7379 3.70654 17.1597 3.28472C17.5815 2.86291 18.1535 2.62565 18.75 2.625ZM12 7.875C12.5933 7.875 13.1734 7.69905 13.6667 7.36941C14.1601 7.03977 14.5446 6.57123 14.7716 6.02305C14.9987 5.47487 15.0581 4.87167 14.9424 4.28973C14.8266 3.70779 14.5409 3.17324 14.1213 2.75368C13.7018 2.33412 13.1672 2.0484 12.5853 1.93265C12.0033 1.81689 11.4001 1.8763 10.852 2.10336C10.3038 2.33043 9.83524 2.71494 9.50559 3.20829C9.17595 3.70164 9 4.28166 9 4.875C9.00089 5.67038 9.31725 6.43292 9.87967 6.99533C10.4421 7.55775 11.2046 7.87411 12 7.875ZM12 2.625C12.445 2.625 12.88 2.75696 13.25 3.00419C13.62 3.25143 13.9084 3.60283 14.0787 4.01396C14.249 4.4251 14.2936 4.8775 14.2068 5.31395C14.12 5.75041 13.9057 6.15132 13.591 6.46599C13.2763 6.78066 12.8754 6.99495 12.439 7.08177C12.0025 7.16858 11.5501 7.12403 11.139 6.95373C10.7278 6.78343 10.3764 6.49504 10.1292 6.12503C9.88196 5.75502 9.75 5.32001 9.75 4.875C9.75065 4.27846 9.98791 3.70654 10.4097 3.28472C10.8315 2.86291 11.4035 2.62565 12 2.625ZM5.25 9.75C4.65666 9.75 4.07664 9.92595 3.58329 10.2556C3.08994 10.5852 2.70543 11.0538 2.47836 11.6019C2.2513 12.1501 2.19189 12.7533 2.30765 13.3353C2.4234 13.9172 2.70912 14.4518 3.12868 14.8713C3.54824 15.2909 4.08279 15.5766 4.66473 15.6924C5.24667 15.8081 5.84987 15.7487 6.39805 15.5216C6.94623 15.2946 7.41477 14.9101 7.74441 14.4167C8.07405 13.9234 8.25 13.3433 8.25 12.75C8.24911 11.9546 7.93275 11.1921 7.37033 10.6297C6.80792 10.0673 6.04538 9.75089 5.25 9.75ZM5.25 15C4.80499 15 4.36998 14.868 3.99997 14.6208C3.62996 14.3736 3.34157 14.0222 3.17127 13.611C3.00098 13.1999 2.95642 12.7475 3.04323 12.311C3.13005 11.8746 3.34434 11.4737 3.65901 11.159C3.97368 10.8443 4.37459 10.6301 4.81105 10.5432C5.24751 10.4564 5.69991 10.501 6.11104 10.6713C6.52217 10.8416 6.87357 11.13 7.12081 11.5C7.36804 11.87 7.5 12.305 7.5 12.75C7.49936 13.3465 7.2621 13.9185 6.84028 14.3403C6.41846 14.7621 5.84654 14.9994 5.25 15ZM18.75 15.75C19.3433 15.75 19.9234 15.5741 20.4167 15.2444C20.9101 14.9148 21.2946 14.4462 21.5216 13.8981C21.7487 13.3499 21.8081 12.7467 21.6924 12.1647C21.5766 11.5828 21.2909 11.0482 20.8713 10.6287C20.4518 10.2091 19.9172 9.9234 19.3353 9.80764C18.7533 9.69189 18.1501 9.7513 17.602 9.97836C17.0538 10.2054 16.5852 10.5899 16.2556 11.0833C15.9259 11.5766 15.75 12.1567 15.75 12.75C15.7509 13.5454 16.0673 14.3079 16.6297 14.8703C17.1921 15.4327 17.9546 15.7491 18.75 15.75ZM18.75 10.5C19.195 10.5 19.63 10.632 20 10.8792C20.37 11.1264 20.6584 11.4778 20.8287 11.889C20.999 12.3001 21.0436 12.7525 20.9568 13.189C20.8699 13.6254 20.6557 14.0263 20.341 14.341C20.0263 14.6557 19.6254 14.87 19.189 14.9568C18.7525 15.0436 18.3001 14.999 17.889 14.8287C17.4778 14.6584 17.1264 14.37 16.8792 14C16.632 13.63 16.5 13.195 16.5 12.75C16.5006 12.1535 16.7379 11.5815 17.1597 11.1597C17.5815 10.7379 18.1535 10.5006 18.75 10.5ZM12 15.75C12.5933 15.75 13.1734 15.5741 13.6667 15.2444C14.1601 14.9148 14.5446 14.4462 14.7716 13.8981C14.9987 13.3499 15.0581 12.7467 14.9424 12.1647C14.8266 11.5828 14.5409 11.0482 14.1213 10.6287C13.7018 10.2091 13.1672 9.9234 12.5853 9.80764C12.0033 9.69189 11.4001 9.7513 10.852 9.97836C10.3038 10.2054 9.83524 10.5899 9.50559 11.0833C9.17595 11.5766 9 12.1567 9 12.75C9.00089 13.5454 9.31725 14.3079 9.87967 14.8703C10.4421 15.4327 11.2046 15.7491 12 15.75ZM12 10.5C12.445 10.5 12.88 10.632 13.25 10.8792C13.62 11.1264 13.9084 11.4778 14.0787 11.889C14.249 12.3001 14.2936 12.7525 14.2068 13.189C14.12 13.6254 13.9057 14.0263 13.591 14.341C13.2763 14.6557 12.8754 14.87 12.439 14.9568C12.0025 15.0436 11.5501 14.999 11.139 14.8287C10.7278 14.6584 10.3764 14.37 10.1292 14C9.88196 13.63 9.75 13.195 9.75 12.75C9.75065 12.1535 9.98791 11.5815 10.4097 11.1597C10.8315 10.7379 11.4035 10.5006 12 10.5Z" fill="white"/>
<path d="M1.12969 14.25H1.81538C1.70909 14.0092 1.6287 13.7578 1.57556 13.5H1.12969C1.03273 13.5035 0.938351 13.4684 0.867197 13.4024C0.796043 13.3365 0.753905 13.245 0.75 13.1481V9.95385C0.75 8.75347 1.67738 7.9101 3.01369 7.87822C2.75415 7.68517 2.52049 7.45957 2.31844 7.20697C0.939 7.4976 0 8.56222 0 9.95385V13.1481C0.00410181 13.4439 0.125322 13.726 0.337087 13.9326C0.548852 14.1391 0.83388 14.2533 1.12969 14.25ZM9.06844 7.20697C7.89788 7.45354 7.047 8.25866 6.81525 9.34691C7.06095 9.46051 7.29362 9.60039 7.50919 9.7641C7.602 8.66572 8.49919 7.90841 9.76369 7.87804C9.50415 7.68498 9.27049 7.45939 9.06844 7.20679V7.20697ZM1.12969 21.375C1.03273 21.3785 0.938351 21.3434 0.867197 21.2774C0.796043 21.2115 0.753905 21.12 0.75 21.0231V17.8288C0.75 16.6285 1.67738 15.7851 3.01369 15.7532C2.75415 15.5602 2.52049 15.3346 2.31844 15.082C0.939 15.3726 0 16.4372 0 17.8288V21.0231C0.00410181 21.3189 0.125322 21.601 0.337087 21.8076C0.548852 22.0141 0.83388 22.1283 1.12969 22.125H6.37256C6.20454 21.9039 6.08911 21.6474 6.03506 21.375H1.12969ZM21.6816 7.20697C21.4795 7.45957 21.2459 7.68517 20.9863 7.87822C22.3226 7.9101 23.25 8.75347 23.25 9.95385V13.1481C23.2461 13.245 23.204 13.3365 23.1328 13.4024C23.0616 13.4684 22.9673 13.5035 22.8703 13.5H22.4244C22.3713 13.7578 22.2909 14.0092 22.1846 14.25H22.8703C23.1661 14.2533 23.4511 14.1391 23.6629 13.9326C23.8747 13.726 23.9959 13.4439 24 13.1481V9.95385C24 8.56222 23.061 7.4976 21.6816 7.20697ZM21.6816 15.082C21.4795 15.3346 21.2459 15.5602 20.9863 15.7532C22.3226 15.7851 23.25 16.6285 23.25 17.8288V21.0231C23.2461 21.12 23.204 21.2115 23.1328 21.2774C23.0616 21.3434 22.9673 21.3785 22.8703 21.375H17.9649C17.9109 21.6474 17.7955 21.9039 17.6274 22.125H22.8703C23.1661 22.1283 23.4511 22.0141 23.6629 21.8076C23.8747 21.601 23.9959 21.3189 24 21.0231V17.8288C24 16.4372 23.061 15.3726 21.6816 15.082ZM14.9316 15.082C14.7295 15.3346 14.4959 15.5602 14.2363 15.7532C15.5726 15.7849 16.5 16.6283 16.5 17.8287V21.0229C16.4961 21.1199 16.454 21.2114 16.3829 21.2774C16.3117 21.3434 16.2173 21.3785 16.1203 21.375H7.87969C7.78273 21.3785 7.68835 21.3434 7.6172 21.2774C7.54604 21.2115 7.5039 21.12 7.5 21.0231V17.8288C7.5 16.6285 8.42738 15.7851 9.76369 15.7532C9.50415 15.5602 9.27049 15.3346 9.06844 15.082C7.689 15.3726 6.75 16.4372 6.75 17.8288V21.0231C6.7541 21.3189 6.87532 21.601 7.08709 21.8076C7.29885 22.0141 7.58388 22.1283 7.87969 22.125H16.1203C16.4161 22.1283 16.7011 22.0141 16.9129 21.8076C17.1247 21.601 17.2459 21.3189 17.25 21.0231V17.8288C17.25 16.4372 16.311 15.3726 14.9316 15.082ZM16.4908 9.7641C16.7063 9.6004 16.9389 9.46052 17.1846 9.34691C16.953 8.25866 16.1021 7.45354 14.9316 7.20697C14.7295 7.45957 14.4959 7.68517 14.2363 7.87822C15.501 7.90841 16.398 8.66572 16.4908 9.7641Z" fill="white"/>
</svg>
