<svg width="22" height="22" viewBox="0 0 22 22" fill="none" xmlns="http://www.w3.org/2000/svg">
<path d="M12.7804 15.5742L14.4558 17.2496M20.4745 10.4939L19.5357 9.55466C19.4873 9.50633 19.4299 9.46801 19.3667 9.44187C19.3036 9.41574 19.2359 9.4023 19.1675 9.40234C19.0991 9.40238 19.0315 9.41589 18.9683 9.4421C18.9052 9.46831 18.8478 9.5067 18.7995 9.55508L12.6882 15.6664L12.0747 17.9544L14.3636 17.341L20.4745 11.23C20.6776 11.027 20.6776 10.697 20.4745 10.4939V10.4939ZM17.6212 10.7334L19.2966 12.4083L17.6212 10.7334Z" stroke="#02101B" stroke-width="0.7" stroke-miterlimit="10"/>
<path d="M12.4316 1.26904V4.00212M15.46 16.2447V20.7306H1.3728V2.84712H15.46V12.8944V16.2447ZM4.40119 1.26904V4.00212V1.26904ZM8.41661 1.26904V4.00212V1.26904Z" stroke="#02101B" stroke-width="0.7" stroke-miterlimit="10"/>
<path d="M4.40126 5.96855C4.94405 5.96855 5.38407 5.52853 5.38407 4.98574C5.38407 4.44295 4.94405 4.00293 4.40126 4.00293C3.85848 4.00293 3.41846 4.44295 3.41846 4.98574C3.41846 5.52853 3.85848 5.96855 4.40126 5.96855Z" stroke="#02101B" stroke-width="0.7" stroke-miterlimit="10"/>
<path d="M8.41665 5.96855C8.95944 5.96855 9.39945 5.52853 9.39945 4.98574C9.39945 4.44295 8.95944 4.00293 8.41665 4.00293C7.87386 4.00293 7.43384 4.44295 7.43384 4.98574C7.43384 5.52853 7.87386 5.96855 8.41665 5.96855Z" stroke="#02101B" stroke-width="0.7" stroke-miterlimit="10"/>
<path d="M12.4318 5.96855C12.9746 5.96855 13.4146 5.52853 13.4146 4.98574C13.4146 4.44295 12.9746 4.00293 12.4318 4.00293C11.889 4.00293 11.449 4.44295 11.449 4.98574C11.449 5.52853 11.889 5.96855 12.4318 5.96855Z" stroke="#02101B" stroke-width="0.7" stroke-miterlimit="10"/>
<path d="M3.41846 17.3983H9.84627M3.41846 9.28076H13.6425H3.41846ZM3.41846 11.9868H13.6425H3.41846ZM3.41846 14.6923H13.6425H3.41846Z" stroke="#02101B" stroke-width="0.7" stroke-miterlimit="10"/>
</svg>
