<svg width="24" height="24" viewBox="0 0 24 24" fill="none" xmlns="http://www.w3.org/2000/svg">
<path d="M12.6702 22H9.43916C8.94691 22 8.52875 21.6466 8.4688 21.1792L8.1153 18.7788C7.63623 18.5678 7.17206 18.3049 6.72943 17.9954L4.40502 18.9047C3.93145 19.0717 3.41769 18.8856 3.18897 18.4791L1.1319 15.0141C0.892679 14.585 0.995807 14.0719 1.37175 13.7826L3.34359 12.2816C3.31266 11.993 3.2976 11.74 3.2976 11.4999C3.2976 11.2597 3.31266 11.0067 3.34265 10.7174L1.37362 9.21826C0.989205 8.92248 0.887033 8.39194 1.13456 7.98291L3.19448 4.51241C3.42522 4.10428 3.94464 3.92178 4.40125 4.09434L6.73225 5.00643C7.19453 4.68681 7.65022 4.42848 8.11531 4.22214L8.46975 1.81348C8.52877 1.35339 8.94601 1 9.43919 1H13.5649C14.0581 1 14.4763 1.35339 14.5353 1.82174L14.8888 4.2212C15.3678 4.43214 15.832 4.69503 16.2746 5.00459L18.599 4.09528C19.0717 3.93005 19.5873 4.11439 19.8141 4.52172L21.8712 7.98581C22.1112 8.41562 22.0071 8.92877 21.6312 9.21735L19.6603 10.7184C19.6846 10.9484 19.7053 11.2168 19.7053 11.5008C19.7053 11.5173 19.7006 11.5911 19.6987 11.6076C19.6846 11.7336 19.6162 11.8742 19.5112 11.95C19.4061 12.0259 19.2693 12.0806 19.1445 12.0587C18.1262 11.8779 17.2271 11.9418 16.3146 12.2067C16.1693 12.2469 16.0109 12.2195 15.8908 12.1272C15.7717 12.035 15.7051 11.8926 15.7126 11.7446C15.7155 11.6952 15.7221 11.6469 15.7287 11.5985C15.7371 9.25203 13.8403 7.40488 11.5085 7.40488C9.17671 7.40488 7.27994 9.25195 7.27994 11.5237C7.27994 13.7945 9.17675 15.6414 11.5085 15.6414C11.636 15.6258 11.6857 15.6196 11.7364 15.6168C11.8893 15.6122 12.0347 15.6743 12.1293 15.7903C12.224 15.9063 12.254 16.0605 12.2109 16.203C12.0422 16.7572 11.9568 17.326 11.9568 17.894C11.9568 19.111 12.3356 20.2843 13.0539 21.285C13.1532 21.4247 13.1655 21.6065 13.0848 21.757C13.006 21.9048 12.8457 21.9999 12.6704 21.9999L12.6702 22ZM6.7989 17.0191C6.90015 17.0191 7.0014 17.0511 7.0849 17.114C7.59962 17.4994 8.14914 17.8107 8.72004 18.038C8.87386 18.0992 8.98265 18.2352 9.00698 18.396L9.39893 21.0575L11.8321 21.0793C11.3005 20.0997 11.022 19.0112 11.022 17.891C11.022 17.439 11.0689 16.987 11.1617 16.5405C8.47532 16.3652 6.34524 14.1813 6.34524 11.5205C6.34524 8.74579 8.66306 6.48875 11.5117 6.48875C14.243 6.48875 16.4861 8.56313 16.6669 11.1789C17.3532 11.0438 18.0396 11.0054 18.756 11.0794C18.7428 10.8967 18.7223 10.7251 18.7027 10.5718C18.6821 10.4129 18.7496 10.254 18.8789 10.1554L21.0551 8.49813L18.997 4.96937L16.38 5.94715C16.2252 6.00738 16.0499 5.9846 15.9196 5.88601C15.4049 5.49975 14.8544 5.1893 14.2844 4.96203C14.1306 4.90089 14.0218 4.76485 13.9975 4.60405L13.6056 1.94257L9.43966 1.91245L9.00644 4.60419C8.98305 4.76483 8.87333 4.89996 8.7195 4.96201C8.1701 5.1812 7.63372 5.48432 7.08059 5.88877C6.9503 5.98461 6.77685 6.00662 6.62397 5.94716L4.05581 4.94277L1.94521 8.44356L4.12802 10.1555C4.25736 10.2541 4.32485 10.4129 4.30429 10.5719C4.25736 10.9352 4.23585 11.2302 4.23585 11.4996C4.23585 11.7689 4.25736 12.0639 4.30429 12.4272C4.32486 12.586 4.25736 12.745 4.12802 12.8436L1.9518 14.5008L4.00811 18.0307L6.6251 17.0519C6.68114 17.0298 6.74032 17.0188 6.79933 17.0188L6.7989 17.0191Z" fill="#02101B"/>
<path d="M17.7141 22.9998C15.1144 22.9998 13 20.7571 13 17.9999C13 15.2427 15.1145 13 17.7141 13C20.2221 13 21.6657 15.1628 21.9871 16.5265C22.0445 16.7701 21.9049 17.0165 21.6751 17.0774C21.4463 17.1383 21.2122 16.9902 21.1557 16.7466C20.938 15.8209 19.81 13.9091 17.7142 13.9091C15.5876 13.9091 13.8571 15.7445 13.8571 18C13.8571 20.2555 15.5876 22.091 17.7142 22.091C17.9509 22.091 18.1429 22.2946 18.1429 22.5456C18.1429 22.7964 17.9516 23 17.7142 23L17.7141 22.9998Z" fill="#02101B"/>
<path d="M22.5 18H19.5C19.224 18 19 17.776 19 17.5C19 17.2239 19.224 16.9999 19.5 16.9999H21.9999V14.5C21.9999 14.224 22.2239 14 22.5 14C22.776 14 23 14.224 23 14.5V17.5C22.9998 17.776 22.7768 18 22.5 18Z" fill="#02101B"/>
</svg>
