<svg width="24" height="24" viewBox="0 0 24 24" fill="none" xmlns="http://www.w3.org/2000/svg">
<path d="M8.81658 7.45995C9.49868 7.45995 10.0516 6.907 10.0516 6.22491C10.0516 5.54281 9.49868 4.98987 8.81658 4.98987C8.13449 4.98987 7.58154 5.54281 7.58154 6.22491C7.58154 6.907 8.13449 7.45995 8.81658 7.45995Z" fill="#0074CC"/>
<path d="M8.81911 7.79111C8.82031 7.78631 8.82127 7.78175 8.82223 7.77695C8.93743 8.10767 9.43063 8.22359 9.68119 7.97879C9.73663 7.92455 9.78103 7.85735 9.84775 7.81775C9.92431 7.77239 10.0179 7.77047 10.107 7.77023C10.6078 7.76879 11.1558 7.79447 11.5306 8.12639C11.9533 8.50079 12.0097 9.12911 12.0368 9.69311C12.0884 10.7705 12.14 11.8476 12.1916 12.925C12.2079 13.2672 12.194 13.6733 11.9089 13.8631C11.7128 13.9934 11.4238 13.9579 11.265 13.7842C11.1063 13.6102 11.0907 13.3526 11.0838 13.1172C11.0518 12.043 11.0197 10.9687 10.9878 9.89447C10.8793 9.89447 10.7706 9.89447 10.6621 9.89471C10.8236 12.3744 10.9854 14.8543 11.1469 17.334L10.6818 17.3494C10.6719 18.1123 10.6623 18.8753 10.6525 19.6382C10.6482 19.975 10.6311 20.345 10.4024 20.5922C10.1571 20.857 9.69295 20.8738 9.42895 20.6278C9.14863 20.3662 9.13519 19.9339 9.14143 19.5506C9.15343 18.817 9.16519 18.0833 9.17719 17.3496C9.01639 17.3414 8.85583 17.3335 8.69503 17.3254C8.69191 18.1812 8.68879 19.037 8.68543 19.8926C8.68471 20.1026 8.67991 20.3263 8.56351 20.501C8.43487 20.694 8.18599 20.7859 7.95535 20.7631C7.24903 20.6933 7.16167 20.1029 7.09903 19.5163C7.02271 18.8009 7.07623 18.0794 7.12999 17.3645C7.03759 17.3611 6.94495 17.3578 6.85255 17.3544C6.94615 14.861 7.03999 12.3679 7.13359 9.87455L6.84631 9.89375C6.85279 10.56 6.85927 11.2265 6.86551 11.8927C6.86767 12.1176 6.86863 12.3497 6.78271 12.5575C6.69679 12.7654 6.50071 12.9446 6.27583 12.9389C6.05863 12.9334 5.87575 12.7565 5.79487 12.5549C5.71399 12.3533 5.71447 12.1296 5.71591 11.9122C5.72119 11.1595 5.72647 10.4069 5.73175 9.65423C5.73583 9.07151 5.77903 8.40479 6.23863 8.04671C6.52639 7.82255 6.91255 7.77839 7.27711 7.76639C7.49527 7.75919 7.72759 7.76423 7.91047 7.88351C8.00119 7.94279 8.07463 8.02703 8.16967 8.07887C8.40967 8.20943 8.75287 8.05463 8.81839 7.79087L8.81911 7.79111Z" fill="#0074CC"/>
<path d="M6.21936 20.6016C6.21936 20.6016 6.42312 20.8053 6.56568 20.6016V13.9404C6.56568 13.9404 6.44352 13.2477 5.58792 13.4311C5.58792 13.4311 4.97688 13.6077 5.05824 14.3037C5.05824 14.3037 5.32296 14.4225 5.36376 14.3037C5.36376 14.3037 5.56752 13.5941 5.91384 13.7774C5.91384 13.7774 6.40272 13.6757 6.23976 14.8164L6.21936 20.6016Z" fill="#0074CC"/>
<path d="M18.3461 20.2014C18.3461 20.2014 18.1423 20.4051 17.9997 20.2014V13.5402C17.9997 13.5402 18.1219 12.8475 18.9775 13.0309C18.9775 13.0309 19.5885 13.2075 19.5072 13.9035C19.5072 13.9035 19.2425 14.0223 19.2017 13.9035C19.2017 13.9035 18.9979 13.1939 18.6516 13.3772C18.6516 13.3772 18.1627 13.2755 18.3257 14.4162L18.3461 20.2014Z" fill="#0074CC"/>
<path d="M8.08238 4.91736C8.09846 4.92744 8.11934 4.93464 8.14598 4.938C8.28926 4.95552 8.5691 4.78152 8.72846 4.75752C8.96174 4.72248 9.2099 4.74384 9.4163 4.85832C9.4475 4.8756 9.48422 4.89528 9.51638 4.8804C9.53222 4.87296 9.5435 4.85832 9.55142 4.84296C9.58526 4.77696 9.56678 4.69344 9.52382 4.63296C9.48086 4.57248 9.4175 4.53 9.35486 4.49016C9.17366 4.37496 8.97038 4.26576 8.75702 4.28712C8.65262 4.29744 8.55374 4.33896 8.45942 4.38504C8.34422 4.44144 8.23022 4.50768 8.14742 4.6056C8.0531 4.7172 7.99574 4.8624 8.08262 4.9176L8.08238 4.91736Z" fill="#0074CC"/>
<path d="M17.1524 4.944C17.2244 4.9128 17.2776 4.8624 17.2812 4.78464C16.9906 4.66776 16.7523 4.4268 16.6388 4.13496C16.59 4.00992 16.5632 3.87624 16.5027 3.75648C16.4422 3.63672 16.3364 3.52776 16.2029 3.51288C16.07 3.498 15.9432 3.57864 15.8093 3.58104C15.7056 3.58296 15.6072 3.53808 15.5045 3.5244C15.3147 3.4992 15.1143 3.59184 15.0104 3.7524C14.911 3.906 14.9012 4.09944 14.8364 4.27056C14.7694 4.4472 14.6408 4.60008 14.4783 4.69632C14.4188 4.73136 14.3518 4.76232 14.3163 4.8216C14.1576 5.08632 15.266 4.9956 15.4138 4.99488C15.9132 4.99248 16.4124 4.98984 16.9119 4.98744C16.9899 4.98696 17.0804 4.97544 17.1524 4.94424V4.944Z" fill="#0074CC"/>
<path d="M14.6122 5.24231H16.9752C16.9752 5.24231 17.2603 6.60719 16.0992 6.83111C16.0992 6.83111 15.5287 7.09583 14.8973 6.54599C14.8973 6.54599 14.388 6.21407 14.6122 5.24231Z" fill="#0074CC"/>
<path d="M13.8441 7.23074C13.9284 7.22642 14.0126 7.22522 14.0959 7.2245C15.0633 7.2149 16.0308 7.20554 16.9982 7.19594C17.5857 7.19018 18.2558 7.22042 18.6324 7.67138C18.9206 8.0165 18.9424 8.50466 18.9506 8.95418C18.9652 9.75026 18.9799 10.5463 18.9943 11.3424C18.9988 11.5848 19.0015 11.8359 18.9048 12.0581C18.808 12.2803 18.5824 12.4661 18.342 12.4356C18.136 12.4097 17.9748 12.2328 17.9047 12.0377C17.8346 11.8423 17.8384 11.6295 17.8432 11.4221C17.8588 10.7335 17.8742 10.045 17.8898 9.35618C17.783 9.3617 17.6762 9.36698 17.5694 9.3725C17.568 12.8475 17.5665 16.3222 17.5648 19.7971C17.5648 20.0179 17.5629 20.2471 17.4686 20.4468C17.2641 20.88 16.5993 20.9971 16.2592 20.6599C15.9782 20.3813 15.9602 19.9404 15.96 19.5447C15.9592 17.6611 15.9585 15.7776 15.9576 13.8943C15.8438 13.8831 15.7303 13.8718 15.6165 13.8603C15.6139 15.8484 15.6115 17.8366 15.6088 19.8247C15.6086 20.0513 15.6064 20.2865 15.5092 20.4912C15.3916 20.7389 15.1327 20.9129 14.8588 20.9285C13.8124 20.9883 13.9682 19.4309 13.9711 18.7623C13.9845 15.6348 13.998 12.5076 14.0114 9.38018C13.9015 9.37442 13.7916 9.36842 13.6816 9.36266C13.6816 10.5763 13.6816 11.7898 13.6816 13.0035C13.6816 13.3097 13.6401 13.6836 13.3598 13.8067C13.1181 13.9128 12.827 13.7463 12.7027 13.5135C12.5784 13.2807 12.5779 13.0042 12.58 12.7402C12.5906 11.4929 12.6012 10.2456 12.6115 8.99858C12.6165 8.40458 12.6782 7.70498 13.186 7.39682C13.3821 7.27778 13.612 7.24202 13.8441 7.23026V7.23074Z" fill="#0074CC"/>
</svg>
