<svg width="8" height="13" viewBox="0 0 8 13" fill="none" xmlns="http://www.w3.org/2000/svg">
<path fill-rule="evenodd" clip-rule="evenodd" d="M7.28125 1.50001C7.28125 0.872284 6.79169 0.363647 6.1875 0.363647C5.02331 0.363647 2.97669 0.363647 1.8125 0.363647C1.20831 0.363647 0.71875 0.872284 0.71875 1.50001C0.71875 3.70137 0.71875 9.29865 0.71875 11.5C0.71875 12.1277 1.20831 12.6364 1.8125 12.6364C2.97669 12.6364 5.02331 12.6364 6.1875 12.6364C6.79169 12.6364 7.28125 12.1277 7.28125 11.5V1.50001ZM2.46875 0.818193H1.8125C1.45025 0.818193 1.15625 1.12365 1.15625 1.50001C1.15625 3.70137 1.15625 9.29865 1.15625 11.5C1.15625 11.8764 1.45025 12.1818 1.8125 12.1818C2.97669 12.1818 5.02331 12.1818 6.1875 12.1818C6.54975 12.1818 6.84375 11.8764 6.84375 11.5V1.50001C6.84375 1.12365 6.54975 0.818193 6.1875 0.818193H5.53125V1.04547C5.53125 1.22637 5.46213 1.39956 5.33919 1.52774C5.21581 1.65547 5.04913 1.72728 4.875 1.72728C4.38937 1.72728 3.61063 1.72728 3.125 1.72728C2.95088 1.72728 2.78419 1.65547 2.66081 1.52774C2.53787 1.39956 2.46875 1.22637 2.46875 1.04547V0.818193ZM3.125 11.7273H4.875C4.99575 11.7273 5.09375 11.6255 5.09375 11.5C5.09375 11.3746 4.99575 11.2727 4.875 11.2727H3.125C3.00425 11.2727 2.90625 11.3746 2.90625 11.5C2.90625 11.6255 3.00425 11.7273 3.125 11.7273ZM2.90625 0.818193V1.04547C2.90625 1.10592 2.92944 1.16365 2.97012 1.20637C3.01125 1.24865 3.06681 1.27274 3.125 1.27274C3.61063 1.27274 4.38937 1.27274 4.875 1.27274C4.93319 1.27274 4.98875 1.24865 5.02988 1.20637C5.07056 1.16365 5.09375 1.10592 5.09375 1.04547V0.818193H2.90625Z" fill="#02101B"/>
</svg>
