<svg width="35" height="35" viewBox="0 0 35 35" fill="none" xmlns="http://www.w3.org/2000/svg">
<circle cx="17.5" cy="17.5" r="17.5" fill="#ffffff"/>
<path d="M23.3424 18.224C23.1901 18.1953 23.0386 18.1621 22.8878 18.126C22.571 18.0482 22.259 17.9518 21.9536 17.8372C21.2194 17.5596 20.3934 17.873 20.028 18.5678L19.4482 19.6814C18.5913 19.1949 17.8043 18.5946 17.1086 17.8967C16.4129 17.1985 15.8146 16.4095 15.33 15.5512L16.4368 14.9751C17.1316 14.6097 17.4451 13.7839 17.1679 13.0495C17.0529 12.7436 16.9564 12.4312 16.8787 12.1138C16.8419 11.9633 16.8094 11.8115 16.7811 11.6585C16.5718 10.5635 15.6113 9.77359 14.4966 9.77957H12.122C11.4382 9.77953 10.7884 10.0781 10.343 10.5969C9.90158 11.1082 9.70527 11.7866 9.80541 12.4546C10.8335 19.0188 15.9805 24.1693 22.544 25.2019C22.6583 25.2193 22.7737 25.2281 22.8893 25.2283C23.4448 25.2276 23.9818 25.0278 24.4025 24.6651C24.9218 24.2194 25.2206 23.5692 25.2206 22.885V20.5085C25.2269 19.3938 24.4373 18.4333 23.3424 18.224ZM24.4485 22.885C24.4483 23.3442 24.2475 23.7804 23.8989 24.0792C23.5578 24.3734 23.1057 24.5047 22.6601 24.4389C16.4304 23.4589 11.5451 18.5704 10.5692 12.34C10.5023 11.8943 10.6335 11.4415 10.9284 11.1005C11.2271 10.752 11.6631 10.5515 12.122 10.5516H14.4966C15.239 10.5456 15.8802 11.0698 16.0219 11.7987C16.0524 11.9653 16.0886 12.1319 16.1286 12.2971C16.2138 12.6443 16.3196 12.9862 16.4452 13.3209C16.5855 13.69 16.4288 14.1058 16.0799 14.2905L14.6255 15.0475C14.4366 15.1459 14.363 15.3787 14.4612 15.5678C15.0107 16.6272 15.7192 17.5962 16.5621 18.4411C17.4045 19.2869 18.3718 19.9984 19.4301 20.5507C19.5214 20.5971 19.627 20.6063 19.7249 20.5763C19.8224 20.5458 19.9038 20.4777 19.9511 20.3871L20.7126 18.9244C20.8974 18.576 21.3127 18.4196 21.6815 18.5595C22.0158 18.6853 22.3575 18.7908 22.7046 18.8754C22.8682 18.9161 23.0333 18.9508 23.2007 18.9825C23.9299 19.1241 24.4545 19.7656 24.4485 20.5085V22.885Z" fill="#435BAA"/>
</svg>
