<svg width="24" height="24" viewBox="0 0 24 24" fill="none" xmlns="http://www.w3.org/2000/svg">
<rect x="-0.5" y="0.5" width="23" height="23" rx="4.5" transform="matrix(-1 0 0 1 23 0)" fill="white" stroke="#0074CC"/>
<path d="M18.3333 11.6665C18.3333 11.6665 15.6667 15.6665 11.6667 15.6665C7.66667 15.6665 5 11.6665 5 11.6665C5 11.6665 7.66667 7.6665 11.6667 7.6665C15.6667 7.6665 18.3333 11.6665 18.3333 11.6665ZM14.3333 11.6665C14.3333 13.1392 13.1393 14.3332 11.6667 14.3332C10.194 14.3332 9 13.1392 9 11.6665C9 10.1938 10.194 8.99984 11.6667 8.99984C13.1393 8.99984 14.3333 10.1938 14.3333 11.6665ZM12.3333 11.6665C12.3333 12.0345 12.0347 12.3332 11.6667 12.3332C11.2987 12.3332 11 12.0345 11 11.6665C11 11.2985 11.2987 10.9998 11.6667 10.9998C12.0347 10.9998 12.3333 11.2985 12.3333 11.6665Z" stroke="#0074CC" stroke-linecap="round" stroke-linejoin="round"/>
</svg>
