<svg width="30" height="30" viewBox="0 0 30 30" fill="none" xmlns="http://www.w3.org/2000/svg">
<path d="M21.6957 18.4608L21.5405 18.374C21.5705 18.1169 21.5705 17.8572 21.5405 17.6001L21.6943 17.5144C21.7925 17.4604 21.8788 17.3873 21.9482 17.2992C22.0175 17.2112 22.0684 17.1101 22.0978 17.002C22.1266 16.8961 22.1334 16.7854 22.1178 16.6767C22.1023 16.5681 22.0647 16.4638 22.0074 16.3701L21.4036 15.3698C21.2876 15.1833 21.1047 15.0482 20.8922 14.9923C20.6798 14.9365 20.454 14.964 20.2613 15.0694L20.085 15.1669C19.858 15.0046 19.6135 14.8683 19.3561 14.7604V14.5973C19.3535 14.3757 19.2633 14.1642 19.1052 14.0089C18.9471 13.8536 18.734 13.7672 18.5124 13.7686H17.3025C17.0809 13.7672 16.8678 13.8536 16.7097 14.0089C16.5516 14.1642 16.4614 14.3757 16.4588 14.5973V14.7604C16.2016 14.8681 15.9574 15.0045 15.7308 15.1669L15.5541 15.0694C15.3614 14.9642 15.1357 14.9367 14.9234 14.9925C14.7111 15.0484 14.5282 15.1834 14.4122 15.3698L13.8075 16.3701C13.7504 16.4639 13.713 16.5683 13.6975 16.6771C13.6821 16.7858 13.6889 16.8965 13.7175 17.0025C13.747 17.1103 13.7978 17.211 13.8669 17.2989C13.936 17.3867 14.0219 17.4598 14.1197 17.5139L14.2749 17.6001C14.2599 17.7286 14.2523 17.8579 14.2524 17.9873C14.2525 18.1166 14.26 18.2457 14.2749 18.374L14.1202 18.4603C14.0223 18.5143 13.9362 18.5873 13.867 18.6752C13.7979 18.763 13.747 18.8639 13.7175 18.9717C13.6888 19.0777 13.682 19.1885 13.6976 19.2972C13.7131 19.4059 13.7507 19.5103 13.808 19.604L14.4118 20.6044C14.5282 20.7905 14.7113 20.9252 14.9236 20.981C15.136 21.0369 15.3616 21.0096 15.5546 20.9048L15.7308 20.8073C15.9574 20.9698 16.2016 21.1062 16.4588 21.2137V21.375C16.4613 21.5967 16.5514 21.8083 16.7095 21.9637C16.8676 22.1191 17.0808 22.2056 17.3025 22.2042H18.5105C18.7322 22.2056 18.9454 22.1191 19.1035 21.9637C19.2616 21.8083 19.3518 21.5967 19.3543 21.375V21.2119C19.6117 21.1042 19.8562 20.9679 20.0832 20.8054L20.2594 20.9025C20.4521 21.0081 20.6779 21.0358 20.8903 20.98C21.1028 20.9242 21.2859 20.7891 21.4018 20.6025L22.005 19.6031C22.0625 19.5094 22.1002 19.4049 22.1158 19.2961C22.1315 19.1873 22.1247 19.0764 22.096 18.9703C22.0667 18.8629 22.0161 18.7625 21.9474 18.675C21.8786 18.5875 21.793 18.5146 21.6957 18.4608ZM20.625 17.9873C20.6249 18.1031 20.6164 18.2187 20.5997 18.3333C20.5785 18.4974 20.6074 18.6642 20.6827 18.8116C20.758 18.959 20.8762 19.0802 21.0216 19.1592L21.1402 19.2253L20.6443 20.0461L20.4924 19.9617C20.3464 19.8835 20.1812 19.8483 20.016 19.8602C19.8507 19.8722 19.6923 19.9308 19.5591 20.0292C19.3735 20.1657 19.1713 20.2778 18.9572 20.3629C18.8001 20.4228 18.6646 20.5285 18.5683 20.6663C18.472 20.8042 18.4194 20.9678 18.4172 21.1359V21.2686H17.3944V21.1359C17.3923 20.9678 17.3397 20.8041 17.2434 20.6663C17.1471 20.5284 17.0116 20.4227 16.8544 20.3629C16.6405 20.2776 16.4382 20.1655 16.2525 20.0292C16.1197 19.9303 15.9614 19.8715 15.7962 19.8595C15.631 19.8475 15.4659 19.883 15.3202 19.9617L15.1678 20.0461L14.6719 19.2253L14.7886 19.1601C14.9344 19.0807 15.0527 18.9591 15.128 18.8111C15.2033 18.6632 15.2321 18.496 15.2105 18.3314C15.1771 18.1024 15.1771 17.8699 15.2105 17.6409C15.2316 17.4767 15.2026 17.31 15.1273 17.1625C15.052 17.0151 14.934 16.8938 14.7886 16.8145L14.6705 16.7489L15.166 15.9281L15.3178 16.012C15.4637 16.0906 15.629 16.1261 15.7942 16.1142C15.9595 16.1023 16.118 16.0436 16.2511 15.945C16.4369 15.8089 16.6392 15.6968 16.853 15.6112C17.0101 15.5514 17.1455 15.4456 17.2417 15.3078C17.3379 15.1699 17.3905 15.0063 17.3925 14.8383V14.7061H18.4168V14.8383C18.4192 15.0063 18.4722 15.1698 18.5689 15.3073C18.6655 15.4448 18.8013 15.5501 18.9586 15.6094C19.1727 15.6952 19.3751 15.8078 19.561 15.9445C19.6943 16.0426 19.8527 16.1009 20.0178 16.1127C20.1828 16.1244 20.3479 16.0892 20.4938 16.0111L20.6457 15.9267L21.1407 16.7489L21.0244 16.8136C20.8782 16.8925 20.7593 17.0138 20.6834 17.1615C20.6075 17.3093 20.5782 17.4766 20.5992 17.6414C20.6162 17.7559 20.6248 17.8715 20.625 17.9873Z" fill="#0074CC"/>
<path d="M24.8672 22.9589C24.7793 22.871 24.6601 22.8216 24.5358 22.8216C24.4115 22.8216 24.2923 22.871 24.2044 22.9589L23.873 23.2903L22.531 21.9482C23.5594 20.75 24.0837 19.2 23.9939 17.6235C23.9041 16.0471 23.2071 14.5666 22.0493 13.493C20.8914 12.4193 19.3627 11.8359 17.784 11.8651C16.2052 11.8943 14.6991 12.5339 13.5818 13.6496C12.4644 14.7654 11.8227 16.2706 11.7913 17.8493C11.7598 19.428 12.3411 20.9576 13.4131 22.1169C14.4852 23.2763 15.9646 23.9753 17.5409 24.0674C19.1173 24.1594 20.668 23.6373 21.8677 22.6106L23.2102 23.9531L22.8788 24.2845C22.7909 24.3724 22.7416 24.4916 22.7416 24.6159C22.7416 24.7402 22.7909 24.8594 22.8788 24.9473L26.8561 28.9246C26.944 29.0125 27.0633 29.0619 27.1876 29.0619C27.3118 29.0619 27.4311 29.0125 27.519 28.9246L28.8446 27.599C28.9325 27.5111 28.9818 27.3919 28.9818 27.2676C28.9818 27.1433 28.9325 27.0241 28.8446 26.9362L24.8672 22.9589ZM21.5527 21.6328C20.7093 22.4764 19.5994 23.0015 18.4122 23.1185C17.225 23.2356 16.034 22.9373 15.042 22.2747C14.0501 21.612 13.3186 20.6259 12.9722 19.4844C12.6258 18.3428 12.686 17.1165 13.1424 16.0143C13.5988 14.9122 14.4233 14.0023 15.4753 13.4399C16.5273 12.8775 17.7418 12.6972 18.9119 12.9299C20.0819 13.1625 21.1351 13.7937 21.8919 14.7158C22.6488 15.6379 23.0625 16.7939 23.0626 17.9868C23.0646 18.6642 22.9322 19.3353 22.6731 19.9611C22.4139 20.587 22.0331 21.1552 21.5527 21.6328ZM27.1876 27.9309L23.873 24.6164L24.5358 23.9531L27.8504 27.2676L27.1876 27.9309Z" fill="#0074CC"/>
<path d="M17.9063 16.1123C17.5354 16.1123 17.1729 16.2223 16.8646 16.4283C16.5562 16.6343 16.3159 16.9272 16.174 17.2698C16.0321 17.6124 15.9949 17.9894 16.0673 18.3531C16.1396 18.7168 16.3182 19.0509 16.5804 19.3131C16.8426 19.5754 17.1767 19.7539 17.5405 19.8263C17.9042 19.8986 18.2812 19.8615 18.6238 19.7196C18.9664 19.5777 19.2592 19.3373 19.4653 19.029C19.6713 18.7207 19.7813 18.3581 19.7813 17.9873C19.7813 17.49 19.5837 17.0131 19.2321 16.6615C18.8804 16.3098 18.4035 16.1123 17.9063 16.1123ZM17.9063 18.9248C17.7208 18.9248 17.5396 18.8698 17.3854 18.7668C17.2312 18.6638 17.1111 18.5174 17.0401 18.3461C16.9692 18.1748 16.9506 17.9863 16.9868 17.8044C17.0229 17.6225 17.1122 17.4555 17.2433 17.3244C17.3744 17.1933 17.5415 17.104 17.7234 17.0678C17.9052 17.0316 18.0937 17.0502 18.265 17.1212C18.4363 17.1921 18.5827 17.3123 18.6858 17.4665C18.7888 17.6206 18.8438 17.8019 18.8438 17.9873C18.8438 18.2359 18.745 18.4744 18.5692 18.6502C18.3933 18.826 18.1549 18.9248 17.9063 18.9248Z" fill="#0074CC"/>
<path d="M8.90625 1.40625V2.34375H4.21875C4.09443 2.34375 3.9752 2.39314 3.88729 2.48104C3.79939 2.56895 3.75 2.68818 3.75 2.8125V26.7188C3.75 26.8431 3.79939 26.9623 3.88729 27.0502C3.9752 27.1381 4.09443 27.1875 4.21875 27.1875H22.9688V26.25H4.6875V3.28125H8.90625V4.21875C8.90625 4.34307 8.95564 4.4623 9.04354 4.55021C9.13145 4.63811 9.25068 4.6875 9.375 4.6875H20.1562C20.2806 4.6875 20.3998 4.63811 20.4877 4.55021C20.5756 4.4623 20.625 4.34307 20.625 4.21875V3.28125H25.3125V21.5625H26.25V2.8125C26.25 2.68818 26.2006 2.56895 26.1127 2.48104C26.0248 2.39314 25.9056 2.34375 25.7812 2.34375H20.625V1.40625C20.625 1.28193 20.5756 1.1627 20.4877 1.07479C20.3998 0.986886 20.2806 0.9375 20.1562 0.9375H9.375C9.25068 0.9375 9.13145 0.986886 9.04354 1.07479C8.95564 1.1627 8.90625 1.28193 8.90625 1.40625ZM9.84375 1.875H19.6875V3.75H9.84375V1.875Z" fill="#0074CC"/>
<path d="M22.9688 6.5625H7.03125V7.5H22.9688V6.5625Z" fill="#0074CC"/>
<path d="M17.3438 9.375H7.03125V10.3125H17.3438V9.375Z" fill="#0074CC"/>
<path d="M12.1875 12.1875H7.03125V13.125H12.1875V12.1875Z" fill="#0074CC"/>
<path d="M10.3125 15H7.5C7.37568 15 7.25645 15.0494 7.16854 15.1373C7.08064 15.2252 7.03125 15.3444 7.03125 15.4688V18.2812C7.03125 18.4056 7.08064 18.5248 7.16854 18.6127C7.25645 18.7006 7.37568 18.75 7.5 18.75H10.3125C10.4368 18.75 10.556 18.7006 10.644 18.6127C10.7319 18.5248 10.7812 18.4056 10.7812 18.2812V15.4688C10.7812 15.3444 10.7319 15.2252 10.644 15.1373C10.556 15.0494 10.4368 15 10.3125 15ZM9.84375 17.8125H7.96875V15.9375H9.84375V17.8125Z" fill="#0074CC"/>
<path d="M10.7812 20.625H7.03125V21.5625H10.7812V20.625Z" fill="#0074CC"/>
<path d="M12.6562 23.4375H7.03125V24.375H12.6562V23.4375Z" fill="#0074CC"/>
</svg>
