<svg width="33" height="33" viewBox="0 0 33 33" fill="none" xmlns="http://www.w3.org/2000/svg">
<path d="M8.25 14.4375H20.625C20.7618 14.4375 20.8929 14.3832 20.9896 14.2865C21.0863 14.1898 21.1406 14.0586 21.1406 13.9219C21.1406 13.7851 21.0863 13.654 20.9896 13.5573C20.8929 13.4606 20.7618 13.4062 20.625 13.4062H8.25C8.11325 13.4062 7.9821 13.4606 7.8854 13.5573C7.7887 13.654 7.73438 13.7851 7.73438 13.9219C7.73438 14.0586 7.7887 14.1898 7.8854 14.2865C7.9821 14.3832 8.11325 14.4375 8.25 14.4375ZM8.25 17.0156H18.5625C18.6993 17.0156 18.8304 16.9613 18.9271 16.8646C19.0238 16.7679 19.0781 16.6368 19.0781 16.5C19.0781 16.3632 19.0238 16.2321 18.9271 16.1354C18.8304 16.0387 18.6993 15.9844 18.5625 15.9844H8.25C8.11325 15.9844 7.9821 16.0387 7.8854 16.1354C7.7887 16.2321 7.73438 16.3632 7.73438 16.5C7.73438 16.6368 7.7887 16.7679 7.8854 16.8646C7.9821 16.9613 8.11325 17.0156 8.25 17.0156ZM8.25 11.8594H15.9844C16.1211 11.8594 16.2523 11.8051 16.349 11.7084C16.4457 11.6117 16.5 11.4805 16.5 11.3438C16.5 11.207 16.4457 11.0758 16.349 10.9791C16.2523 10.8824 16.1211 10.8281 15.9844 10.8281H8.25C8.11325 10.8281 7.9821 10.8824 7.8854 10.9791C7.7887 11.0758 7.73438 11.207 7.73438 11.3438C7.73438 11.4805 7.7887 11.6117 7.8854 11.7084C7.9821 11.8051 8.11325 11.8594 8.25 11.8594ZM8.25 24.75H14.4375C14.5743 24.75 14.7054 24.6957 14.8021 24.599C14.8988 24.5023 14.9531 24.3711 14.9531 24.2344C14.9531 24.0976 14.8988 23.9665 14.8021 23.8698C14.7054 23.7731 14.5743 23.7188 14.4375 23.7188H8.25C8.11325 23.7188 7.9821 23.7731 7.8854 23.8698C7.7887 23.9665 7.73438 24.0976 7.73438 24.2344C7.73438 24.3711 7.7887 24.5023 7.8854 24.599C7.9821 24.6957 8.11325 24.75 8.25 24.75ZM8.25 22.1719H14.9531C15.0899 22.1719 15.221 22.1176 15.3177 22.0209C15.4144 21.9242 15.4688 21.793 15.4688 21.6562C15.4688 21.5195 15.4144 21.3883 15.3177 21.2916C15.221 21.1949 15.0899 21.1406 14.9531 21.1406H8.25C8.11325 21.1406 7.9821 21.1949 7.8854 21.2916C7.7887 21.3883 7.73438 21.5195 7.73438 21.6562C7.73438 21.793 7.7887 21.9242 7.8854 22.0209C7.9821 22.1176 8.11325 22.1719 8.25 22.1719ZM8.25 19.5938H16.5C16.6368 19.5938 16.7679 19.5394 16.8646 19.4427C16.9613 19.346 17.0156 19.2149 17.0156 19.0781C17.0156 18.9414 16.9613 18.8102 16.8646 18.7135C16.7679 18.6168 16.6368 18.5625 16.5 18.5625H8.25C8.11325 18.5625 7.9821 18.6168 7.8854 18.7135C7.7887 18.8102 7.73438 18.9414 7.73438 19.0781C7.73438 19.2149 7.7887 19.346 7.8854 19.4427C7.9821 19.5394 8.11325 19.5938 8.25 19.5938Z" fill="#0074CC"/>
<path d="M24.2344 17.0156V7.21875C24.2344 7.15091 24.221 7.08373 24.195 7.02108C24.169 6.95843 24.1309 6.90154 24.0828 6.85369L18.9276 1.69847C18.8797 1.65043 18.8228 1.61231 18.7601 1.5863C18.6975 1.56029 18.6303 1.54689 18.5625 1.54688H6.1875C5.33466 1.54688 4.64062 2.24091 4.64062 3.09375V4.64062H3.09375C2.24091 4.64062 1.54688 5.33466 1.54688 6.1875V29.9062C1.54688 30.7591 2.24091 31.4531 3.09375 31.4531H19.5938C19.8696 31.4521 20.1401 31.3771 20.3771 31.2358C20.6141 31.0946 20.8089 30.8924 20.9411 30.6503C21.9588 31.1774 23.0882 31.4527 24.2344 31.4531C28.215 31.4531 31.4531 28.215 31.4531 24.2344C31.4531 20.2537 28.215 17.0156 24.2344 17.0156ZM19.0781 3.30722L22.474 6.70312H19.0781V3.30722ZM5.67188 3.09375C5.67188 2.957 5.7262 2.82585 5.8229 2.72915C5.9196 2.63245 6.05075 2.57812 6.1875 2.57812H18.0469V7.21875C18.0469 7.3555 18.1012 7.48665 18.1979 7.58335C18.2946 7.68005 18.4257 7.73438 18.5625 7.73438H23.2031V17.0981C19.7108 17.6009 17.0156 20.6049 17.0156 24.2344C17.0156 25.3425 17.274 26.3887 17.722 27.3281H6.1875C6.05075 27.3281 5.9196 27.2738 5.8229 27.1771C5.7262 27.0804 5.67188 26.9493 5.67188 26.8125V3.09375ZM19.5938 30.4219H3.09375C2.957 30.4219 2.82585 30.3675 2.72915 30.2709C2.63245 30.1742 2.57812 30.043 2.57812 29.9062V6.1875C2.57812 6.05075 2.63245 5.9196 2.72915 5.8229C2.82585 5.7262 2.957 5.67188 3.09375 5.67188H4.64062V26.8125C4.64062 27.6653 5.33466 28.3594 6.1875 28.3594H18.3186C18.7954 29.0402 19.3854 29.6342 20.063 30.1156C20.0227 30.2065 19.957 30.2838 19.8737 30.3382C19.7904 30.3926 19.6932 30.4216 19.5938 30.4219ZM24.2344 30.4219C20.8225 30.4219 18.0469 27.6463 18.0469 24.2344C18.0469 20.8225 20.8225 18.0469 24.2344 18.0469C27.6463 18.0469 30.4219 20.8225 30.4219 24.2344C30.4219 27.6463 27.6463 30.4219 24.2344 30.4219Z" fill="#0074CC"/>
<path d="M27.4794 21.2917L23.2461 25.525L21.5435 23.3965C21.458 23.2897 21.3336 23.2212 21.1977 23.2061C21.0617 23.191 20.9253 23.2306 20.8185 23.316C20.7117 23.4015 20.6432 23.5259 20.6281 23.6619C20.6131 23.7978 20.6526 23.9342 20.7381 24.041L22.8006 26.6191C22.846 26.6756 22.9028 26.7219 22.9672 26.755C23.0317 26.7881 23.1024 26.8073 23.1748 26.8112C23.2471 26.8152 23.3195 26.8039 23.3872 26.7781C23.455 26.7523 23.5165 26.7126 23.5678 26.6614L28.2085 22.0208C28.2577 21.9732 28.297 21.9163 28.324 21.8534C28.351 21.7905 28.3652 21.7228 28.3658 21.6544C28.3664 21.5859 28.3534 21.518 28.3275 21.4547C28.3015 21.3913 28.2633 21.3337 28.2148 21.2853C28.1664 21.2369 28.1089 21.1986 28.0455 21.1727C27.9821 21.1467 27.9142 21.1337 27.8458 21.1343C27.7773 21.1349 27.7096 21.1491 27.6467 21.1761C27.5838 21.2032 27.5269 21.2424 27.4794 21.2917Z" fill="#0074CC"/>
</svg>
