<svg width="30" height="30" viewBox="0 0 30 30" fill="none" xmlns="http://www.w3.org/2000/svg">
<g clip-path="url(#clip0_204_210)">
<path d="M24.0611 30.0001H5.93926C5.57787 29.9989 5.23163 29.8548 4.97609 29.5992C4.72054 29.3437 4.57643 28.9974 4.5752 28.636V5.6251C4.57643 5.26371 4.72054 4.91747 4.97609 4.66192C5.23163 4.40638 5.57787 4.26227 5.93926 4.26104H9.57676C9.67811 4.28644 9.76808 4.34498 9.83236 4.42736C9.89664 4.50974 9.93155 4.61123 9.93155 4.71572C9.93155 4.82021 9.89664 4.92171 9.83236 5.00409C9.76808 5.08647 9.67811 5.14501 9.57676 5.17041H5.93926C5.81494 5.17041 5.69571 5.2198 5.6078 5.3077C5.51989 5.39561 5.47051 5.51484 5.47051 5.63916V28.636C5.47051 28.7604 5.51989 28.8796 5.6078 28.9675C5.69571 29.0554 5.81494 29.1048 5.93926 29.1048H24.0611C24.1855 29.1048 24.3047 29.0554 24.3926 28.9675C24.4805 28.8796 24.5299 28.7604 24.5299 28.636V5.6251C24.5299 5.50078 24.4805 5.38155 24.3926 5.29364C24.3047 5.20573 24.1855 5.15635 24.0611 5.15635H20.3111C20.242 5.17367 20.1699 5.17501 20.1001 5.16026C20.0304 5.1455 19.965 5.11505 19.9088 5.07122C19.8526 5.02738 19.8072 4.97131 19.7759 4.90728C19.7447 4.84324 19.7284 4.77292 19.7284 4.70166C19.7284 4.6304 19.7447 4.56008 19.7759 4.49605C19.8072 4.43201 19.8526 4.37594 19.9088 4.3321C19.965 4.28827 20.0304 4.25782 20.1001 4.24306C20.1699 4.22831 20.242 4.22965 20.3111 4.24697H24.0611C24.2413 4.24759 24.4195 4.28375 24.5857 4.3534C24.7518 4.42305 24.9026 4.52481 25.0293 4.65284C25.156 4.78087 25.2562 4.93266 25.3242 5.0995C25.3921 5.26635 25.4264 5.44496 25.4252 5.6251V28.636C25.424 28.9974 25.2799 29.3437 25.0243 29.5992C24.7688 29.8548 24.4225 29.9989 24.0611 30.0001Z" fill="#0074CC"/>
<path d="M12.5719 13.6641H8.05781C7.93349 13.6641 7.81426 13.6147 7.72636 13.5268C7.63845 13.4389 7.58906 13.3196 7.58906 13.1953V8.69531C7.58906 8.57099 7.63845 8.45176 7.72636 8.36386C7.81426 8.27595 7.93349 8.22656 8.05781 8.22656H12.5719C12.6962 8.22656 12.8154 8.27595 12.9033 8.36386C12.9912 8.45176 13.0406 8.57099 13.0406 8.69531V13.2094C13.037 13.3312 12.986 13.4469 12.8985 13.5318C12.8109 13.6167 12.6938 13.6641 12.5719 13.6641ZM8.50781 12.7594H12.1172V9.15H8.50781V12.7594ZM12.5109 20.3719H7.99219C7.86787 20.3719 7.74864 20.3225 7.66073 20.2346C7.57282 20.1467 7.52344 20.0274 7.52344 19.9031V15.4031C7.52344 15.2788 7.57282 15.1596 7.66073 15.0717C7.74864 14.9838 7.86787 14.9344 7.99219 14.9344H12.5109C12.6353 14.9344 12.7545 14.9838 12.8424 15.0717C12.9303 15.1596 12.9797 15.2788 12.9797 15.4031V19.9172C12.976 20.0391 12.925 20.1547 12.8375 20.2396C12.75 20.3245 12.6329 20.3719 12.5109 20.3719ZM8.4375 19.4672H12.0469V15.8531H8.4375V19.4672ZM12.5109 26.9953H7.99219C7.86787 26.9953 7.74864 26.9459 7.66073 26.858C7.57282 26.7701 7.52344 26.6509 7.52344 26.5266V22.0313C7.52344 21.9069 7.57282 21.7877 7.66073 21.6998C7.74864 21.6119 7.86787 21.5625 7.99219 21.5625H12.5109C12.6353 21.5625 12.7545 21.6119 12.8424 21.6998C12.9303 21.7877 12.9797 21.9069 12.9797 22.0313V26.55C12.9737 26.6702 12.9216 26.7835 12.8344 26.8664C12.7471 26.9493 12.6313 26.9955 12.5109 26.9953ZM8.4375 26.0859H12.0469V22.5H8.4375V26.0859Z" fill="#0074CC"/>
<path d="M10.9124 12.0655C10.8489 12.0647 10.7862 12.051 10.7282 12.0252C10.6702 11.9994 10.618 11.9621 10.5749 11.9155L9.37486 10.5983C9.29743 10.5073 9.2577 10.3901 9.26379 10.2707C9.26989 10.1514 9.32136 10.0388 9.40767 9.95616C9.49872 9.87872 9.61591 9.83899 9.73528 9.84509C9.85465 9.85119 9.96718 9.90266 10.0499 9.98897L11.2499 11.3062C11.3273 11.3972 11.367 11.5144 11.3609 11.6338C11.3548 11.7531 11.3034 11.8657 11.2171 11.9483C11.1348 12.0258 11.0254 12.0679 10.9124 12.0655Z" fill="#0074CC"/>
<path d="M9.71738 12.0657C9.60506 12.0644 9.49694 12.0228 9.4127 11.9485C9.32571 11.8664 9.27337 11.7542 9.2664 11.6348C9.25943 11.5155 9.29835 11.3979 9.3752 11.3063L10.5705 9.98911C10.653 9.90413 10.7645 9.85351 10.8828 9.84742C11.0011 9.84134 11.1173 9.88023 11.208 9.9563C11.2957 10.0377 11.3489 10.1496 11.3567 10.269C11.3646 10.3884 11.3265 10.5063 11.2502 10.5985L10.0596 11.9157C10.0159 11.9628 9.96293 12.0004 9.90407 12.0262C9.8452 12.052 9.78166 12.0655 9.71738 12.0657ZM18.7502 7.13442H11.1002C10.5756 7.13442 10.0724 6.92601 9.70145 6.55504C9.33048 6.18407 9.12207 5.68093 9.12207 5.1563V4.73911C9.12331 4.21486 9.33212 3.71244 9.70282 3.34173C10.0735 2.97103 10.5759 2.76222 11.1002 2.76099H18.7502C19.2749 2.76222 19.7778 2.97087 20.1492 3.34144C20.5207 3.71201 20.7305 4.21443 20.733 4.73911V5.1563C20.7318 5.68136 20.5223 6.18449 20.1506 6.55533C19.7789 6.92617 19.2753 7.13443 18.7502 7.13442ZM11.1002 3.67036C10.8163 3.67036 10.544 3.78281 10.3428 3.9831C10.1416 4.1834 10.028 4.45523 10.0268 4.73911V5.1563C10.028 5.44061 10.1415 5.71293 10.3425 5.91397C10.5436 6.11501 10.8159 6.2285 11.1002 6.22974H18.7502C18.8926 6.23159 19.0339 6.20524 19.166 6.15218C19.2981 6.09913 19.4184 6.02043 19.52 5.92062C19.6215 5.82082 19.7023 5.7019 19.7576 5.57071C19.813 5.43952 19.8418 5.29868 19.8424 5.1563V4.73911C19.8418 4.59695 19.813 4.45632 19.7576 4.32539C19.7022 4.19446 19.6213 4.07584 19.5197 3.97641C19.4181 3.87698 19.2978 3.79873 19.1657 3.74619C19.0336 3.69365 18.8923 3.66788 18.7502 3.67036H11.1002Z" fill="#0074CC"/>
<path d="M17.3437 3.30467C17.2193 3.30467 17.1001 3.25528 17.0122 3.16738C16.9243 3.07947 16.8749 2.96024 16.8749 2.83592C16.8749 2.32123 16.6704 1.82763 16.3065 1.46369C15.9426 1.09975 15.449 0.895295 14.9343 0.895295C14.4196 0.895295 13.926 1.09975 13.5621 1.46369C13.1981 1.82763 12.9937 2.32123 12.9937 2.83592C13.0126 2.90544 13.0152 2.97838 13.0013 3.04907C12.9874 3.11977 12.9575 3.18631 12.9137 3.24355C12.87 3.30078 12.8136 3.34715 12.749 3.37907C12.6844 3.411 12.6134 3.4276 12.5413 3.4276C12.4693 3.4276 12.3982 3.411 12.3336 3.37907C12.269 3.34715 12.2127 3.30078 12.1689 3.24355C12.1252 3.18631 12.0952 3.11977 12.0813 3.04907C12.0675 2.97838 12.0701 2.90544 12.089 2.83592C12.0734 2.45224 12.1355 2.06937 12.2716 1.7103C12.4077 1.35123 12.615 1.02336 12.8809 0.746386C13.1469 0.46941 13.4661 0.249037 13.8193 0.0984985C14.1726 -0.0520399 14.5526 -0.129639 14.9366 -0.129639C15.3206 -0.129639 15.7007 -0.0520399 16.0539 0.0984985C16.4072 0.249037 16.7264 0.46941 16.9923 0.746386C17.2583 1.02336 17.4655 1.35123 17.6016 1.7103C17.7377 2.06937 17.7999 2.45224 17.7843 2.83592C17.7845 2.95552 17.739 3.07067 17.6571 3.15782C17.5752 3.24496 17.463 3.29749 17.3437 3.30467ZM21.853 10.4437H14.728C14.6585 10.4626 14.5856 10.4652 14.5149 10.4514C14.4442 10.4375 14.3776 10.4075 14.3204 10.3638C14.2632 10.32 14.2168 10.2637 14.1849 10.1991C14.153 10.1345 14.1364 10.0634 14.1364 9.99139C14.1364 9.91935 14.153 9.84828 14.1849 9.78369C14.2168 9.71911 14.2632 9.66275 14.3204 9.619C14.3776 9.57524 14.4442 9.54527 14.5149 9.5314C14.5856 9.51754 14.6585 9.52015 14.728 9.53905H21.853C21.9226 9.52015 21.9955 9.51754 22.0662 9.5314C22.1369 9.54527 22.2034 9.57524 22.2607 9.619C22.3179 9.66275 22.3643 9.71911 22.3962 9.78369C22.4281 9.84828 22.4447 9.91935 22.4447 9.99139C22.4447 10.0634 22.4281 10.1345 22.3962 10.1991C22.3643 10.2637 22.3179 10.32 22.2607 10.3638C22.2034 10.4075 22.1369 10.4375 22.0662 10.4514C21.9955 10.4652 21.9226 10.4626 21.853 10.4437ZM18.2812 12.5109H14.7187C14.6173 12.4855 14.5273 12.427 14.4631 12.3446C14.3988 12.2622 14.3639 12.1607 14.3639 12.0562C14.3639 11.9517 14.3988 11.8502 14.4631 11.7679C14.5273 11.6855 14.6173 11.6269 14.7187 11.6015H18.2812C18.3503 11.5842 18.4224 11.5829 18.4922 11.5976C18.5619 11.6124 18.6273 11.6428 18.6835 11.6867C18.7397 11.7305 18.7851 11.7866 18.8164 11.8506C18.8476 11.9147 18.8639 11.985 18.8639 12.0562C18.8639 12.1275 18.8476 12.1978 18.8164 12.2618C18.7851 12.3259 18.7397 12.382 18.6835 12.4258C18.6273 12.4696 18.5619 12.5001 18.4922 12.5148C18.4224 12.5296 18.3503 12.5282 18.2812 12.5109ZM21.853 17.1937H14.728C14.6585 17.2126 14.5856 17.2152 14.5149 17.2014C14.4442 17.1875 14.3776 17.1575 14.3204 17.1138C14.2632 17.07 14.2168 17.0137 14.1849 16.9491C14.153 16.8845 14.1364 16.8134 14.1364 16.7414C14.1364 16.6693 14.153 16.5983 14.1849 16.5337C14.2168 16.4691 14.2632 16.4128 14.3204 16.369C14.3776 16.3252 14.4442 16.2953 14.5149 16.2814C14.5856 16.2675 14.6585 16.2702 14.728 16.289H21.853C21.9226 16.2702 21.9955 16.2675 22.0662 16.2814C22.1369 16.2953 22.2034 16.3252 22.2607 16.369C22.3179 16.4128 22.3643 16.4691 22.3962 16.5337C22.4281 16.5983 22.4447 16.6693 22.4447 16.7414C22.4447 16.8134 22.4281 16.8845 22.3962 16.9491C22.3643 17.0137 22.3179 17.07 22.2607 17.1138C22.2034 17.1575 22.1369 17.1875 22.0662 17.2014C21.9955 17.2152 21.9226 17.2126 21.853 17.1937ZM18.2812 19.2609H14.7187C14.6495 19.2782 14.5774 19.2796 14.5077 19.2648C14.4379 19.2501 14.3725 19.2196 14.3163 19.1758C14.2602 19.132 14.2147 19.0759 14.1835 19.0118C14.1522 18.9478 14.136 18.8775 14.136 18.8062C14.136 18.735 14.1522 18.6647 14.1835 18.6006C14.2147 18.5366 14.2602 18.4805 14.3163 18.4367C14.3725 18.3928 14.4379 18.3624 14.5077 18.3476C14.5774 18.3329 14.6495 18.3342 14.7187 18.3515H18.2812C18.3825 18.3769 18.4725 18.4355 18.5368 18.5179C18.601 18.6002 18.636 18.7017 18.636 18.8062C18.636 18.9107 18.601 19.0122 18.5368 19.0946C18.4725 19.177 18.3825 19.2355 18.2812 19.2609ZM21.853 23.9437H14.728C14.6585 23.9626 14.5856 23.9652 14.5149 23.9514C14.4442 23.9375 14.3776 23.9075 14.3204 23.8638C14.2632 23.82 14.2168 23.7637 14.1849 23.6991C14.153 23.6345 14.1364 23.5634 14.1364 23.4914C14.1364 23.4193 14.153 23.3483 14.1849 23.2837C14.2168 23.2191 14.2632 23.1628 14.3204 23.119C14.3776 23.0752 14.4442 23.0453 14.5149 23.0314C14.5856 23.0175 14.6585 23.0202 14.728 23.039H21.853C21.9226 23.0202 21.9955 23.0175 22.0662 23.0314C22.1369 23.0453 22.2034 23.0752 22.2607 23.119C22.3179 23.1628 22.3643 23.2191 22.3962 23.2837C22.4281 23.3483 22.4447 23.4193 22.4447 23.4914C22.4447 23.5634 22.4281 23.6345 22.3962 23.6991C22.3643 23.7637 22.3179 23.82 22.2607 23.8638C22.2034 23.9075 22.1369 23.9375 22.0662 23.9514C21.9955 23.9652 21.9226 23.9626 21.853 23.9437ZM18.2812 26.0109H14.7187C14.6173 25.9855 14.5273 25.927 14.4631 25.8446C14.3988 25.7622 14.3639 25.6607 14.3639 25.5562C14.3639 25.4517 14.3988 25.3502 14.4631 25.2679C14.5273 25.1855 14.6173 25.1269 14.7187 25.1015H18.2812C18.3503 25.0842 18.4224 25.0829 18.4922 25.0976C18.5619 25.1124 18.6273 25.1428 18.6835 25.1867C18.7397 25.2305 18.7851 25.2866 18.8164 25.3506C18.8476 25.4147 18.8639 25.485 18.8639 25.5562C18.8639 25.6275 18.8476 25.6978 18.8164 25.7618C18.7851 25.8259 18.7397 25.882 18.6835 25.9258C18.6273 25.9696 18.5619 26.0001 18.4922 26.0148C18.4224 26.0296 18.3503 26.0282 18.2812 26.0109ZM9.88585 18.7875C9.76613 18.7845 9.65208 18.7359 9.5671 18.6515L8.95303 18.0422C8.9 17.9526 8.87827 17.848 8.89129 17.7447C8.9043 17.6414 8.95131 17.5454 9.0249 17.4719C9.0985 17.3983 9.19449 17.3512 9.29775 17.3382C9.40101 17.3252 9.50567 17.3469 9.59522 17.4L9.88585 17.6906L10.9077 16.6687C10.9973 16.6157 11.1019 16.594 11.2052 16.607C11.3085 16.62 11.4044 16.667 11.478 16.7406C11.5516 16.8142 11.5986 16.9102 11.6117 17.0135C11.6247 17.1167 11.6029 17.2214 11.5499 17.3109L10.2093 18.6515C10.1231 18.737 10.0072 18.7857 9.88585 18.7875ZM9.88585 25.4062C9.82662 25.4069 9.76787 25.3956 9.7131 25.3731C9.65834 25.3505 9.60868 25.3172 9.5671 25.275L8.95303 24.6609C8.89155 24.6245 8.8392 24.5745 8.79999 24.5148C8.76078 24.455 8.73576 24.3871 8.72682 24.3162C8.71789 24.2453 8.72528 24.1733 8.74844 24.1057C8.7716 24.0381 8.80991 23.9767 8.86044 23.9261C8.91097 23.8756 8.97239 23.8373 9.03999 23.8141C9.1076 23.791 9.1796 23.7836 9.2505 23.7925C9.3214 23.8015 9.38932 23.8265 9.44907 23.8657C9.50881 23.9049 9.55881 23.9572 9.59522 24.0187L9.88585 24.3094L10.9077 23.2875C10.9441 23.226 10.9941 23.1736 11.0539 23.1344C11.1136 23.0952 11.1815 23.0702 11.2524 23.0613C11.3233 23.0523 11.3953 23.0597 11.463 23.0829C11.5306 23.1061 11.592 23.1444 11.6425 23.1949C11.693 23.2454 11.7313 23.3068 11.7545 23.3744C11.7777 23.442 11.7851 23.5141 11.7761 23.585C11.7672 23.6559 11.7422 23.7238 11.703 23.7835C11.6637 23.8433 11.6114 23.8933 11.5499 23.9297L10.2093 25.275C10.1224 25.3587 10.0065 25.4058 9.88585 25.4062Z" fill="#0074CC"/>
</g>
<defs>
<clipPath id="clip0_204_210">
<rect width="30" height="30" fill="white"/>
</clipPath>
</defs>
</svg>
