<svg width="24" height="24" viewBox="0 0 24 24" fill="none" xmlns="http://www.w3.org/2000/svg">
<path d="M11.9237 22C11.8909 22 11.859 21.9991 11.8271 21.9973C11.2927 21.9468 10.7829 21.7368 10.3576 21.3919C9.45301 20.7502 8.57 20.0753 7.71015 19.3685C6.58143 19.537 5.58298 19.1221 5.18335 18.3061C5.03032 17.9831 4.97112 17.6197 5.01316 17.2614C5.02377 17.1522 5.07241 17.0511 5.14964 16.9776C5.22688 16.904 5.32724 16.8634 5.43128 16.8634H6.68985C7.36572 16.8809 8.03461 16.7158 8.63296 16.3838C8.79016 16.2961 8.94151 16.1972 9.08596 16.0877C8.9807 16.1131 8.87459 16.1344 8.76785 16.1515C8.51857 16.2111 8.26071 16.2193 8.00851 16.1755C7.74422 16.1115 7.49543 15.9903 7.2779 15.8195C7.06038 15.6488 6.87887 15.4322 6.7449 15.1835C6.67705 15.0699 6.63469 14.9415 6.62108 14.8079C6.60746 14.6744 6.62293 14.5394 6.66632 14.4132C6.81087 14.04 7.14411 14.0063 7.41179 13.9788C7.68208 13.9564 7.94956 13.9055 8.21022 13.8268C8.51253 13.7309 8.80953 13.6172 9.09983 13.4864C9.36961 13.3703 9.64906 13.2501 9.9617 13.1517C10.1968 13.0795 10.4385 13.0336 10.6828 13.0148C11.2295 12.9729 11.779 13.0201 12.312 13.1548C12.5473 13.2054 12.7377 13.2546 12.8793 13.2936C13.0293 13.3344 13.0919 13.3556 13.1604 13.3778L13.2294 13.4C13.2966 13.4217 13.35 13.4363 13.3718 13.4425C13.7264 13.5569 14.0745 13.6926 14.4144 13.849C14.9666 14.1254 15.4956 14.4507 15.9957 14.8214C16.348 15.0569 16.7144 15.2681 17.0925 15.4539C18.1989 15.9934 19.3907 16.3115 20.6072 16.3918C20.6739 16.3964 20.7386 16.4177 20.7959 16.454C20.8532 16.4902 20.9015 16.5404 20.9368 16.6003C20.972 16.6602 20.9932 16.7281 20.9986 16.7983C21.004 16.8686 20.9934 16.9392 20.9678 17.0043C20.3687 18.528 19.3938 19.8548 18.1443 20.8467C18.0916 20.8885 18.0304 20.9167 17.9655 20.929C17.9006 20.9412 17.8339 20.9372 17.7707 20.9172L15.4536 20.1841C14.9287 20.5835 14.3814 20.9491 13.8147 21.2789C12.8167 21.8591 12.3179 22 11.9237 22ZM7.82235 18.4564C7.91649 18.4563 8.00794 18.4895 8.08205 18.5508C8.97169 19.2876 9.88671 19.9897 10.8253 20.6557C11.1258 20.9102 11.4892 21.0686 11.8725 21.1122C12.0183 21.1224 12.3166 21.1375 13.4096 20.5028C14.0051 20.1559 14.5778 19.7675 15.1241 19.3402C15.1766 19.2991 15.2374 19.2716 15.3018 19.2597C15.3661 19.2477 15.4322 19.2518 15.4948 19.2715L17.8052 20.0028C18.7037 19.2497 19.4359 18.2993 19.9508 17.2175C18.8383 17.0787 17.7537 16.7547 16.7374 16.2575C16.3193 16.052 15.9146 15.8176 15.5259 15.5558C15.0645 15.2144 14.5772 14.9138 14.069 14.657C13.7732 14.5218 13.4709 14.4032 13.1634 14.3015C13.1293 14.2917 13.0676 14.2749 12.9881 14.2496L12.9091 14.2239C12.8503 14.2044 12.7969 14.1867 12.6679 14.1512C12.5377 14.1158 12.3612 14.0706 12.1439 14.0236C11.6888 13.9069 11.2194 13.8648 10.7521 13.8986C10.5661 13.9121 10.382 13.9464 10.2029 14.001C9.92851 14.0874 9.67973 14.1942 9.41625 14.3073C9.09823 14.4504 8.7729 14.5747 8.44176 14.6796C8.14695 14.769 7.84469 14.8284 7.53912 14.8569C7.69808 15.0792 7.92385 15.2381 8.17954 15.3076C8.33365 15.3264 8.48971 15.3154 8.6401 15.2753C8.94193 15.2262 9.23644 15.1361 9.51627 15.0071C9.80184 14.8734 10.1044 14.7842 10.4143 14.7425L10.4214 14.7416C10.7136 14.7068 11.0081 14.6998 11.3014 14.7208C11.3951 14.7279 11.4711 14.7359 11.5212 14.7421C11.6319 14.7557 11.7329 14.8152 11.8021 14.9074C11.8712 14.9996 11.9028 15.117 11.8899 15.2338C11.877 15.3506 11.8206 15.4572 11.7331 15.5301C11.6457 15.6031 11.5344 15.6364 11.4237 15.6228C11.3636 15.6154 11.3033 15.6095 11.243 15.605C11.0633 15.5921 10.8831 15.592 10.7034 15.6046C10.2526 16.2844 9.64929 16.8361 8.94733 17.2104C8.24537 17.5847 7.46652 17.77 6.68018 17.7498H5.87504C5.8886 17.8017 5.90719 17.8519 5.93051 17.8997C6.17171 18.393 6.934 18.631 7.74251 18.4643C7.7688 18.4589 7.79555 18.4562 7.82235 18.4564Z" fill="white"/>
<path d="M7.36649 18H2.43243C2.31774 18 2.20775 17.9548 2.12666 17.8745C2.04556 17.7941 2 17.6851 2 17.5714V3.42857C2 3.31491 2.04556 3.2059 2.12666 3.12553C2.20775 3.04515 2.31774 3 2.43243 3H17.5676C17.6823 3 17.7922 3.04515 17.8733 3.12553C17.9544 3.2059 18 3.31491 18 3.42857V4.73143C18 4.84509 17.9544 4.9541 17.8733 5.03447C17.7922 5.11485 17.6823 5.16 17.5676 5.16C17.4529 5.16 17.3429 5.11485 17.2618 5.03447C17.1807 4.9541 17.1351 4.84509 17.1351 4.73143V3.85714H2.86486V17.1429H7.36649C7.48117 17.1429 7.59117 17.188 7.67226 17.2684C7.75336 17.3488 7.79892 17.4578 7.79892 17.5714C7.79892 17.6851 7.75336 17.7941 7.67226 17.8745C7.59117 17.9548 7.48117 18 7.36649 18ZM17.5676 16.7657C17.4529 16.7657 17.3429 16.7206 17.2618 16.6402C17.1807 16.5598 17.1351 16.4508 17.1351 16.3371V14.9829C17.1351 14.8692 17.1807 14.7602 17.2618 14.6798C17.3429 14.5994 17.4529 14.5543 17.5676 14.5543C17.6823 14.5543 17.7922 14.5994 17.8733 14.6798C17.9544 14.7602 18 14.8692 18 14.9829V16.3371C18 16.4508 17.9544 16.5598 17.8733 16.6402C17.7922 16.7206 17.6823 16.7657 17.5676 16.7657Z" fill="white"/>
<path d="M11.8769 7.4H8.43077C8.31652 7.4 8.20695 7.35364 8.12617 7.27113C8.04538 7.18861 8 7.0767 8 6.96V3.44C8 3.3233 8.04538 3.21139 8.12617 3.12887C8.20695 3.04636 8.31652 3 8.43077 3H11.8769C11.9912 3 12.1007 3.04636 12.1815 3.12887C12.2623 3.21139 12.3077 3.3233 12.3077 3.44V6.96C12.3077 7.0767 12.2623 7.18861 12.1815 7.27113C12.1007 7.35364 11.9912 7.4 11.8769 7.4ZM8.86154 6.52H11.4462V3.88H8.86154V6.52ZM18.1231 14C17.3563 14 16.6067 13.7677 15.9692 13.3326C15.3316 12.8975 14.8347 12.279 14.5413 11.5554C14.2478 10.8318 14.1711 10.0356 14.3206 9.26744C14.4702 8.49928 14.8395 7.79367 15.3817 7.23986C15.9239 6.68604 16.6147 6.30889 17.3667 6.15609C18.1188 6.00329 18.8983 6.08171 19.6067 6.38144C20.3151 6.68116 20.9206 7.18872 21.3466 7.83994C21.7726 8.49116 22 9.25679 22 10.04C21.9989 11.0899 21.59 12.0965 20.8632 12.8389C20.1364 13.5812 19.151 13.9988 18.1231 14ZM18.1231 6.96C17.5267 6.96 16.9437 7.14064 16.4478 7.47907C15.9519 7.81751 15.5655 8.29854 15.3372 8.86134C15.109 9.42413 15.0493 10.0434 15.1656 10.6409C15.282 11.2383 15.5692 11.7871 15.9909 12.2179C16.4126 12.6486 16.9499 12.942 17.5348 13.0608C18.1197 13.1797 18.726 13.1187 19.277 12.8855C19.828 12.6524 20.2989 12.2577 20.6303 11.7512C20.9616 11.2447 21.1385 10.6492 21.1385 10.04C21.1375 9.22342 20.8196 8.44055 20.2543 7.86314C19.689 7.28573 18.9225 6.96093 18.1231 6.96Z" fill="white"/>
<path d="M18.1428 11C18.0501 11.0001 17.9598 10.9731 17.8857 10.9231L16.1714 9.76932C16.1264 9.73901 16.0885 9.70105 16.0598 9.65759C16.0311 9.61413 16.0123 9.56603 16.0043 9.51604C15.9963 9.46604 15.9994 9.41512 16.0134 9.3662C16.0274 9.31727 16.0519 9.2713 16.0857 9.23089C16.1195 9.19049 16.1618 9.15645 16.2102 9.13072C16.2586 9.10499 16.3122 9.08807 16.368 9.08092C16.4237 9.07378 16.4804 9.07656 16.5349 9.08909C16.5894 9.10162 16.6407 9.12367 16.6857 9.15398L18.0519 10.0735L21.2246 6.15842C21.2915 6.0759 21.3921 6.02061 21.5044 6.0047C21.6168 5.9888 21.7315 6.01359 21.8235 6.07361C21.9154 6.13364 21.977 6.22399 21.9948 6.32478C22.0125 6.42558 21.9849 6.52856 21.918 6.61108L18.4895 10.8415C18.4497 10.8906 18.3975 10.9305 18.3373 10.958C18.277 10.9856 18.2104 10.9999 18.1428 11Z" fill="white"/>
</svg>
