<svg width="30" height="30" viewBox="0 0 30 30" fill="none" xmlns="http://www.w3.org/2000/svg">
<path d="M14.9999 17.1001C18.1147 17.1001 20.6399 14.575 20.6399 11.4601C20.6399 8.34518 18.1147 5.82007 14.9999 5.82007C11.885 5.82007 9.35986 8.34518 9.35986 11.4601C9.35986 14.575 11.885 17.1001 14.9999 17.1001Z" stroke="#0074CC" stroke-miterlimit="10" stroke-linecap="round" stroke-linejoin="round"/>
<path d="M21.1198 18.96L25.7398 25.92L21.9598 25.26L20.6398 28.98L16.4398 21.18M13.5598 21.18L9.35977 28.98L8.03977 25.26L4.25977 25.92L8.87977 18.96L13.5598 21.18Z" stroke="#0074CC" stroke-miterlimit="10" stroke-linecap="round" stroke-linejoin="round"/>
<path d="M22.9201 13.32C22.8601 13.44 22.8601 13.62 22.8001 13.74L23.2801 14.04C24.1801 14.58 24.4801 15.72 24.0001 16.62C23.4601 17.52 22.3201 17.82 21.4201 17.34L20.9401 17.04C20.8201 17.16 20.7601 17.28 20.6401 17.34L20.9401 17.82C21.4801 18.72 21.1801 19.92 20.2201 20.4C19.3201 20.94 18.1201 20.64 17.6401 19.68L17.3401 19.2C17.2201 19.26 17.0401 19.26 16.9201 19.32V19.86C16.9201 20.94 16.0801 21.78 15.0001 21.78C13.9801 21.78 13.0801 20.94 13.0801 19.86V19.32C12.9601 19.26 12.7801 19.26 12.6601 19.2L12.3601 19.68C11.8201 20.58 10.6801 20.88 9.78012 20.4C8.88012 19.86 8.58012 18.72 9.06012 17.82L9.36012 17.34C9.24012 17.22 9.12012 17.16 9.06012 17.04L8.58012 17.34C7.68012 17.88 6.48012 17.58 6.00012 16.62C5.46012 15.72 5.76012 14.52 6.72012 14.04L7.20012 13.74C7.14012 13.62 7.14012 13.44 7.08012 13.32H6.54012C5.46012 13.32 4.62012 12.48 4.62012 11.4C4.62012 10.38 5.46012 9.48002 6.54012 9.48002H7.08012C7.14012 9.36002 7.14012 9.18002 7.20012 9.06002L6.72012 8.76002C5.82012 8.22002 5.52012 7.08002 6.00012 6.18002C6.54012 5.28002 7.68012 4.98002 8.58012 5.46002L9.06012 5.76002C9.18012 5.64002 9.24012 5.52002 9.36012 5.46002L9.06012 4.98002C8.52012 4.08002 8.82012 2.88002 9.78012 2.40002C10.6801 1.86002 11.8801 2.16002 12.3601 3.12002L12.6601 3.60002C12.7801 3.54002 12.9601 3.54002 13.0801 3.48002V2.94002C13.0801 1.86002 13.9201 1.02002 15.0001 1.02002C16.0201 1.02002 16.9201 1.86002 16.9201 2.94002V3.48002C17.0401 3.54002 17.1601 3.60002 17.3401 3.60002L17.6401 3.12002C18.1801 2.22002 19.3201 1.92002 20.2201 2.40002C21.1201 2.94002 21.4201 4.08002 20.9401 4.98002L20.6401 5.46002C20.7601 5.58002 20.8801 5.64002 20.9401 5.76002L21.4201 5.46002C22.3201 4.92002 23.5201 5.22002 24.0001 6.18002C24.5401 7.08002 24.2401 8.28002 23.2801 8.76002L22.8001 9.06002C22.8601 9.18002 22.8601 9.36002 22.9201 9.48002H23.4601C24.5401 9.48002 25.3801 10.32 25.3801 11.4C25.3801 12.42 24.5401 13.32 23.4601 13.32H22.9201Z" stroke="#0074CC" stroke-miterlimit="10" stroke-linecap="round" stroke-linejoin="round"/>
<path d="M12.48 11.9401L13.86 13.2601L17.52 9.6001" stroke="#0074CC" stroke-miterlimit="10" stroke-linecap="round" stroke-linejoin="round"/>
</svg>
