<svg width="18" height="18" viewBox="0 0 18 18" fill="none" xmlns="http://www.w3.org/2000/svg">
<path d="M12.6131 13.3889C11.449 14.5527 9.87035 15.2067 8.22423 15.2069C4.81913 15.2069 2.01733 12.4051 2.01733 8.99999C2.01733 5.59488 4.81913 2.79309 8.22423 2.79309C11.6293 2.79309 14.4311 5.59488 14.4311 8.99999" stroke="#0074CC" stroke-miterlimit="10"/>
<path d="M13.1345 7.65622H15.7271C15.7722 7.65606 15.8165 7.6679 15.8556 7.69051C15.8946 7.71313 15.9269 7.74572 15.9492 7.78494C15.9715 7.82416 15.983 7.86861 15.9825 7.91372C15.9819 7.95883 15.9694 8.00299 15.9462 8.04167L14.6496 10.2197C14.6271 10.2578 14.595 10.2893 14.5566 10.3113C14.5182 10.3332 14.4747 10.3447 14.4305 10.3447C14.3862 10.3447 14.3428 10.3332 14.3043 10.3113C14.2659 10.2893 14.2339 10.2578 14.2114 10.2197L12.9147 8.04167C12.8919 8.00288 12.8797 7.95874 12.8794 7.91373C12.8791 7.86871 12.8907 7.82441 12.913 7.7853C12.9353 7.74619 12.9675 7.71366 13.0064 7.691C13.0453 7.66833 13.0894 7.65634 13.1345 7.65622Z" fill="#0074CC"/>
<path d="M12.6131 13.3889C11.449 14.5527 9.87035 15.2067 8.22423 15.2069C4.81913 15.2069 2.01733 12.4051 2.01733 8.99999C2.01733 5.59488 4.81913 2.79309 8.22423 2.79309C11.6293 2.79309 14.4311 5.59488 14.4311 8.99999" stroke="#0074CC" stroke-miterlimit="10"/>
<path d="M13.1345 7.65622H15.7271C15.7722 7.65606 15.8165 7.6679 15.8556 7.69051C15.8946 7.71313 15.9269 7.74572 15.9492 7.78494C15.9715 7.82416 15.983 7.86861 15.9825 7.91372C15.9819 7.95883 15.9694 8.00299 15.9462 8.04167L14.6496 10.2197C14.6271 10.2578 14.595 10.2893 14.5566 10.3113C14.5182 10.3332 14.4747 10.3447 14.4305 10.3447C14.3862 10.3447 14.3428 10.3332 14.3043 10.3113C14.2659 10.2893 14.2339 10.2578 14.2114 10.2197L12.9147 8.04167C12.8919 8.00288 12.8797 7.95874 12.8794 7.91373C12.8791 7.86871 12.8907 7.82441 12.913 7.7853C12.9353 7.74619 12.9675 7.71366 13.0064 7.691C13.0453 7.66833 13.0894 7.65634 13.1345 7.65622Z" fill="#0074CC"/>
</svg>
