<svg width="24" height="24" viewBox="0 0 24 24" fill="none" xmlns="http://www.w3.org/2000/svg">
<path d="M6.66578 19.8694V20.6252H19.4655V5.20289H18.3652V4.4541H20.2179V21.374H5.91699V19.8694H6.66578Z" fill="white"/>
<path d="M17.2503 3.37489H4.49977V18.748H17.2503V3.37489ZM4.12361 2.6261H17.9991V19.5003H3.75098V2.6261H4.12361Z" fill="white"/>
<path d="M6.75001 5.24854H15.0008V6.00084H6.75001V5.24854ZM6.75001 14.2481H15.0008V15.0004H6.75001V14.2481ZM6.75001 16.498H15.0008V17.2503H6.75001V16.498ZM7.12616 8.62337C7.42434 8.62055 7.71655 8.70702 7.96517 8.87165C8.2138 9.03628 8.40747 9.27155 8.52128 9.54717C8.63508 9.82279 8.6638 10.1262 8.60375 10.4182C8.5437 10.7103 8.39763 10.9778 8.18432 11.1861C7.97553 11.3984 7.70808 11.5435 7.41627 11.6027C7.12446 11.662 6.82161 11.6327 6.54658 11.5186C6.27155 11.4045 6.03688 11.2108 5.87269 10.9624C5.70849 10.714 5.62226 10.4222 5.62507 10.1245C5.62414 9.92708 5.66233 9.73147 5.73743 9.54892C5.81254 9.36638 5.92308 9.20053 6.06265 9.06096C6.20223 8.92138 6.36808 8.81085 6.55062 8.73574C6.73316 8.66063 6.92878 8.62244 7.12616 8.62337ZM7.65348 9.59364C7.54875 9.48836 7.41509 9.41661 7.26948 9.38749C7.12387 9.35837 6.97289 9.3732 6.83573 9.4301C6.69857 9.487 6.58142 9.5834 6.49918 9.70704C6.41694 9.83068 6.37332 9.97598 6.37386 10.1245C6.37331 10.2734 6.41718 10.4191 6.49986 10.543C6.58254 10.6668 6.70027 10.7632 6.83802 10.8198C6.97576 10.8764 7.12726 10.8907 7.27314 10.8607C7.41903 10.8308 7.55267 10.7581 7.657 10.6518C7.79611 10.5115 7.87416 10.322 7.87416 10.1245C7.87416 9.92693 7.79611 9.7374 7.657 9.59715L7.65348 9.59364ZM10.8736 10.5006C11.1714 10.4978 11.4632 10.584 11.7116 10.7482C11.96 10.9124 12.1536 11.1471 12.2677 11.4221C12.3818 11.6972 12.4111 12 12.3519 12.2918C12.2927 12.5836 12.1476 12.8511 11.9353 13.0599C11.7265 13.2722 11.4591 13.4172 11.1673 13.4765C10.8755 13.5357 10.5726 13.5064 10.2976 13.3923C10.0225 13.2782 9.78787 13.0845 9.62367 12.8361C9.45948 12.5877 9.37325 12.296 9.37605 11.9982C9.37559 11.8014 9.41401 11.6065 9.48911 11.4246C9.5642 11.2427 9.6745 11.0774 9.81365 10.9382C9.95281 10.7991 10.1181 10.6888 10.3 10.6137C10.4819 10.5386 10.6768 10.5002 10.8736 10.5006ZM11.4045 11.4674C11.2997 11.3621 11.1661 11.2903 11.0205 11.2612C10.8749 11.2321 10.7239 11.2469 10.5867 11.3038C10.4496 11.3607 10.3324 11.4571 10.2502 11.5808C10.1679 11.7044 10.1243 11.8497 10.1248 11.9982C10.1243 12.1467 10.1679 12.292 10.2502 12.4156C10.3324 12.5393 10.4496 12.6357 10.5867 12.6926C10.7239 12.7495 10.8749 12.7643 11.0205 12.7352C11.1661 12.7061 11.2997 12.6343 11.4045 12.529C11.4744 12.4595 11.5299 12.3767 11.5678 12.2856C11.6057 12.1945 11.6251 12.0969 11.6251 11.9982C11.6251 11.8995 11.6057 11.8019 11.5678 11.7108C11.5299 11.6197 11.4744 11.537 11.4045 11.4674ZM14.6246 7.49842C14.9231 7.49489 15.2158 7.58085 15.465 7.74521C15.7142 7.90957 15.9084 8.1448 16.0226 8.42057C16.1369 8.69634 16.1659 9.00002 16.1059 9.29243C16.046 9.58485 15.8998 9.85261 15.6863 10.0612C15.4777 10.2747 15.21 10.4209 14.9175 10.4808C14.6251 10.5408 14.3214 10.5118 14.0457 10.3975C13.7699 10.2833 13.5347 10.089 13.3703 9.83987C13.2059 9.5907 13.12 9.298 13.1235 8.99952C13.1226 8.80214 13.1608 8.60652 13.2359 8.42398C13.311 8.24144 13.4215 8.07559 13.5611 7.93601C13.7007 7.79644 13.8665 7.6859 14.0491 7.61079C14.2316 7.53569 14.4272 7.49749 14.6246 7.49842ZM15.1519 8.46869C15.047 8.36463 14.9137 8.29393 14.7687 8.26551C14.6237 8.23708 14.4735 8.2522 14.337 8.30895C14.2006 8.36571 14.084 8.46156 14.0019 8.58445C13.9199 8.70733 13.876 8.85175 13.8758 8.99952C13.876 9.14772 13.9201 9.29253 14.0026 9.41563C14.0851 9.53873 14.2023 9.63458 14.3393 9.69104C14.4763 9.7475 14.627 9.76204 14.7723 9.73281C14.9176 9.70358 15.0509 9.6319 15.1555 9.52684C15.2946 9.3866 15.3726 9.19706 15.3726 8.99952C15.3726 8.80199 15.2946 8.61245 15.1555 8.47221L15.1519 8.46869Z" fill="white"/>
<path d="M8.06834 10.1807L9.99129 11.3549L9.60459 11.9947L7.68164 10.8205L8.06834 10.1807ZM14.3223 9.82566L12.0549 11.6783L11.5838 11.0982L13.8513 9.24561L14.3223 9.82566Z" fill="white"/>
</svg>
