<svg width="30" height="30" viewBox="0 0 30 30" fill="none" xmlns="http://www.w3.org/2000/svg">
<path d="M26.6258 21.9558L24.1325 14.7274C23.9486 14.1942 23.5307 13.8046 22.9858 13.6586L18.0371 12.3326V11.3227C18.3385 11.0435 18.6249 10.7201 18.8921 10.3543C19.8311 9.0692 20.3917 7.41346 20.3917 5.92512V2.74482C20.3917 1.23135 19.1604 0 17.6469 0H12.6037C11.0902 0 9.85886 1.23135 9.85886 2.74482V5.92512C9.85886 7.4134 10.4194 9.0692 11.3584 10.3543C11.5506 10.6172 11.7527 10.8583 11.963 11.0769V12.3325L7.01425 13.6586C6.46938 13.8046 6.05137 14.1941 5.86757 14.7273L3.37428 21.9558C3.22171 22.398 3.23987 22.8098 3.42819 23.1794L6.28798 28.7933C6.67282 29.5489 7.40888 30 8.2569 30H21.7432C22.5912 30 23.3272 29.5489 23.7121 28.7933L26.572 23.1794C26.7603 22.8097 26.7784 22.398 26.6258 21.9558ZM10.7964 3.59297H19.4542V3.92631C19.4542 4.24793 19.1926 4.50955 18.871 4.50955H11.3795C11.058 4.50955 10.7964 4.24793 10.7964 3.92631V3.59297ZM12.6037 0.9375H17.6469C18.6135 0.9375 19.4052 1.70027 19.4519 2.65547H10.7986C10.8453 1.70027 11.6371 0.9375 12.6037 0.9375ZM10.7964 5.92518V5.33063C10.9761 5.40557 11.173 5.44711 11.3795 5.44711H18.871C19.0775 5.44711 19.2745 5.40557 19.4542 5.33063V5.92512C19.4542 7.2218 18.961 8.67082 18.1351 9.80121C17.2837 10.9665 16.1866 11.6347 15.1252 11.6347C14.0638 11.6347 12.9667 10.9665 12.1154 9.80121C11.2895 8.67088 10.7964 7.22186 10.7964 5.92518ZM12.5531 13.145C12.758 13.0901 12.9005 12.9044 12.9005 12.6922V11.8654C13.5995 12.3281 14.3552 12.5723 15.1253 12.5723C15.8042 12.5723 16.472 12.3823 17.0996 12.0203V12.6923C17.0996 12.9045 17.2421 13.0901 17.447 13.1451L19.2194 13.62C18.9283 14.9774 17.1394 16.0297 15.0001 16.0297C12.8608 16.0297 11.0719 14.9774 10.7809 13.62L12.5531 13.145ZM13.6665 18.6342H16.3336V21.6166H13.6665V18.6342ZM13.1977 22.5541H16.8024C17.0613 22.5541 17.2711 22.3443 17.2711 22.0854V18.6342H20.788C21.1921 18.6342 21.5208 18.9629 21.5208 19.3669V29.0625H21.1123V28.6245C21.1123 27.866 20.4953 27.249 19.7368 27.249H18.3061C17.5477 27.249 16.9307 27.866 16.9307 28.6245V29.0625H13.0695V28.6245C13.0695 27.866 12.4524 27.249 11.694 27.249H10.2633C9.50483 27.249 8.88778 27.866 8.88778 28.6245V29.0625H8.47932V19.3669C8.47932 18.9629 8.80803 18.6342 9.2121 18.6342H12.729V22.0854C12.729 22.3443 12.9388 22.5541 13.1977 22.5541ZM20.1748 29.0625H17.8682V28.6245C17.8682 28.3829 18.0647 28.1865 18.3061 28.1865H19.7368C19.9783 28.1865 20.1748 28.3829 20.1748 28.6245V29.0625H20.1748ZM12.132 29.0625H9.82534V28.6245C9.82534 28.3829 10.0219 28.1865 10.2633 28.1865H11.694C11.9355 28.1865 12.1321 28.3829 12.1321 28.6245V29.0625H12.132ZM25.7366 22.7539L22.8767 28.3678C22.7736 28.5704 22.6304 28.7327 22.4582 28.8497V19.3669C22.4582 18.446 21.7089 17.6967 20.7879 17.6967H9.21216C8.29118 17.6967 7.54188 18.446 7.54188 19.3669V28.8497C7.36968 28.7327 7.22647 28.5703 7.12323 28.3678L4.26345 22.7538C4.21921 22.667 4.17081 22.5215 4.26046 22.2614L6.75374 15.033C6.83682 14.7922 7.01079 14.6301 7.25682 14.5642L9.87345 13.863C10.0575 14.6571 10.5876 15.3804 11.4096 15.9417C12.3779 16.6029 13.653 16.9671 15 16.9671C16.3469 16.9671 17.6221 16.6029 18.5904 15.9417C19.4124 15.3804 19.9425 14.6571 20.1265 13.863L22.7432 14.5642C22.9892 14.6301 23.1632 14.7922 23.2462 15.033L25.7395 22.2614C25.8292 22.5215 25.7808 22.6671 25.7366 22.7539ZM13.5366 8.60432C13.7955 8.60432 14.0054 8.8142 14.0054 9.07307C14.0054 9.27633 14.452 9.58365 15.1252 9.58365C15.8086 9.58365 16.2382 9.27738 16.2453 9.05783C16.2538 8.79908 16.4693 8.59564 16.7291 8.60455C16.9878 8.61293 17.1908 8.82949 17.1824 9.08824C17.1558 9.90516 16.2715 10.5212 15.1252 10.5212C13.9715 10.5212 13.0679 9.88506 13.0679 9.07307C13.0679 8.8142 13.2777 8.60432 13.5366 8.60432ZM16.5272 6.58131C16.5272 6.27686 16.774 6.03 17.0785 6.03C17.3829 6.03 17.6298 6.27686 17.6298 6.58131C17.6298 6.88576 17.383 7.13262 17.0785 7.13262C16.774 7.13262 16.5272 6.88576 16.5272 6.58131ZM12.6208 6.58131C12.6208 6.27686 12.8676 6.03 13.1721 6.03C13.4766 6.03 13.7234 6.27686 13.7234 6.58131C13.7234 6.88576 13.4766 7.13262 13.1721 7.13262C12.8676 7.13262 12.6208 6.88576 12.6208 6.58131Z" fill="#0074CC"/>
</svg>
