<svg width="30" height="30" viewBox="0 0 30 30" fill="none" xmlns="http://www.w3.org/2000/svg">
<circle cx="15" cy="15" r="15" fill="#DBEFFF"/>
<g clip-path="url(#clip0_744_14474)">
<path d="M14.9999 5.87988C9.95988 5.87988 5.87988 9.95988 5.87988 14.9999C5.87988 20.0399 9.95988 24.1199 14.9999 24.1199C20.0399 24.1199 24.1199 20.0399 24.1199 14.9999C24.1199 9.95988 20.0399 5.87988 14.9999 5.87988ZM14.9999 23.1599C10.4879 23.1599 6.83988 19.5119 6.83988 14.9999C6.83988 10.4879 10.4879 6.83988 14.9999 6.83988C19.5119 6.83988 23.1599 10.4879 23.1599 14.9999C23.1599 19.5119 19.5119 23.1599 14.9999 23.1599ZM19.6799 14.9999C19.6799 15.2639 19.4639 15.4799 19.1999 15.4799H10.7999C10.5359 15.4799 10.3199 15.2639 10.3199 14.9999C10.3199 14.7359 10.5359 14.5199 10.7999 14.5199H19.1999C19.4639 14.5199 19.6799 14.7359 19.6799 14.9999ZM19.6799 17.8799C19.6799 18.1439 19.4639 18.3599 19.1999 18.3599H10.7999C10.5359 18.3599 10.3199 18.1439 10.3199 17.8799C10.3199 17.6159 10.5359 17.3999 10.7999 17.3999H19.1999C19.4639 17.3999 19.6799 17.6159 19.6799 17.8799ZM19.6799 12.1199C19.6799 12.3839 19.4639 12.5999 19.1999 12.5999H10.7999C10.5359 12.5999 10.3199 12.3839 10.3199 12.1199C10.3199 11.8559 10.5359 11.6399 10.7999 11.6399H19.1999C19.4639 11.6399 19.6799 11.8559 19.6799 12.1199Z" fill="#0074CC"/>
<path d="M95.1601 -287.4V116.76H-333V-287.4H95.1601ZM97.0801 -289.32H-334.92V118.68H97.0801V-289.32Z" fill="#0000FF"/>
</g>
<defs>
<clipPath id="clip0_744_14474">
<rect width="24" height="24" fill="white" transform="translate(3 3)"/>
</clipPath>
</defs>
</svg>
