<svg width="30" height="30" viewBox="0 0 30 30" fill="none" xmlns="http://www.w3.org/2000/svg">
<g clip-path="url(#clip0_204_183)">
<path d="M23.3002 6.69984C23.2123 6.61197 23.093 6.5626 22.9688 6.5626C22.8445 6.5626 22.7252 6.61197 22.6373 6.69984L18.8873 10.4498C18.8426 10.4931 18.8069 10.5448 18.7823 10.602C18.7577 10.6592 18.7448 10.7207 18.7443 10.7829C18.7437 10.8452 18.7556 10.9069 18.7791 10.9645C18.8027 11.0221 18.8375 11.0745 18.8815 11.1185C18.9255 11.1625 18.9779 11.1973 19.0355 11.2209C19.0931 11.2444 19.1548 11.2563 19.2171 11.2557C19.2793 11.2552 19.3408 11.2423 19.398 11.2177C19.4552 11.1931 19.5069 11.1574 19.5502 11.1127L23.3002 7.36266C23.388 7.27475 23.4374 7.15555 23.4374 7.03125C23.4374 6.90695 23.388 6.78775 23.3002 6.69984ZM22.7344 9.375C22.5026 9.375 22.276 9.44373 22.0833 9.5725C21.8906 9.70126 21.7404 9.88429 21.6517 10.0984C21.563 10.3126 21.5398 10.5482 21.585 10.7755C21.6302 11.0028 21.7418 11.2116 21.9057 11.3755C22.0696 11.5394 22.2784 11.651 22.5058 11.6962C22.7331 11.7415 22.9687 11.7182 23.1828 11.6295C23.397 11.5409 23.58 11.3906 23.7088 11.1979C23.8375 11.0052 23.9062 10.7787 23.9062 10.5469C23.9062 10.2361 23.7828 9.938 23.563 9.71824C23.3432 9.49847 23.0452 9.375 22.7344 9.375ZM22.7344 10.7813C22.688 10.7813 22.6427 10.7675 22.6042 10.7418C22.5656 10.716 22.5356 10.6794 22.5178 10.6366C22.5001 10.5937 22.4955 10.5466 22.5045 10.5012C22.5135 10.4557 22.5359 10.4139 22.5686 10.3811C22.6014 10.3484 22.6432 10.326 22.6887 10.317C22.7341 10.308 22.7812 10.3126 22.8241 10.3303C22.8669 10.3481 22.9035 10.3781 22.9293 10.4167C22.955 10.4552 22.9688 10.5005 22.9688 10.5469C22.9688 10.609 22.9441 10.6687 22.9001 10.7126C22.8561 10.7566 22.7965 10.7813 22.7344 10.7813ZM20.625 7.26563C20.625 7.03385 20.5563 6.80728 20.4275 6.61457C20.2987 6.42185 20.1157 6.27165 19.9016 6.18295C19.6874 6.09426 19.4518 6.07105 19.2245 6.11627C18.9972 6.16148 18.7884 6.2731 18.6245 6.43698C18.4606 6.60087 18.349 6.80968 18.3038 7.037C18.2586 7.26433 18.2818 7.49995 18.3705 7.71408C18.4592 7.92822 18.6094 8.11124 18.8021 8.24C18.9948 8.36877 19.2213 8.4375 19.4531 8.4375C19.7639 8.4375 20.062 8.31404 20.2818 8.09427C20.5015 7.8745 20.625 7.57643 20.625 7.26563ZM19.2188 7.26563C19.2188 7.21927 19.2325 7.17396 19.2582 7.13541C19.284 7.09687 19.3206 7.06683 19.3634 7.04909C19.4063 7.03135 19.4534 7.02671 19.4988 7.03575C19.5443 7.0448 19.5861 7.06712 19.6189 7.0999C19.6516 7.13268 19.674 7.17444 19.683 7.2199C19.692 7.26537 19.6874 7.31249 19.6697 7.35532C19.6519 7.39814 19.6219 7.43475 19.5833 7.4605C19.5448 7.48626 19.4995 7.5 19.4531 7.5C19.391 7.5 19.3314 7.47531 19.2874 7.43135C19.2434 7.3874 19.2188 7.32779 19.2188 7.26563ZM22.6134 20.6391L16.9884 19.2328C16.9011 19.211 16.8094 19.2148 16.7242 19.2437C16.639 19.2727 16.564 19.3255 16.508 19.3959L14.1773 22.3289C11.4515 20.7998 9.20021 18.5485 7.67109 15.8227L10.6041 13.492C10.6745 13.436 10.7273 13.361 10.7563 13.2758C10.7852 13.1906 10.789 13.0989 10.7672 13.0116L9.36094 7.38656C9.33563 7.28511 9.27714 7.19503 9.19475 7.13065C9.11236 7.06627 9.01081 7.03128 8.90625 7.03125H0.46875C0.34443 7.03125 0.225201 7.08064 0.137294 7.16854C0.049386 7.25645 0 7.37568 0 7.5C0.00657586 13.4654 2.37922 19.1845 6.59736 23.4026C10.8155 27.6208 16.5346 29.9934 22.5 30C22.6243 30 22.7435 29.9506 22.8315 29.8627C22.9194 29.7748 22.9688 29.6556 22.9688 29.5312V21.0938C22.9687 20.9892 22.9337 20.8876 22.8694 20.8053C22.805 20.7229 22.7149 20.6644 22.6134 20.6391ZM22.0312 29.0573C16.4783 28.9299 11.188 26.6671 7.26044 22.7396C3.33286 18.812 1.07011 13.5217 0.942656 7.96875H8.54016L9.78469 12.9459L6.77906 15.3366C6.69322 15.4047 6.63397 15.5008 6.61162 15.6081C6.58927 15.7154 6.60522 15.8271 6.65672 15.9239C8.33513 19.0821 10.9198 21.6661 14.0784 23.3438C14.1752 23.3952 14.2869 23.4112 14.3942 23.3888C14.5016 23.3665 14.5976 23.3073 14.6658 23.2214L17.0541 20.2158L22.0312 21.4598V29.0573Z" fill="#0074CC"/>
<path d="M21.0936 1.71293e-06C19.5085 -0.000981584 17.9518 0.421393 16.5845 1.22347C15.2173 2.02554 14.089 3.17822 13.3164 4.56234C12.5437 5.94647 12.1548 7.51182 12.1897 9.09661C12.2246 10.6814 12.6821 12.2281 13.5149 13.5769L12.6679 17.2378C12.6519 17.3066 12.6517 17.3781 12.6672 17.4469C12.6828 17.5158 12.7137 17.5803 12.7576 17.6355C12.8016 17.6908 12.8574 17.7354 12.921 17.766C12.9846 17.7967 13.0543 17.8126 13.1249 17.8125C13.1604 17.8123 13.1957 17.8084 13.2304 17.8008L17.1561 16.8966C18.3593 17.4889 19.6808 17.802 21.0218 17.8122C22.3629 17.8225 23.689 17.5298 24.9011 16.9559C26.1133 16.3821 27.1802 15.5419 28.0222 14.498C28.8642 13.4542 29.4596 12.2337 29.764 10.9276C30.0683 9.62145 30.0738 8.26345 29.78 6.95493C29.4862 5.6464 28.9006 4.42112 28.067 3.37053C27.2334 2.31994 26.1734 1.47117 24.9659 0.887547C23.7584 0.303927 22.4348 0.000532037 21.0936 1.71293e-06ZM21.0936 16.875C19.8198 16.874 18.5647 16.5686 17.4327 15.9844C17.3662 15.9495 17.2922 15.9313 17.2171 15.9314C17.1817 15.9315 17.1465 15.9356 17.1121 15.9436L13.7507 16.7175L14.4726 13.5952C14.4868 13.5336 14.4885 13.4697 14.4775 13.4074C14.4665 13.3451 14.4429 13.2858 14.4083 13.2328C13.5685 11.9463 13.1225 10.4426 13.1249 8.90625C13.1249 7.33018 13.5923 5.78951 14.4679 4.47905C15.3435 3.1686 16.588 2.14722 18.0441 1.54409C19.5002 0.940951 21.1025 0.783143 22.6483 1.09062C24.1941 1.39809 25.614 2.15704 26.7284 3.27149C27.8429 4.38594 28.6018 5.80584 28.9093 7.35163C29.2168 8.89741 29.0589 10.4997 28.4558 11.9558C27.8527 13.4119 26.8313 14.6564 25.5208 15.532C24.2104 16.4076 22.6697 16.875 21.0936 16.875Z" fill="#0074CC"/>
<path d="M26.551 8.90625C26.5753 8.69543 26.6327 8.48978 26.7212 8.29688C26.9242 7.90468 26.9842 7.454 26.8909 7.02234C26.7096 6.60683 26.3876 6.26856 25.9815 6.06703C25.8059 5.96896 25.6465 5.84437 25.509 5.69766C25.4099 5.51917 25.3391 5.32642 25.299 5.12625C25.2323 4.68159 25.0119 4.27438 24.676 3.97547C24.2904 3.7503 23.8381 3.66737 23.3977 3.74109C23.1922 3.76466 22.9842 3.75596 22.7813 3.71531C22.6035 3.63115 22.4395 3.52052 22.2948 3.38719C21.975 3.05967 21.5495 2.85606 21.0938 2.8125C20.6382 2.8559 20.2126 3.05915 19.8924 3.38625C19.7481 3.51953 19.5843 3.63017 19.4068 3.71437C19.2036 3.75374 18.9956 3.76212 18.7899 3.73922C18.3492 3.66547 17.8966 3.7484 17.5107 3.97359C17.1757 4.27283 16.9556 4.6797 16.8887 5.12391C16.8487 5.3244 16.7779 5.51748 16.6787 5.69625C16.5411 5.84306 16.3815 5.96767 16.2057 6.06562C15.7998 6.26699 15.4779 6.60512 15.2968 7.02047C15.2035 7.45212 15.2635 7.9028 15.4665 8.295C15.5549 8.4879 15.6124 8.69356 15.6367 8.90438C15.6124 9.11519 15.5549 9.32085 15.4665 9.51375C15.2635 9.90595 15.2035 10.3566 15.2968 10.7883C15.4781 11.2038 15.8001 11.5421 16.2062 11.7436C16.3818 11.8417 16.5411 11.9663 16.6787 12.113C16.7778 12.2915 16.8486 12.4842 16.8887 12.6844C16.9553 13.129 17.1758 13.5362 17.5117 13.8352C17.8973 14.0602 18.3495 14.1431 18.7899 14.0695C18.9955 14.0463 19.2033 14.0547 19.4063 14.0944C19.5841 14.1784 19.748 14.2891 19.8924 14.4225C20.212 14.751 20.6377 14.9556 21.0938 15C21.5494 14.9567 21.9749 14.7534 22.2948 14.4262C22.4394 14.293 22.6033 14.1824 22.7809 14.0981C22.984 14.058 23.1921 14.0496 23.3977 14.0733C23.8384 14.1468 24.291 14.0639 24.677 13.8389C25.012 13.5397 25.232 13.1328 25.299 12.6886C25.339 12.4881 25.4098 12.295 25.509 12.1163C25.6466 11.9694 25.8062 11.8448 25.982 11.7469C26.3879 11.5455 26.7097 11.2074 26.8909 10.792C26.9842 10.3604 26.9242 9.9097 26.7212 9.5175C26.6326 9.32401 26.5751 9.11771 26.551 8.90625ZM25.8456 9.84984C25.9495 10.0506 26.0023 10.2739 25.9993 10.5C25.9524 10.6481 25.697 10.8122 25.4729 10.957C25.1969 11.1124 24.9522 11.3176 24.751 11.5622C24.5782 11.8314 24.4569 12.1304 24.3934 12.4439C24.3591 12.6746 24.2669 12.8928 24.1252 13.0781C23.9072 13.1543 23.6734 13.1743 23.4456 13.1363C23.1257 13.1021 22.8023 13.1256 22.4907 13.2056C22.2001 13.3203 21.9331 13.4876 21.7032 13.6992C21.4838 13.8778 21.257 14.0625 21.0938 14.0625C20.9307 14.0625 20.7038 13.8778 20.4845 13.6992C20.2545 13.4875 19.9873 13.3202 19.6965 13.2056C19.5001 13.1473 19.2957 13.1201 19.0909 13.125C18.9713 13.125 18.8565 13.1311 18.7421 13.1363C18.5144 13.1743 18.2808 13.1544 18.0629 13.0781C17.9209 12.8928 17.8285 12.6744 17.7943 12.4434C17.7308 12.1302 17.6095 11.8315 17.4367 11.5627C17.2357 11.318 16.9911 11.1129 16.7152 10.9575C16.4912 10.8127 16.2367 10.6486 16.1884 10.5C16.1854 10.2739 16.2382 10.0506 16.3421 9.84984C16.4763 9.55208 16.5549 9.23229 16.5742 8.90625C16.5549 8.58021 16.4763 8.26042 16.3421 7.96266C16.2382 7.76188 16.1854 7.53857 16.1884 7.3125C16.2352 7.16438 16.4907 7.00031 16.7148 6.85547C16.9907 6.70011 17.2355 6.49493 17.4367 6.25031C17.6095 5.98111 17.7308 5.68212 17.7943 5.36859C17.8285 5.13789 17.9208 4.91967 18.0624 4.73438C18.2805 4.65821 18.5143 4.63822 18.7421 4.67625C19.062 4.71065 19.3854 4.68715 19.697 4.60688C19.9876 4.4922 20.2546 4.32487 20.4845 4.11328C20.7038 3.93469 20.9307 3.75 21.0938 3.75C21.257 3.75 21.4838 3.93469 21.7032 4.11328C21.9332 4.32498 22.2003 4.49232 22.4912 4.60688C22.8026 4.68673 23.1258 4.71022 23.4456 4.67625C23.6732 4.63815 23.9069 4.65815 24.1248 4.73438C24.2668 4.91969 24.3592 5.13812 24.3934 5.36906C24.4568 5.68232 24.5781 5.98101 24.751 6.24984C24.952 6.49445 25.1966 6.69964 25.4724 6.855C25.6965 6.99984 25.951 7.16391 25.9993 7.3125C26.0023 7.53857 25.9495 7.76188 25.8456 7.96266C25.7114 8.26042 25.6327 8.58021 25.6135 8.90625C25.6327 9.23229 25.7114 9.55208 25.8456 9.84984Z" fill="#0074CC"/>
</g>
<defs>
<clipPath id="clip0_204_183">
<rect width="30" height="30" fill="white"/>
</clipPath>
</defs>
</svg>
