<svg width="24" height="21" viewBox="0 0 24 21" fill="none" xmlns="http://www.w3.org/2000/svg">
<path d="M10.1498 13.65C10.1498 13 9.8998 12.4 9.4498 11.9L6.3498 8.79996C6.1998 8.64996 5.9498 8.59996 5.7498 8.64996C5.5498 8.69996 5.3498 8.89996 5.2998 9.14996C5.1998 9.64996 4.9498 10.75 5.1998 11.65L5.2498 11.75L6.3498 12.85L5.9998 12.9C5.4998 12.9 5.0498 12.7 4.6998 12.35L3.3998 11.05V7.99996C3.3998 7.09996 2.8498 6.29996 2.0498 5.94996C1.6498 5.79996 1.1998 5.69996 0.799805 5.69996H0.299805V11.8C0.299805 12.3 0.499805 12.75 0.849805 13.1L4.4498 16.7V16.85H3.0998V20.65H11.2998V16.85H10.1498V13.65V13.65ZM1.4998 12.45C1.3498 12.3 1.2498 12.1 1.2498 11.85V6.79996C1.3498 6.84996 1.4998 6.84996 1.5998 6.89996C2.0498 7.09996 2.3498 7.54996 2.3498 7.99996V11.5L3.9498 13.1C4.4998 13.65 5.2498 13.95 5.9998 13.95L7.2498 13.75C7.4498 13.7 7.6498 13.55 7.6998 13.35C7.7498 13.15 7.6998 12.9 7.5498 12.75L6.0498 11.25C5.9498 10.85 5.9998 10.4 6.0498 9.99996L8.6498 12.6C8.9498 12.9 9.0998 13.25 9.0998 13.65V16.95H5.3498V16.8C5.3498 16.5 5.2498 16.25 5.0498 16.05L1.4998 12.45ZM10.2498 17.95V19.75H4.0998V17.95H4.3998H10.1498H10.2498ZM21.9998 5.99996C21.1998 6.34996 20.6498 7.14996 20.6498 8.04996V11.1L19.3498 12.4C18.9998 12.75 18.5498 12.95 18.0498 12.95L17.6998 12.9L18.7998 11.8L18.8498 11.7C19.0998 10.75 18.8998 9.69996 18.7498 9.14996C18.6998 8.94996 18.5498 8.74996 18.2998 8.69996C18.0998 8.64996 17.8498 8.69996 17.6998 8.84996L14.5998 11.95C14.1498 12.4 13.8998 13.05 13.8998 13.7V17H12.7498V20.8H20.9498V17H19.6498V16.8L23.2498 13.2C23.5998 12.85 23.7998 12.4 23.7998 11.9V5.74996H23.2998C22.7998 5.74996 22.3998 5.84996 21.9998 5.99996ZM19.8998 17.95V19.75H13.7498V17.95H13.8998H19.6498H19.8998ZM22.7498 11.85C22.7498 12.1 22.6498 12.3 22.4998 12.45L18.8998 16.05C18.6998 16.25 18.5998 16.5 18.5998 16.8V16.95H14.8498V13.65C14.8498 13.25 14.9998 12.9 15.2998 12.6L17.8998 9.99996C17.9498 10.4 17.9998 10.85 17.8998 11.25L16.3998 12.75C16.2498 12.9 16.1998 13.15 16.2498 13.35C16.2998 13.55 16.4998 13.7 16.6998 13.75L17.8998 13.95H17.9998C18.7998 13.95 19.4998 13.65 20.0498 13.1L21.6498 11.5V8.04996C21.6498 7.54996 21.9498 7.09996 22.3998 6.94996C22.4998 6.89996 22.6498 6.84996 22.7498 6.84996V11.85V11.85ZM12.1498 0.549963C10.3498 0.449963 8.8498 1.84996 8.7498 3.64996C8.6998 4.49996 8.9998 5.34996 9.5998 5.99996C10.1998 6.64996 10.9998 6.99996 11.8498 7.04996C11.8998 7.04996 11.9498 7.04996 11.9998 7.04996C13.6998 7.04996 15.1498 5.69996 15.2498 3.94996C15.3498 2.14996 13.9498 0.649963 12.1498 0.549963ZM11.8998 6.04996C11.2998 5.99996 10.7498 5.74996 10.3498 5.29996C9.9498 4.84996 9.7498 4.29996 9.7498 3.69996C9.7998 2.49996 10.7998 1.54996 11.9998 1.54996C12.0498 1.54996 12.0998 1.54996 12.0998 1.54996C13.3498 1.59996 14.2998 2.64996 14.2498 3.89996C14.1998 5.14996 13.1498 6.09996 11.8998 6.04996Z" fill="white"/>
</svg>
