<svg width="24" height="21" viewBox="0 0 24 21" fill="none" xmlns="http://www.w3.org/2000/svg">
<path d="M10.1498 13.65C10.1498 13 9.8998 12.4 9.4498 11.9L6.3498 8.80002C6.1998 8.65002 5.9498 8.60002 5.7498 8.65002C5.5498 8.70002 5.3498 8.90002 5.2998 9.15002C5.1998 9.65002 4.9498 10.75 5.1998 11.65L5.2498 11.75L6.3498 12.85L5.9998 12.9C5.4998 12.9 5.0498 12.7 4.6998 12.35L3.3998 11.05V8.00002C3.3998 7.10002 2.8498 6.30002 2.0498 5.95002C1.6498 5.80002 1.1998 5.70002 0.799805 5.70002H0.299805V11.8C0.299805 12.3 0.499805 12.75 0.849805 13.1L4.4498 16.7V16.85H3.0998V20.65H11.2998V16.85H10.1498V13.65V13.65ZM1.4998 12.45C1.3498 12.3 1.2498 12.1 1.2498 11.85V6.80002C1.3498 6.85002 1.4998 6.85002 1.5998 6.90002C2.0498 7.10002 2.3498 7.55002 2.3498 8.00002V11.5L3.9498 13.1C4.4998 13.65 5.2498 13.95 5.9998 13.95L7.2498 13.75C7.4498 13.7 7.6498 13.55 7.6998 13.35C7.7498 13.15 7.6998 12.9 7.5498 12.75L6.0498 11.25C5.9498 10.85 5.9998 10.4 6.0498 10L8.6498 12.6C8.9498 12.9 9.0998 13.25 9.0998 13.65V16.95H5.3498V16.8C5.3498 16.5 5.2498 16.25 5.0498 16.05L1.4998 12.45ZM10.2498 17.95V19.75H4.0998V17.95H4.3998H10.1498H10.2498ZM21.9998 6.00002C21.1998 6.35002 20.6498 7.15002 20.6498 8.05002V11.1L19.3498 12.4C18.9998 12.75 18.5498 12.95 18.0498 12.95L17.6998 12.9L18.7998 11.8L18.8498 11.7C19.0998 10.75 18.8998 9.70002 18.7498 9.15002C18.6998 8.95002 18.5498 8.75002 18.2998 8.70002C18.0998 8.65002 17.8498 8.70003 17.6998 8.85003L14.5998 11.95C14.1498 12.4 13.8998 13.05 13.8998 13.7V17H12.7498V20.8H20.9498V17H19.6498V16.8L23.2498 13.2C23.5998 12.85 23.7998 12.4 23.7998 11.9V5.75002H23.2998C22.7998 5.75002 22.3998 5.85002 21.9998 6.00002ZM19.8998 17.95V19.75H13.7498V17.95H13.8998H19.6498H19.8998ZM22.7498 11.85C22.7498 12.1 22.6498 12.3 22.4998 12.45L18.8998 16.05C18.6998 16.25 18.5998 16.5 18.5998 16.8V16.95H14.8498V13.65C14.8498 13.25 14.9998 12.9 15.2998 12.6L17.8998 10C17.9498 10.4 17.9998 10.85 17.8998 11.25L16.3998 12.75C16.2498 12.9 16.1998 13.15 16.2498 13.35C16.2998 13.55 16.4998 13.7 16.6998 13.75L17.8998 13.95H17.9998C18.7998 13.95 19.4998 13.65 20.0498 13.1L21.6498 11.5V8.05002C21.6498 7.55002 21.9498 7.10002 22.3998 6.95002C22.4998 6.90002 22.6498 6.85002 22.7498 6.85002V11.85V11.85ZM12.1498 0.550024C10.3498 0.450024 8.8498 1.85002 8.7498 3.65002C8.6998 4.50002 8.9998 5.35002 9.5998 6.00002C10.1998 6.65002 10.9998 7.00002 11.8498 7.05002C11.8998 7.05002 11.9498 7.05002 11.9998 7.05002C13.6998 7.05002 15.1498 5.70002 15.2498 3.95002C15.3498 2.15002 13.9498 0.650024 12.1498 0.550024ZM11.8998 6.05002C11.2998 6.00002 10.7498 5.75002 10.3498 5.30002C9.9498 4.85002 9.7498 4.30002 9.7498 3.70002C9.7998 2.50002 10.7998 1.55002 11.9998 1.55002C12.0498 1.55002 12.0998 1.55002 12.0998 1.55002C13.3498 1.60002 14.2998 2.65002 14.2498 3.90002C14.1998 5.15002 13.1498 6.10002 11.8998 6.05002Z" fill="#0074CC"/>
</svg>
