<svg width="24" height="24" viewBox="0 0 24 24" fill="none" xmlns="http://www.w3.org/2000/svg">
<path d="M21.1083 8H2.84926C2.38217 8 2 7.55 2 7C2 6.45 2.38217 6 2.84926 6H21.1507C21.6178 6 22 6.45 22 7C22 7.55 21.5754 8 21.1083 8Z" fill="white"/>
<path d="M7.22148 12C7.0237 12 6.86547 11.9155 6.70724 11.7887L2.2769 7.6059C2.11867 7.4369 2 7.22564 2 6.97214C2 6.71863 2.07911 6.50738 2.2769 6.33837L6.70724 2.19778C7.0237 1.90203 7.53793 1.94428 7.81483 2.28228C8.09173 2.62029 8.05217 3.1273 7.73572 3.46531L3.93828 7.01439L7.73572 10.5635C8.05217 10.8592 8.09173 11.4085 7.81483 11.7465C7.6566 11.9155 7.41926 12 7.22148 12Z" fill="white"/>
<path d="M21.1083 18H2.84926C2.38217 18 2 17.55 2 17C2 16.45 2.38217 16 2.84926 16H21.1507C21.6178 16 22 16.45 22 17C21.9575 17.55 21.5754 18 21.1083 18Z" fill="white"/>
<path d="M15.9083 22C15.6775 22 15.4006 21.9159 15.216 21.7055C14.893 21.3689 14.9391 20.864 15.3083 20.5274L19.7387 16.9933L15.3083 13.4591C14.9391 13.1646 14.893 12.6177 15.216 12.2811C15.5391 11.9445 16.139 11.9024 16.5082 12.197L21.677 16.3622C21.8616 16.5305 22 16.7409 22 16.9933C22 17.2457 21.9077 17.4561 21.677 17.6244L16.5082 21.7896C16.3236 21.9159 16.139 22 15.9083 22Z" fill="white"/>
</svg>
