<svg width="22" height="19" viewBox="0 0 22 19" fill="none" xmlns="http://www.w3.org/2000/svg">
<path d="M17.9107 9.53081C17.8516 9.53081 17.7939 9.53081 17.7375 9.53225C17.8282 9.05799 17.875 8.57363 17.875 8.09072C17.875 4.11641 14.7909 0.883057 11 0.883057C7.21187 0.883057 4.125 4.0847 4.12087 8.0172L4.13188 8.16279C1.7765 8.51597 0 10.6538 0 13.1361C0 15.653 1.72975 17.8182 4.125 18.1814H7.5625C7.74484 18.1814 7.9197 18.1055 8.04864 17.9703C8.17757 17.8352 8.25 17.6518 8.25 17.4607C8.25 17.2695 8.17757 17.0862 8.04864 16.951C7.9197 16.8158 7.74484 16.7399 7.5625 16.7399L4.22538 16.7471C2.62762 16.5006 1.375 14.9135 1.375 13.1361C1.375 11.3659 2.64275 9.84218 4.32575 9.58991L4.917 9.50054C5.08076 9.47591 5.23056 9.39019 5.33891 9.25913C5.44726 9.12806 5.5069 8.96042 5.50688 8.78698L5.49587 8.02008C5.5 4.87898 7.96813 2.32459 11 2.32459C14.0332 2.32459 16.5 4.9107 16.5 8.09072C16.5 8.48137 16.4629 8.87491 16.3873 9.25692L16.2057 10.1737C16.1604 10.4029 16.225 10.6393 16.3762 10.8109C16.5275 10.981 16.7447 11.0689 16.9702 11.0329C16.9854 11.0314 17.4158 10.9723 17.9107 10.9723C19.4081 10.9723 20.625 12.2654 20.625 13.8568C20.625 15.4469 19.3916 16.7399 17.875 16.7399H13.0625C11.1375 16.7399 11.0069 15.5305 11 15.2984V10.5154L12.6266 12.2193C12.7563 12.3506 12.93 12.4232 13.1102 12.4216C13.2905 12.4199 13.4629 12.3441 13.5904 12.2105C13.7178 12.0768 13.7901 11.8961 13.7917 11.7071C13.7933 11.5181 13.724 11.336 13.5988 11.2001L10.8322 8.30118C10.7679 8.23401 10.6915 8.18084 10.6075 8.14472C10.5235 8.1086 10.4335 8.09025 10.3427 8.09072C10.3317 8.09072 10.3235 8.08495 10.3125 8.08495C10.2189 8.08512 10.1264 8.10557 10.0408 8.14501C9.95512 8.18445 9.87816 8.24204 9.81475 8.31416L7.0455 11.2145C6.92027 11.3505 6.85097 11.5325 6.85254 11.7215C6.8541 11.9105 6.92641 12.0913 7.05387 12.2249C7.18134 12.3585 7.35378 12.4343 7.53404 12.436C7.7143 12.4376 7.88796 12.365 8.01762 12.2337L9.625 10.55V15.2984C9.625 16.2945 10.3427 18.1814 13.0625 18.1814H17.875C20.1493 18.1814 22 16.2411 22 13.8568C22 11.4726 20.1658 9.53081 17.9107 9.53081Z" fill="#0074CC"/>
</svg>
