<svg width="21" height="21" viewBox="0 0 21 21" fill="none" xmlns="http://www.w3.org/2000/svg">
<path d="M10.5 10.9375C13.1579 10.9375 15.3125 8.78287 15.3125 6.125C15.3125 3.46713 13.1579 1.3125 10.5 1.3125C7.84213 1.3125 5.6875 3.46713 5.6875 6.125C5.6875 8.78287 7.84213 10.9375 10.5 10.9375Z" stroke="white" stroke-linecap="round" stroke-linejoin="round"/>
<path d="M10.5 12.6875C7.95983 12.7571 5.4706 13.4161 3.22875 14.6125C2.65186 14.9052 2.16738 15.3521 1.82912 15.9035C1.49085 16.455 1.31203 17.0893 1.3125 17.7363V18.375C1.3125 18.7231 1.45078 19.0569 1.69692 19.3031C1.8188 19.425 1.96349 19.5216 2.12273 19.5876C2.28197 19.6536 2.45264 19.6875 2.625 19.6875H18.375C18.7231 19.6875 19.0569 19.5492 19.3031 19.3031C19.5492 19.0569 19.6875 18.7231 19.6875 18.375V17.7363C19.688 17.0893 19.5092 16.455 19.1709 15.9035C18.8326 15.3521 18.3481 14.9052 17.7713 14.6125C15.5294 13.4161 13.0402 12.7571 10.5 12.6875V12.6875Z" stroke="white" stroke-linecap="round" stroke-linejoin="round"/>
</svg>
