<svg width="24" height="24" viewBox="0 0 24 24" fill="none" xmlns="http://www.w3.org/2000/svg">
<path fill-rule="evenodd" clip-rule="evenodd" d="M23.9939 6.86735C23.9939 6.86735 22.3648 10.6948 21.5533 12.8508C20.7418 15.0128 20.3607 16 20.3607 16H3.6332C3.6332 16 3.2582 15.0128 2.44057 12.8508C1.6291 10.6888 0 6.86735 0 6.86735C5.13934 8.35111 4.69672 8.96277 4.94877 9.94992C5.20082 10.9371 3.51025 11.6154 3.57172 12.0453C3.6332 12.4753 4.07582 13.0931 5.45287 12.9114C6.43033 12.7781 6.77459 12.0575 6.89754 11.6517L6.76844 11.2459C6.76844 11.2459 6.82992 11.3126 6.95287 11.4155C6.95902 11.3852 6.95902 11.3671 6.95902 11.3671C6.95902 11.3671 7.02049 11.4276 7.89959 11.9848C7.91803 11.9969 7.93648 12.009 7.96107 12.0211C8.40369 12.1907 8.93852 12.2694 9.52869 12.1059C10.8504 11.7425 11.1885 10.4526 11.2623 10.0589C11.0594 10.1801 10.5 10.4223 9.82992 9.99232C9.45492 9.90753 9.09836 9.71374 8.90164 9.32614C8.33607 8.21787 8.77869 7.23072 9.59016 6.42526C10.0328 5.98921 10.6414 5.31093 11.127 4.65081C11.4652 3.98464 11.748 3.28818 11.9262 3.07016C11.9447 3.01565 11.9693 2.99749 12 3.00354C12.0307 2.99143 12.0553 3.0096 12.0738 3.07016C12.2459 3.28818 12.5348 3.98464 12.873 4.65081C13.3586 5.31698 13.9672 5.98921 14.4098 6.42526C15.2213 7.22467 15.6639 8.21181 15.0984 9.32614C14.9016 9.71979 14.5451 9.90753 14.1701 9.99232C13.5 10.4162 12.9406 10.174 12.7377 10.0589C12.8115 10.4526 13.1496 11.7365 14.4713 12.1059C15.0615 12.2694 15.6025 12.1846 16.0389 12.0211C16.0574 12.009 16.0758 11.9969 16.1004 11.9848C16.9795 11.4276 17.041 11.3671 17.041 11.3671C17.041 11.3671 17.041 11.3852 17.0471 11.4155C17.1639 11.3126 17.2316 11.2459 17.2316 11.2459L17.1025 11.6517C17.2193 12.0575 17.5697 12.7781 18.5471 12.9114C19.9242 13.0991 20.3607 12.4814 20.4283 12.0453C20.4898 11.6154 18.7992 10.9371 19.0512 9.94992C19.3033 8.96277 18.8607 8.34505 24 6.86735H23.9939Z" fill="#0074CC"/>
<path d="M20 17H4V19H20V17Z" fill="#0074CC"/>
</svg>
