<svg width="34" height="34" viewBox="0 0 34 34" fill="none" xmlns="http://www.w3.org/2000/svg">
<rect x="0.5" y="0.5" width="33" height="33" rx="4.5" fill="white" stroke="#0074CC"/>
<g clip-path="url(#clip0_404_14)">
<path d="M13.6729 7.58936H8.50007C7.99699 7.58936 7.58936 7.99699 7.58936 8.50007V13.6608C7.58936 14.1639 7.99699 14.5715 8.50007 14.5715C9.00315 14.5715 9.41078 14.1639 9.41078 13.6608V9.41078H13.6729C14.176 9.41078 14.5837 9.00315 14.5837 8.50007C14.5837 7.99699 14.176 7.58936 13.6729 7.58936ZM25.5001 19.4286C24.997 19.4286 24.5894 19.8363 24.5894 20.3394V24.5894H20.3574C19.8544 24.5894 19.4467 24.997 19.4467 25.5001C19.4467 26.0032 19.8544 26.4108 20.3574 26.4108H25.5001C26.0032 26.4108 26.4108 26.0032 26.4108 25.5001V20.3394C26.4108 19.8363 26.0032 19.4286 25.5001 19.4286ZM13.6729 24.5894H9.41078V20.3394C9.41078 19.8363 9.00315 19.4286 8.50007 19.4286C7.99699 19.4286 7.58936 19.8363 7.58936 20.3394V25.5001C7.58936 26.0032 7.99699 26.4108 8.50007 26.4108H13.6729C14.176 26.4108 14.5837 26.0032 14.5837 25.5001C14.5837 24.997 14.176 24.5894 13.6729 24.5894ZM25.5001 7.58936H20.3574C19.8544 7.58936 19.4467 7.99699 19.4467 8.50007C19.4467 9.00315 19.8544 9.41078 20.3574 9.41078H24.5894V13.6608C24.5894 14.1639 24.997 14.5715 25.5001 14.5715C26.0032 14.5715 26.4108 14.1639 26.4108 13.6608V8.50007C26.4108 7.99699 26.0032 7.58936 25.5001 7.58936Z" fill="#0074CC"/>
</g>
<defs>
<clipPath id="clip0_404_14">
<rect width="19.4286" height="19.4286" fill="white" transform="translate(7.28564 7.28564)"/>
</clipPath>
</defs>
</svg>
