<svg width="17" height="16" viewBox="0 0 17 16" fill="none" xmlns="http://www.w3.org/2000/svg">
<path d="M14.4375 3.54167H11.6666V2.35417C11.6656 1.26152 10.7801 0.376015 9.68748 0.375H7.31248C6.21988 0.37616 5.33447 1.26157 5.33331 2.35417V3.54167H2.56248C1.46988 3.54283 0.584473 4.42823 0.583313 5.52083V13.4375C0.584473 14.5301 1.46988 15.4155 2.56248 15.4167H14.4375C15.5301 15.4157 16.4156 14.5301 16.4166 13.4375V5.52083C16.4156 4.42818 15.5301 3.54268 14.4375 3.54167ZM6.12498 2.35417C6.1257 1.69862 6.65693 1.16739 7.31248 1.16667H9.68748C10.343 1.16739 10.8743 1.69862 10.875 2.35417V3.54167H6.12498V2.35417ZM15.625 13.4375C15.6243 14.0931 15.093 14.6243 14.4375 14.625H2.56248C1.90693 14.6243 1.3757 14.0931 1.37498 13.4375V8.47939C3.64372 9.37224 6.0597 9.83572 8.50037 9.83325C10.9408 9.83533 13.3565 9.3718 15.625 8.47919V13.4375ZM15.625 7.6322C11.061 9.51202 5.939 9.51202 1.37498 7.6322V5.52083C1.3757 4.86528 1.90693 4.33406 2.56248 4.33333H14.4375C15.093 4.33406 15.6243 4.86528 15.625 5.52083V7.6322Z" fill="#0074CC"/>
</svg>
