<svg width="14" height="16" viewBox="0 0 14 16" fill="none" xmlns="http://www.w3.org/2000/svg">
<path d="M12.045 11.918V14.918H2.63248C2.23466 14.918 1.85313 14.7599 1.57182 14.4786C1.29052 14.1973 1.13248 13.8158 1.13248 13.418V13.418C1.13248 13.0201 1.29052 12.6386 1.57182 12.3573C1.85313 12.076 2.23466 11.918 2.63248 11.918H12.045Z" stroke="#0074CC" stroke-width="0.7" stroke-linecap="round" stroke-linejoin="round"/>
<path d="M12.8725 11.6676C12.8725 11.7339 12.8462 11.7975 12.7993 11.8444C12.7524 11.8912 12.6888 11.9176 12.6225 11.9176H2.6225C2.22467 11.9176 1.84314 12.0756 1.56184 12.3569C1.28053 12.6382 1.1225 13.0198 1.1225 13.4176V2.58008C1.1225 2.18225 1.28053 1.80072 1.56184 1.51942C1.84314 1.23811 2.22467 1.08008 2.6225 1.08008H12.6225C12.6888 1.08008 12.7524 1.10642 12.7993 1.1533C12.8462 1.20019 12.8725 1.26377 12.8725 1.33008V11.6676Z" stroke="#0074CC" stroke-width="0.7" stroke-linecap="round" stroke-linejoin="round"/>
<path d="M12.045 13.4229H3.39001" stroke="#0074CC" stroke-width="0.7" stroke-linecap="round" stroke-linejoin="round"/>
<path d="M6.38751 5.4902L5.01251 4.5027L3.63751 5.4902V1.0752H6.38751V5.4902Z" stroke="#0074CC" stroke-width="0.7" stroke-linecap="round" stroke-linejoin="round"/>
<path d="M12.8725 14.9248H12.045" stroke="#0074CC" stroke-width="0.7" stroke-linecap="round" stroke-linejoin="round"/>
</svg>
