<svg width="16" height="16" viewBox="0 0 16 16" fill="none" xmlns="http://www.w3.org/2000/svg">
<path d="M15.5 15.8125C15.5829 15.8125 15.6624 15.7796 15.721 15.721C15.7796 15.6624 15.8125 15.5829 15.8125 15.5V8.97656C15.8121 8.6348 15.6762 8.30715 15.4345 8.06549C15.1928 7.82383 14.8652 7.68789 14.5234 7.6875H12.0625V1.47656C12.0621 1.1348 11.9262 0.807153 11.6845 0.565491C11.4428 0.323831 11.1152 0.187893 10.7734 0.1875H5.22656C4.8848 0.187893 4.55715 0.323831 4.31549 0.565491C4.07383 0.807153 3.93789 1.1348 3.9375 1.47656V7.6875H1.47656C1.1348 7.68789 0.807153 7.82383 0.565491 8.06549C0.323831 8.30715 0.187893 8.6348 0.1875 8.97656V15.5C0.1875 15.5829 0.220424 15.6624 0.279029 15.721C0.337634 15.7796 0.41712 15.8125 0.5 15.8125H15.5ZM13 10.8125C13.0829 10.8125 13.1624 10.7796 13.221 10.721C13.2796 10.6624 13.3125 10.5829 13.3125 10.5V8.3125H14.5234C14.6995 8.3127 14.8683 8.38272 14.9928 8.50722C15.1173 8.63171 15.1873 8.8005 15.1875 8.97656V15.1875H8.3125V8.97656C8.3127 8.8005 8.38272 8.63171 8.50722 8.50722C8.63171 8.38272 8.8005 8.3127 8.97656 8.3125H10.1875V10.5C10.1875 10.558 10.2037 10.6149 10.2342 10.6643C10.2647 10.7137 10.3083 10.7536 10.3602 10.7795C10.4122 10.8055 10.4703 10.8164 10.5281 10.8112C10.5859 10.806 10.6411 10.7848 10.6875 10.75L11.75 9.95312L12.8125 10.75C12.8666 10.7906 12.9324 10.8125 13 10.8125ZM12.6875 8.3125V9.875L11.9375 9.3125C11.8834 9.27193 11.8176 9.25 11.75 9.25C11.6824 9.25 11.6166 9.27193 11.5625 9.3125L10.8125 9.875V8.3125H12.6875ZM7.0625 0.8125H8.9375V2.375L8.1875 1.8125C8.13341 1.77193 8.06762 1.75 8 1.75C7.93238 1.75 7.86659 1.77193 7.8125 1.8125L7.0625 2.375V0.8125ZM4.5625 1.47656C4.5627 1.3005 4.63272 1.13171 4.75722 1.00722C4.88171 0.882723 5.0505 0.812696 5.22656 0.8125H6.4375V3C6.4375 3.05803 6.45366 3.11492 6.48417 3.16429C6.51468 3.21366 6.55834 3.25355 6.61025 3.27951C6.66215 3.30546 6.72026 3.31645 6.77806 3.31124C6.83586 3.30603 6.89107 3.28482 6.9375 3.25L8 2.45312L9.0625 3.25C9.10893 3.28482 9.16413 3.30603 9.22194 3.31124C9.27974 3.31645 9.33785 3.30546 9.38975 3.27951C9.44166 3.25355 9.48532 3.21366 9.51583 3.16429C9.54634 3.11492 9.5625 3.05803 9.5625 3V0.8125H10.7734C10.9495 0.812696 11.1183 0.882723 11.2428 1.00722C11.3673 1.13171 11.4373 1.3005 11.4375 1.47656V7.6875H4.5625V1.47656ZM3.3125 8.3125H5.1875V9.875L4.4375 9.3125C4.38341 9.27193 4.31762 9.25 4.25 9.25C4.18238 9.25 4.11659 9.27193 4.0625 9.3125L3.3125 9.875V8.3125ZM7.6875 15.1875H0.8125V8.97656C0.812696 8.8005 0.882723 8.63171 1.00722 8.50722C1.13171 8.38272 1.3005 8.3127 1.47656 8.3125H2.6875V10.5C2.6875 10.558 2.70366 10.6149 2.73417 10.6643C2.76468 10.7137 2.80834 10.7536 2.86025 10.7795C2.91215 10.8055 2.97026 10.8164 3.02806 10.8112C3.08586 10.806 3.14107 10.7848 3.1875 10.75L4.25 9.95312L5.3125 10.75C5.35893 10.7848 5.41414 10.806 5.47194 10.8112C5.52974 10.8164 5.58785 10.8055 5.63975 10.7795C5.69166 10.7536 5.73532 10.7137 5.76583 10.6643C5.79634 10.6149 5.8125 10.558 5.8125 10.5V8.3125H7.02344C7.1995 8.3127 7.36829 8.38272 7.49278 8.50722C7.61728 8.63171 7.6873 8.8005 7.6875 8.97656V15.1875Z" fill="#0074CC"/>
</svg>
