<svg width="18" height="18" viewBox="0 0 18 18" fill="none" xmlns="http://www.w3.org/2000/svg">
<g clip-path="url(#clip0_707_6126)">
<path d="M4.93635 3.65455C4.74544 3.49091 4.47271 3.38182 4.06362 3.27273H4.03635V2.31818C4.30907 2.34545 4.55453 2.45455 4.77271 2.61818L5.09998 2.15455C4.77271 1.93636 4.41817 1.8 4.03635 1.77273V1.5H3.70907V1.74545C3.3818 1.77273 3.10907 1.85455 2.89089 2.04545C2.67271 2.23636 2.59089 2.48182 2.59089 2.78182C2.59089 3.08182 2.67271 3.3 2.86362 3.46364C3.05453 3.62727 3.32726 3.73636 3.70907 3.81818V4.8C3.40907 4.74545 3.10907 4.60909 2.80907 4.36364L2.45453 4.82727C2.83635 5.15455 3.24544 5.34545 3.70907 5.37273V5.75455H4.03635V5.37273C4.39089 5.34545 4.66362 5.26364 4.8818 5.07273C5.09998 4.88182 5.20907 4.63636 5.20907 4.33636C5.20907 4.03636 5.12726 3.81818 4.93635 3.65455ZM3.70907 3.19091C3.51817 3.13636 3.3818 3.05455 3.32726 3C3.24544 2.94545 3.21817 2.83636 3.21817 2.72727C3.21817 2.61818 3.27271 2.50909 3.35453 2.42727C3.43635 2.34545 3.57271 2.31818 3.70907 2.29091V3.19091ZM4.44544 4.69091C4.33635 4.77273 4.22726 4.82727 4.06362 4.82727V3.9C4.2818 3.95455 4.41816 4.03636 4.47271 4.09091C4.55453 4.17273 4.5818 4.25455 4.5818 4.36364C4.5818 4.52727 4.52726 4.60909 4.44544 4.69091Z" fill="#0074CC"/>
<path d="M10.7182 11.8094V11.1004C11.5636 10.6094 12.1091 9.70944 12.1363 8.67308C12.6818 8.64581 13.0909 8.20945 13.0909 7.66399C13.0909 7.11854 12.6545 6.68217 12.1363 6.6549V5.37308C12.1636 5.34581 12.1909 5.29126 12.1909 5.26399C12.9273 3.79126 10.7182 2.26399 10.6363 2.20945C10.5545 2.1549 10.4182 2.1549 10.3363 2.20945C10.2545 2.26399 10.2 2.37308 10.2273 2.48217C10.2545 2.61854 10.2273 2.72763 10.1454 2.80945C9.84543 3.16399 8.91816 3.40945 7.60907 3.49126C7.44543 1.60945 5.86361 0.136719 3.95452 0.136719C1.93634 0.136719 0.272705 1.77308 0.272705 3.81854C0.272705 5.86399 1.90907 7.50035 3.95452 7.50035C4.17271 7.50035 4.39089 7.47308 4.5818 7.44581C4.55452 7.52763 4.55452 7.60945 4.55452 7.69126C4.55452 8.23672 4.99089 8.67308 5.50907 8.70035C5.50907 9.73672 6.0818 10.6367 6.92725 11.1276V11.8094C4.44543 12.6004 2.72725 14.9185 2.72725 17.5367V17.5913C2.72725 17.7549 2.83634 17.864 2.99998 17.864H14.5909C14.7545 17.864 14.8636 17.7549 14.8636 17.5913V17.5367C14.8636 14.9458 13.1727 12.6276 10.7182 11.8094ZM12.5454 7.66399C12.5454 7.90945 12.3545 8.10035 12.1363 8.12763V7.20035C12.3818 7.22763 12.5454 7.41854 12.5454 7.66399ZM10.5545 3.16399C10.6091 3.08217 10.6636 3.02763 10.6909 2.94581C12.3273 4.36399 11.9454 5.4549 10.8545 5.53672C8.53634 5.53672 8.29089 5.48217 6.57271 5.53672C6.29998 5.50945 6.19089 5.50945 6.02725 5.29126C5.80907 4.99126 5.7818 4.71854 5.94543 4.44581C6.0818 4.22763 6.29998 4.09126 6.57271 4.09126C7.63634 4.09126 9.87271 3.98217 10.5545 3.16399ZM0.81816 3.81854C0.81816 2.07308 2.23634 0.682173 3.95452 0.682173C5.59089 0.682173 6.92725 1.93672 7.06361 3.51854C6.54543 3.54581 5.86361 3.46399 5.45452 4.17308C5.20907 4.60945 5.23634 5.04581 5.50907 5.48217V6.6549C5.37271 6.6549 4.96361 6.76399 4.96361 6.76399C4.63634 6.87308 4.30907 6.92763 3.95452 6.92763C2.23634 6.92763 0.81816 5.53672 0.81816 3.81854ZM5.09998 7.66399C5.09998 7.41854 5.29089 7.22763 5.50907 7.20035V8.12763C5.29089 8.10035 5.09998 7.90945 5.09998 7.66399ZM6.05452 8.61854V5.97308C6.49089 6.10945 10.8273 6.0549 10.8545 6.0549C11.0182 6.0549 11.1818 6.02763 11.3182 5.97308L11.5636 5.89126V8.61854C11.5636 9.54581 11.0182 10.364 10.2 10.7185C9.62725 10.9913 9.21816 10.9094 8.72725 10.9367C8.23634 10.9367 7.90907 10.964 7.39089 10.7458C6.62725 10.3913 6.05452 9.57308 6.05452 8.61854ZM8.7818 11.4822C9.29998 11.4549 9.57271 11.5367 10.1727 11.3458V12.0549C10.1729 12.2387 10.1359 12.4206 10.0639 12.5897C9.99203 12.7588 9.88668 12.9116 9.75422 13.0389C9.62176 13.1663 9.46492 13.2656 9.29313 13.3308C9.12134 13.3961 8.93814 13.4259 8.75452 13.4185C8.01816 13.3913 7.44543 12.7913 7.44543 12.0549V11.3458C7.90907 11.4822 8.31816 11.5094 8.7818 11.4822ZM9.16361 13.9367L9.62725 16.3367L8.75452 17.0458L8.01816 16.2549L8.56361 13.964C8.75452 13.964 8.9727 13.964 9.16361 13.9367ZM6.95452 12.3549C7.03634 12.9549 7.44543 13.5276 8.04543 13.8004L7.47271 16.2822C7.44543 16.364 7.47271 16.4731 7.52725 16.5276L8.29089 17.3458H5.75452V15.164C5.75452 15.0004 5.64543 14.8913 5.4818 14.8913C5.31816 14.8913 5.20907 15.0004 5.20907 15.164V17.3458H3.29998C3.3818 15.0822 4.85452 13.0913 6.95452 12.3549ZM12.4909 17.3185V15.1367C12.4909 14.9731 12.3818 14.864 12.2182 14.864C12.0545 14.864 11.9454 14.9731 11.9454 15.1367V17.3185H9.29998L10.1182 16.664C10.2 16.6094 10.2273 16.5004 10.2273 16.3913L9.70907 13.7458C10.2818 13.4458 10.6363 12.9276 10.7182 12.3549C12.7909 13.1185 14.2363 15.0822 14.3454 17.3185H12.4909Z" fill="#0074CC"/>
<path d="M14.9727 8.0459C13.4727 8.0459 12.2182 9.27317 12.2182 10.8004C12.2182 12.3004 13.4455 13.555 14.9727 13.555C16.5 13.555 17.7273 12.3004 17.7273 10.8004C17.7273 9.27317 16.5 8.0459 14.9727 8.0459ZM14.9727 12.9823C13.7727 12.9823 12.7637 12.0004 12.7637 10.7732C12.7637 9.57317 13.7455 8.56408 14.9727 8.56408C16.1727 8.56408 17.1818 9.5459 17.1818 10.7732C17.1818 12.0004 16.2 12.9823 14.9727 12.9823Z" fill="#0074CC"/>
<path d="M14.9727 9.51859C15.1364 9.51859 15.2454 9.4095 15.2454 9.24586V9.05495C15.2454 8.89132 15.1364 8.78223 14.9727 8.78223C14.8091 8.78223 14.7 8.89132 14.7 9.05495V9.24586C14.7 9.4095 14.8364 9.51859 14.9727 9.51859ZM14.9727 12.055C14.8091 12.055 14.7 12.164 14.7 12.3277V12.5186C14.7 12.6822 14.8091 12.7913 14.9727 12.7913C15.1364 12.7913 15.2454 12.6822 15.2454 12.5186V12.3277C15.2454 12.1913 15.1364 12.055 14.9727 12.055ZM13.9364 9.35495C13.8273 9.24586 13.6636 9.24586 13.5545 9.35495C13.4454 9.46404 13.4454 9.62768 13.5545 9.73677L13.6909 9.87314C13.8 9.98223 13.9636 9.98223 14.0727 9.87314C14.1818 9.76404 14.1818 9.60041 14.0727 9.49132L13.9364 9.35495ZM16.2545 11.6731C16.1454 11.564 15.9818 11.564 15.8727 11.6731C15.7636 11.7822 15.7636 11.9459 15.8727 12.055L16.0091 12.1913C16.1182 12.3004 16.2818 12.3004 16.3909 12.1913C16.5 12.0822 16.5 11.9186 16.3909 11.8095L16.2545 11.6731ZM13.7182 10.8004C13.7182 10.6368 13.6091 10.5277 13.4454 10.5277H13.2545C13.0909 10.5277 12.9818 10.6368 12.9818 10.8004C12.9818 10.964 13.0909 11.0731 13.2545 11.0731H13.4454C13.5818 11.0731 13.7182 10.9368 13.7182 10.8004ZM16.7182 10.5277H16.5273C16.3636 10.5277 16.2545 10.6368 16.2545 10.8004C16.2545 10.964 16.3636 11.0731 16.5273 11.0731H16.7182C16.8818 11.0731 16.9909 10.964 16.9909 10.8004C16.9909 10.6368 16.8545 10.5277 16.7182 10.5277ZM13.6909 11.6731L13.5545 11.8095C13.4454 11.9186 13.4454 12.0822 13.5545 12.1913C13.6636 12.3004 13.8273 12.3004 13.9364 12.1913L14.0727 12.055C14.1818 11.9459 14.1818 11.7822 14.0727 11.6731C13.9636 11.5913 13.8 11.5913 13.6909 11.6731ZM16.2545 9.90041L16.3909 9.76404C16.5 9.65495 16.5 9.49132 16.3909 9.38223C16.2818 9.27314 16.1182 9.27314 16.0091 9.38223L15.8727 9.51859C15.7636 9.62768 15.7636 9.79132 15.8727 9.90041C15.9818 10.0095 16.1454 10.0095 16.2545 9.90041ZM14.9727 11.2095H15.7909C15.9545 11.2095 16.0636 11.1004 16.0636 10.9368C16.0636 10.7731 15.9545 10.664 15.7909 10.664H15.2454V10.2277C15.2454 10.064 15.1364 9.95495 14.9727 9.95495C14.8091 9.95495 14.7 10.064 14.7 10.2277V10.9368C14.7 11.0731 14.8364 11.2095 14.9727 11.2095Z" fill="#0074CC"/>
</g>
<defs>
<clipPath id="clip0_707_6126">
<rect width="18" height="18" fill="white"/>
</clipPath>
</defs>
</svg>
