<svg width="18" height="18" viewBox="0 0 18 18" fill="none" xmlns="http://www.w3.org/2000/svg">
<path d="M8.375 6.5C8.06597 6.5 7.76387 6.40836 7.50692 6.23667C7.24997 6.06498 7.0497 5.82095 6.93144 5.53544C6.81318 5.24993 6.78223 4.93577 6.84252 4.63267C6.90281 4.32958 7.05163 4.05117 7.27015 3.83265C7.48867 3.61413 7.76708 3.46531 8.07017 3.40502C8.37327 3.34473 8.68743 3.37568 8.97294 3.49394C9.25845 3.6122 9.50248 3.81247 9.67417 4.06942C9.84586 4.32637 9.9375 4.62847 9.9375 4.9375C9.937 5.35175 9.77222 5.74889 9.47931 6.04181C9.18639 6.33473 8.78925 6.4995 8.375 6.5ZM8.375 4C8.18958 4 8.00833 4.05498 7.85415 4.158C7.69998 4.26101 7.57982 4.40743 7.50886 4.57874C7.43791 4.75004 7.41934 4.93854 7.45551 5.1204C7.49169 5.30226 7.58098 5.4693 7.71209 5.60041C7.8432 5.73153 8.01025 5.82081 8.1921 5.85699C8.37396 5.89316 8.56246 5.8746 8.73377 5.80364C8.90507 5.73268 9.05149 5.61252 9.1545 5.45835C9.25752 5.30418 9.3125 5.12292 9.3125 4.9375C9.31225 4.68894 9.2134 4.45062 9.03764 4.27486C8.86188 4.0991 8.62357 4.00025 8.375 4ZM13.375 9.46875C13.066 9.46875 12.7639 9.37711 12.5069 9.20542C12.25 9.03373 12.0497 8.7897 11.9314 8.50419C11.8132 8.21868 11.7822 7.90452 11.8425 7.60142C11.9028 7.29833 12.0516 7.01992 12.2701 6.8014C12.4887 6.58288 12.7671 6.43406 13.0702 6.37377C13.3733 6.31348 13.6874 6.34443 13.9729 6.46269C14.2585 6.58095 14.5025 6.78122 14.6742 7.03817C14.8459 7.29512 14.9375 7.59722 14.9375 7.90625C14.937 8.3205 14.7722 8.71764 14.4793 9.01056C14.1864 9.30347 13.7892 9.46825 13.375 9.46875ZM13.375 6.96875C13.1896 6.96875 13.0083 7.02373 12.8542 7.12675C12.7 7.22976 12.5798 7.37618 12.5089 7.54749C12.4379 7.71879 12.4193 7.90729 12.4555 8.08915C12.4917 8.27101 12.581 8.43805 12.7121 8.56916C12.8432 8.70027 13.0102 8.78956 13.1921 8.82574C13.374 8.86191 13.5625 8.84334 13.7338 8.77239C13.9051 8.70143 14.0515 8.58127 14.1545 8.4271C14.2575 8.27293 14.3125 8.09167 14.3125 7.90625C14.3123 7.65769 14.2134 7.41937 14.0376 7.24361C13.8619 7.06785 13.6236 6.969 13.375 6.96875Z" fill="#0074CC"/>
<path d="M17.3947 9.09594C17.1622 8.93812 16.6941 8.62469 13.5772 10.9491C13.5377 10.8452 13.4753 10.7515 13.3947 10.675C13.1009 10.3928 12.5422 10.2837 11.7378 10.35C10.9277 10.4058 10.1137 10.358 9.31563 10.2078C8.80782 10.0578 5.09938 8.13562 3.01001 11.4847L2.91251 11.3641C2.86089 11.3002 2.79719 11.2472 2.72505 11.208C2.65291 11.1688 2.57375 11.1442 2.49209 11.1357C2.41044 11.1271 2.3279 11.1347 2.2492 11.1581C2.1705 11.1815 2.09718 11.2201 2.03344 11.2719L0.60813 12.4259C0.544266 12.4776 0.491201 12.5413 0.45197 12.6134C0.412739 12.6856 0.388109 12.7647 0.37949 12.8464C0.37087 12.9281 0.37843 13.0106 0.401736 13.0894C0.425042 13.1681 0.463638 13.2415 0.515318 13.3053L3.92657 17.5178C4.03101 17.6464 4.1822 17.7284 4.34698 17.7457C4.51176 17.7631 4.6767 17.7144 4.80563 17.6103L6.23126 16.4559C6.35997 16.3515 6.442 16.2002 6.45934 16.0354C6.47669 15.8705 6.42792 15.7055 6.32376 15.5766L6.24751 15.4828C8.07876 14.8366 9.28688 15.4266 10.4944 15.4313H10.5078C13.6063 15.4313 17.0547 11.5844 17.56 9.94438C17.7153 9.44 17.5559 9.20469 17.3947 9.09594ZM4.41251 17.1244L1.00094 12.9119L2.42657 11.7575L5.83813 15.97L4.41251 17.1244ZM15.9538 11.4028C14.6881 12.9744 12.5038 14.8063 10.5084 14.8063H10.4969C9.34375 14.8019 7.93969 14.1469 5.83282 14.9703L3.43001 12.0031C5.19594 8.89281 8.38188 10.5838 9.13876 10.8072C10.011 10.9803 10.9024 11.036 11.7894 10.9728C12.6559 10.9009 12.9063 11.0719 12.9628 11.1259C12.9766 11.1379 12.9874 11.153 12.9941 11.1699C13.0009 11.1869 13.0034 11.2053 13.0016 11.2234C12.9934 11.4231 12.4234 11.9547 11.7359 12.2322C10.775 12.6206 8.86876 11.9897 7.82563 12.3234C7.74669 12.3487 7.68102 12.4043 7.64307 12.478C7.60513 12.5517 7.59801 12.6375 7.62329 12.7164C7.64856 12.7954 7.70417 12.861 7.77786 12.899C7.85156 12.9369 7.93731 12.944 8.01626 12.9188C8.89157 12.6388 10.8194 13.2775 11.9706 12.8119C12.414 12.6291 12.8213 12.3687 13.1731 12.0428C15.9834 9.85938 16.8081 9.6325 16.9981 9.61406C16.9741 9.8325 16.7169 10.4556 15.9538 11.4028ZM7.43751 2.4375V1.1875C7.43751 1.10462 7.47043 1.02513 7.52903 0.966529C7.58764 0.907924 7.66713 0.875 7.75001 0.875C7.83289 0.875 7.91237 0.907924 7.97098 0.966529C8.02958 1.02513 8.06251 1.10462 8.06251 1.1875V2.4375C8.06251 2.52038 8.02958 2.59987 7.97098 2.65847C7.91237 2.71708 7.83289 2.75 7.75001 2.75C7.66713 2.75 7.58764 2.71708 7.52903 2.65847C7.47043 2.59987 7.43751 2.52038 7.43751 2.4375ZM8.68751 1.8125V0.5625C8.68751 0.47962 8.72043 0.400134 8.77903 0.341529C8.83764 0.282924 8.91712 0.25 9.00001 0.25C9.08289 0.25 9.16237 0.282924 9.22098 0.341529C9.27958 0.400134 9.31251 0.47962 9.31251 0.5625V1.8125C9.31251 1.89538 9.27958 1.97487 9.22098 2.03347C9.16237 2.09208 9.08289 2.125 9.00001 2.125C8.91712 2.125 8.83764 2.09208 8.77903 2.03347C8.72043 1.97487 8.68751 1.89538 8.68751 1.8125ZM13.6875 5.71906V4.46906C13.6875 4.38618 13.7204 4.3067 13.779 4.24809C13.8376 4.18949 13.9171 4.15656 14 4.15656C14.0829 4.15656 14.1624 4.18949 14.221 4.24809C14.2796 4.3067 14.3125 4.38618 14.3125 4.46906V5.71906C14.3125 5.80194 14.2796 5.88143 14.221 5.94003C14.1624 5.99864 14.0829 6.03156 14 6.03156C13.9171 6.03156 13.8376 5.99864 13.779 5.94003C13.7204 5.88143 13.6875 5.80194 13.6875 5.71906ZM12.4375 5.09375V3.84375C12.4375 3.76087 12.4704 3.68138 12.529 3.62278C12.5876 3.56417 12.6671 3.53125 12.75 3.53125C12.8329 3.53125 12.9124 3.56417 12.971 3.62278C13.0296 3.68138 13.0625 3.76087 13.0625 3.84375V5.09375C13.0625 5.17663 13.0296 5.25612 12.971 5.31472C12.9124 5.37333 12.8329 5.40625 12.75 5.40625C12.6671 5.40625 12.5876 5.37333 12.529 5.31472C12.4704 5.25612 12.4375 5.17663 12.4375 5.09375Z" fill="#0074CC"/>
</svg>
