<svg width="18" height="13" viewBox="0 0 18 13" fill="none" xmlns="http://www.w3.org/2000/svg">
<path d="M16.875 5.4375H12.375V2.625H15.3692C15.4816 2.625 15.5914 2.65869 15.6845 2.72171C15.7776 2.78474 15.8497 2.87421 15.8914 2.97859L16.875 5.4375Z" stroke="#0074CC" stroke-width="0.7" stroke-linecap="round" stroke-linejoin="round"/>
<path d="M1.125 7.125H12.375" stroke="#0074CC" stroke-width="0.7" stroke-linecap="round" stroke-linejoin="round"/>
<path d="M13.2188 12.1875C14.1507 12.1875 14.9062 11.432 14.9062 10.5C14.9062 9.56802 14.1507 8.8125 13.2188 8.8125C12.2868 8.8125 11.5312 9.56802 11.5312 10.5C11.5312 11.432 12.2868 12.1875 13.2188 12.1875Z" stroke="#0074CC" stroke-width="0.7" stroke-linecap="round" stroke-linejoin="round"/>
<path d="M4.78125 12.1875C5.71323 12.1875 6.46875 11.432 6.46875 10.5C6.46875 9.56802 5.71323 8.8125 4.78125 8.8125C3.84927 8.8125 3.09375 9.56802 3.09375 10.5C3.09375 11.432 3.84927 12.1875 4.78125 12.1875Z" stroke="#0074CC" stroke-width="0.7" stroke-linecap="round" stroke-linejoin="round"/>
<path d="M11.5312 10.5H6.46875" stroke="#0074CC" stroke-width="0.7" stroke-linecap="round" stroke-linejoin="round"/>
<path d="M12.25 8.53856V4.9375H16.75V9.4375C16.75 9.58668 16.6907 9.72976 16.5852 9.83525C16.4798 9.94074 16.3367 10 16.1875 10H14.7812M2.96875 10H1.5625C1.41332 10 1.27024 9.94074 1.16475 9.83525C1.05926 9.72976 1 9.58668 1 9.4375V1.5625C1 1.41332 1.05926 1.27024 1.16475 1.16475C1.27024 1.05926 1.41332 1 1.5625 1H12.25V8.53856L2.96875 10Z" stroke="#0074CC" stroke-width="0.7" stroke-linecap="round" stroke-linejoin="round"/>
</svg>
