<svg width="12" height="18" viewBox="0 0 12 18" fill="none" xmlns="http://www.w3.org/2000/svg">
<path d="M1.5 17.1562H8.25C8.28701 17.1565 8.32371 17.1494 8.35797 17.1354C8.39224 17.1214 8.42341 17.1008 8.44969 17.0747L11.8247 13.6997C11.8508 13.6734 11.8714 13.6422 11.8854 13.608C11.8994 13.5737 11.9065 13.537 11.9062 13.5V2.25C11.9062 1.87704 11.7581 1.51935 11.4944 1.25563C11.2306 0.991908 10.873 0.84375 10.5 0.84375H1.5C1.12704 0.84375 0.769354 0.991908 0.505631 1.25563C0.241908 1.51935 0.09375 1.87704 0.09375 2.25V15.75C0.09375 16.123 0.241908 16.4806 0.505631 16.7444C0.769354 17.0081 1.12704 17.1562 1.5 17.1562ZM8.53125 16.1972V13.7812H10.9472L8.53125 16.1972ZM0.65625 2.25C0.65625 2.02622 0.745145 1.81161 0.903379 1.65338C1.06161 1.49514 1.27622 1.40625 1.5 1.40625H10.5C10.7238 1.40625 10.9384 1.49514 11.0966 1.65338C11.2549 1.81161 11.3438 2.02622 11.3438 2.25V13.2188H8.25C8.17541 13.2188 8.10387 13.2484 8.05113 13.3011C7.99838 13.3539 7.96875 13.4254 7.96875 13.5V16.5938H1.5C1.27622 16.5938 1.06161 16.5049 0.903379 16.3466C0.745145 16.1884 0.65625 15.9738 0.65625 15.75V2.25Z" fill="#0074CC"/>
<path d="M3.1875 7.03127H3.75V3.93752H4.59375V3.37502H2.34375V3.93752H3.1875V7.03127ZM7.71562 7.03127L8.25 5.87534L8.78438 7.03127H9.40312L8.55937 5.20315L9.40312 3.37502H8.78438L8.25 4.53096L7.71562 3.37502H7.09688L7.94063 5.20315L7.09688 7.03127H7.71562ZM5.15625 7.03127L5.35313 5.86409H6.07875L6.28125 7.03127H6.84375L6.28125 3.61127C6.27047 3.54472 6.23614 3.48426 6.18452 3.4409C6.13289 3.39753 6.06741 3.37416 6 3.37502H5.4375C5.37009 3.37416 5.30461 3.39753 5.25298 3.4409C5.20136 3.48426 5.16703 3.54472 5.15625 3.61127L4.59375 7.03127H5.15625ZM5.67375 3.93752H5.75812L6 5.30159H5.4375L5.67375 3.93752ZM2.625 8.43752H9.65625V9.00002H2.625V8.43752ZM2.625 9.84377H8.53125V10.4063H2.625V9.84377ZM2.625 11.25H9.65625V11.8125H2.625V11.25ZM2.625 12.6563H6V13.2188H2.625V12.6563Z" fill="#0074CC"/>
</svg>
