<svg width="16" height="12" viewBox="0 0 16 12" fill="none" xmlns="http://www.w3.org/2000/svg">
<path d="M15.7826 10.0383C15.781 10.0214 15.7778 10.0048 15.7729 9.98897C15.7317 9.68099 15.5753 9.41513 15.3503 9.23117C15.6068 9.01643 15.7702 8.69423 15.7702 8.33441C15.7702 7.78235 15.3854 7.31939 14.8702 7.19717V3.50933L15.592 3.25427C15.6997 3.21629 15.7717 3.11459 15.772 3.00047C15.7724 2.88635 15.7009 2.78429 15.5936 2.74559L8.03004 0.0189501C7.97118 -0.0022899 7.90656 -0.00247015 7.84734 0.0187699L0.228482 2.74541C0.120842 2.78393 0.0492019 2.88617 0.0495619 3.00047C0.0499219 3.11477 0.122282 3.21647 0.230282 3.25445L2.98572 4.22069L3.36858 8.92589C3.38568 9.99293 5.66196 10.5511 7.9107 10.5511C10.1584 10.5511 12.4337 9.99347 12.4526 8.92733L12.8827 4.21133L14.3304 3.70013V7.19735C13.8151 7.31975 13.4302 7.78253 13.4302 8.33459C13.4302 8.69441 13.5937 9.01661 13.8502 9.23135C13.6253 9.41513 13.4691 9.68045 13.4275 9.98807C13.4228 10.0043 13.4194 10.0212 13.4176 10.0385L13.2515 11.6999C13.2437 11.7758 13.2688 11.8514 13.3199 11.9079C13.371 11.9645 13.4437 11.9969 13.52 11.9969H15.6802C15.7565 11.9969 15.8293 11.9646 15.8804 11.9079C15.9315 11.8514 15.9565 11.7758 15.9488 11.6999L15.7826 10.0383ZM7.93806 0.55985L14.6989 2.99705L7.93806 5.38493L1.12812 2.99705L7.93806 0.55985ZM11.9139 8.88917C11.9132 8.89727 11.9128 8.90555 11.9128 8.91365C11.9128 9.36113 10.3538 10.0111 7.9107 10.0111C5.46756 10.0111 3.9084 9.36113 3.9084 8.91365C3.9084 8.90627 3.90804 8.89907 3.9075 8.89169L3.54354 4.41617L7.84932 5.92601C7.87812 5.93609 7.90836 5.94113 7.9386 5.94113C7.96902 5.94113 7.99944 5.93609 8.0286 5.92583L12.3227 4.40915L11.9139 8.88917ZM13.9702 8.33441C13.9702 7.98701 14.2528 7.70441 14.6004 7.70441C14.9478 7.70441 15.2304 7.98701 15.2304 8.33441C15.2304 8.68181 14.9478 8.96441 14.6004 8.96441C14.2528 8.96441 13.9702 8.68181 13.9702 8.33441ZM13.8185 11.4567L13.9502 10.1391C13.9546 10.1233 13.9578 10.1067 13.9594 10.0896C13.9897 9.75605 14.2651 9.50459 14.6004 9.50459C14.9354 9.50459 15.211 9.75605 15.241 10.0896C15.2426 10.1063 15.2455 10.1227 15.2502 10.1384L15.3821 11.4569H13.8185V11.4567Z" fill="#0074CC"/>
</svg>
